<svg width="90" height="85" viewBox="0 0 90 85" fill="none" xmlns="http://www.w3.org/2000/svg">
<g id="&#208;&#159;&#208;&#190;&#209;&#129;&#209;&#130;&#208;&#176;&#208;&#178;&#208;&#186;&#208;&#184; 1" clip-path="url(#clip0_0_255)">
<g id="&#208;&#161;&#208;&#187;&#208;&#190;&#208;&#185;_x0020_1">
<path id="Vector" d="M85.1054 14.401C84.284 14.0131 83.0277 13.7707 81.3848 13.7222L81.4331 11.5887C83.4142 11.6372 84.9605 11.9281 86.0718 12.4615L85.1054 14.401ZM84.5739 22.1592L83.0277 20.656C84.139 19.4923 84.9605 18.4256 85.492 17.5043L87.3764 18.571C86.7966 19.6863 85.8302 20.85 84.5739 22.1592ZM77.036 28.4626L75.7797 26.7171C77.3259 25.6018 78.7272 24.5351 79.9835 23.5168L81.3365 25.1654C80.0802 26.2322 78.6306 27.3474 77.036 28.4626ZM69.788 33.2145L68.6767 31.3719C69.933 30.5961 71.141 29.8688 72.2524 29.093L73.412 30.8871C72.2524 31.6629 71.0444 32.4387 69.7397 33.2145H69.788Z" fill="#DB0011"/>
<path id="Vector_2" d="M2.14035 51.931L0.0142822 51.5431C0.255881 50.2824 0.980678 48.9247 2.28531 47.3246L3.92818 48.6823C2.62355 50.2824 2.18867 51.3006 2.09203 51.931H2.14035ZM22.5796 53.822L21.9998 51.737C23.1595 51.3976 24.3191 51.0582 25.5271 50.7188L26.1553 52.7553C24.9473 53.1432 23.7393 53.4826 22.5313 53.822H22.5796ZM13.0606 55.9555L12.7224 53.822C14.027 53.6281 15.4283 53.3371 16.8779 53.0462L17.3128 55.1312C15.8148 55.4706 14.3653 55.7131 13.0606 55.9555ZM7.16561 56.4889C5.47442 56.4889 4.07314 56.2949 2.96179 55.9555L3.63826 53.919C4.74962 54.3069 6.44081 54.4524 8.56688 54.3069L8.66352 56.4404C8.132 56.4889 7.64881 56.4889 7.16561 56.4889Z" fill="#DB0011"/>
<g id="_1918492690544">
<path id="Vector_3" d="M30.6973 47.4216L30.3591 49.2641C30.2141 49.9914 30.5524 50.7188 31.1805 51.1067L32.7751 52.0764L60.9938 39.324C61.7186 38.9846 62.3468 38.4997 62.83 37.8209L64.8111 35.1055C64.9077 35.0085 64.8594 34.8631 64.8594 34.8146C64.8111 34.7176 64.7628 34.6691 64.6178 34.6206L61.2837 34.3297C60.4623 34.2327 59.6892 34.3782 58.9644 34.7176L30.7457 47.47L30.6973 47.4216ZM32.6301 54.4524L30.0692 52.9492C28.6679 52.1249 27.8948 50.4763 28.233 48.8762L28.8129 45.9669L58.0463 32.7781C59.1094 32.2932 60.269 32.0992 61.477 32.1962L64.8111 32.4872C65.6808 32.5841 66.454 33.1175 66.7922 33.9418C67.1788 34.7661 67.0821 35.6874 66.5506 36.4147L64.5695 39.1301C63.893 40.0998 62.9266 40.8271 61.8636 41.312L32.6301 54.5008V54.4524Z" fill="#DB0011"/>
<path id="Vector_4" d="M49.4937 46.8397L51.9097 62.356C54.1807 60.8043 55.4854 58.089 55.3404 55.2767L54.6639 44.5123L49.4937 46.8397ZM50.2668 65.6047L47.126 45.579L56.5967 41.2635L57.4665 55.1312C57.7081 59.3012 55.3404 63.2772 51.5231 65.0228L50.2185 65.6047H50.2668Z" fill="#DB0011"/>
<path id="Vector_5" d="M56.0169 50.0884C55.6303 50.0884 55.1954 49.846 55.0505 49.4581C54.8089 48.9247 55.0505 48.2943 55.582 48.0519L59.5925 46.2578C60.1241 46.0154 60.7522 46.2578 60.9938 46.7912C61.2354 47.3246 60.9938 47.9549 60.4623 48.1974L56.4517 49.9914C56.3068 50.0399 56.1618 50.0884 56.0169 50.0884Z" fill="#DB0011"/>
<path id="Vector_6" d="M53.5043 57.5071C53.1177 57.5071 52.6828 57.2647 52.5379 56.8768C52.2963 56.3434 52.5379 55.7131 53.0694 55.4706L58.8678 52.8523C59.3993 52.6098 60.0274 52.8523 60.269 53.3856C60.5106 53.919 60.269 54.5493 59.7375 54.7918L53.8908 57.4102C53.7459 57.4586 53.6009 57.5071 53.456 57.5071H53.5043Z" fill="#DB0011"/>
<path id="Vector_7" d="M33.6448 54.016L33.4032 55.0342C33.2583 55.6646 33.3066 56.3434 33.5965 56.9253L34.7079 59.3982C34.8528 59.7376 35.1428 59.7376 35.2877 59.7376C35.3844 59.7376 35.6743 59.6406 35.7709 59.3012L37.1239 52.5128L33.6932 54.0645L33.6448 54.016ZM35.1911 61.8226C34.128 61.8226 33.21 61.2407 32.7751 60.2225L31.6637 57.7496C31.2289 56.7313 31.0839 55.5676 31.3255 54.5009L31.7604 52.4643L39.9747 48.7307L37.8003 59.5921C37.5587 60.7558 36.6407 61.6286 35.481 61.7256C35.3844 61.7256 35.2877 61.7256 35.1428 61.7256L35.1911 61.8226Z" fill="#DB0011"/>
<path id="Vector_8" d="M35.6743 26.2322L45.6281 38.3058L50.7983 35.9783L43.2121 28.3172C41.231 26.3291 38.3318 25.5533 35.6743 26.1837V26.2322ZM45.0483 40.9726L32.1469 25.3594L33.4515 24.7775C37.2688 23.0804 41.8109 23.9047 44.7584 26.8625L54.5673 36.7056L45.0966 41.0211L45.0483 40.9726Z" fill="#DB0011"/>
<path id="Vector_9" d="M48.3823 33.0205C47.9958 33.0205 47.5609 32.7781 47.416 32.3902C47.1744 31.8568 47.416 31.2265 47.9475 30.984L51.958 29.19C52.4895 28.9475 53.1177 29.19 53.3593 29.7233C53.6009 30.2567 53.3593 30.8871 52.8278 31.1295L48.8172 32.9236C48.6723 32.9721 48.5273 33.0205 48.3823 33.0205Z" fill="#DB0011"/>
<path id="Vector_10" d="M41.1344 30.0143C40.7478 30.0143 40.313 29.7718 40.168 29.3839C39.9264 28.8505 40.168 28.2202 40.6995 27.9777L46.1597 25.5048C46.6912 25.2624 47.3193 25.5048 47.5609 26.0382C47.8025 26.5716 47.5609 27.2019 47.0294 27.4444L41.5693 29.9173C41.4243 29.9658 41.2794 30.0143 41.1344 30.0143Z" fill="#DB0011"/>
<path id="Vector_11" d="M27.025 40.3423C26.8317 40.3423 26.7351 40.4393 26.6385 40.4877C26.5418 40.5847 26.3485 40.7787 26.4935 41.1181L27.6049 43.591C27.8465 44.1729 28.3297 44.6577 28.9095 44.9972L29.7792 45.482L33.21 43.9304L27.2666 40.4393C27.17 40.3908 27.0733 40.3423 26.9767 40.3423H27.025ZM29.7309 47.858L27.8948 46.8397C26.9284 46.3063 26.1553 45.4335 25.6721 44.4638L24.5607 41.9909C24.0775 40.8756 24.3191 39.6634 25.2372 38.8876C26.1069 38.0633 27.3633 37.9663 28.378 38.5482L37.897 44.1244L29.6826 47.858H29.7309Z" fill="#DB0011"/>
<path id="Vector_12" d="M60.7039 38.7422C60.3173 38.7422 59.8825 38.4997 59.7375 38.1118L58.9644 36.3662C58.7228 35.8329 58.9644 35.2025 59.4959 34.9601C60.0274 34.7176 60.6556 34.9601 60.8972 35.4934L61.6703 37.239C61.9119 37.7724 61.6703 38.4027 61.1388 38.6452C60.9938 38.6937 60.8489 38.7422 60.7039 38.7422Z" fill="#DB0011"/>
</g>
<path id="Vector_13" d="M7.64882 53.8705C7.16562 53.8705 6.73074 53.5311 6.6341 53.0462C5.76435 49.6035 5.32947 46.0639 5.32947 42.4758C5.32947 19.0559 24.3191 0 47.6576 0C61.8153 0 75.0066 7.07929 82.8827 18.9104C83.2209 19.3953 83.076 20.0742 82.5928 20.4136C82.1096 20.753 81.4331 20.6075 81.0949 20.1226C73.6053 8.87336 61.0905 2.18197 47.6576 2.18197C25.4788 2.18197 7.45554 20.2681 7.45554 42.5242C7.45554 45.9184 7.89042 49.2641 8.71185 52.5613C8.85681 53.1432 8.51857 53.725 7.93874 53.8705L7.69714 53.919L7.64882 53.8705Z" fill="#DB0011"/>
<path id="Vector_14" d="M47.6576 85C30.2625 85 14.8485 74.5265 8.3736 58.3799C8.13201 57.8465 8.42192 57.2162 8.95344 56.9738C9.48496 56.7313 10.1131 57.0222 10.3547 57.5556C16.5396 72.9264 31.1805 82.818 47.6576 82.818C69.8364 82.818 87.8596 64.7319 87.8596 42.4758C87.8596 36.2208 86.4584 30.2567 83.7041 24.6805C83.4625 24.1472 83.6558 23.5168 84.1873 23.2259C84.7188 22.9835 85.347 23.1774 85.6369 23.7108C88.5361 29.5779 89.9857 35.8813 89.9857 42.4758C89.9857 65.8956 70.996 84.9515 47.6576 84.9515V85Z" fill="#DB0011"/>
<path id="Vector_15" d="M12.4325 53.3856C12.1909 53.3856 11.9976 53.3371 11.8043 53.1917C7.55218 50.0399 5.32947 46.3548 5.32947 42.5242C5.32947 34.4267 14.9451 27.4929 30.4074 24.3411C30.9873 24.2442 31.5671 24.5836 31.6637 25.1654C31.7604 25.7473 31.4221 26.3292 30.8423 26.4261C16.6363 29.2869 7.50386 35.5904 7.50386 42.4758C7.50386 45.579 9.43665 48.6823 13.109 51.3976C13.5921 51.737 13.6888 52.4159 13.3505 52.9007C13.1573 53.1917 12.819 53.3371 12.4808 53.3371L12.4325 53.3856Z" fill="#DB0011"/>
<path id="Vector_16" d="M72.1074 28.4142C72.0107 28.4142 71.8658 28.4142 71.7691 28.3657C64.7628 25.9897 56.4035 24.7775 47.6576 24.7775C47.0777 24.7775 46.5945 24.2926 46.5945 23.7108C46.5945 23.1289 47.0777 22.644 47.6576 22.644C56.6451 22.644 65.1977 23.9047 72.4456 26.3292C73.0255 26.5231 73.3154 27.105 73.1221 27.6868C72.9771 28.1232 72.5423 28.4142 72.1074 28.4142Z" fill="#DB0011"/>
<path id="Vector_17" d="M59.0127 61.6286C58.4812 61.6286 57.998 61.2407 57.9497 60.7074C57.8531 60.1255 58.2879 59.5921 58.8678 59.4952C75.9247 57.2647 87.8113 50.2824 87.8113 42.4758C87.8113 38.1603 84.0907 33.9418 77.3743 30.6446C76.8427 30.4022 76.6011 29.7233 76.8911 29.19C77.1327 28.6566 77.8091 28.4142 78.3406 28.7051C85.8302 32.3902 89.9857 37.2875 89.9857 42.4758C89.9857 51.5431 77.6159 59.2042 59.1577 61.6286H59.0127Z" fill="#DB0011"/>
<path id="Vector_18" d="M47.6576 62.356C45.6281 62.3075 41.9075 62.2105 39.5399 61.9681C38.96 61.9196 38.5251 61.3862 38.5735 60.8043C38.6218 60.2225 39.1533 59.7861 39.7331 59.8346C42.1008 60.077 46.063 60.174 47.6576 60.174C48.2374 60.174 48.7206 60.6589 48.7206 61.2892C48.7206 61.8711 48.2374 62.356 47.6576 62.356Z" fill="#DB0011"/>
<path id="Vector_19" d="M30.504 60.6589H30.2624C26.1553 59.7861 22.3863 58.6224 19.0523 57.2162C18.5207 56.9738 18.2308 56.3434 18.4724 55.81C18.714 55.2767 19.3422 54.9857 19.8737 55.2282C23.0628 56.5859 26.7351 57.7011 30.6973 58.5254C31.2772 58.6224 31.6637 59.2042 31.5188 59.7861C31.4221 60.271 30.9872 60.6589 30.4557 60.6589H30.504Z" fill="#DB0011"/>
<path id="Vector_20" d="M29.1028 37.7239H29.0545C28.4746 37.6754 28.0398 37.1905 28.0398 36.5602C29.3927 15.3708 37.6554 0 47.6576 0C56.4035 0 64.038 12.0251 66.5989 29.8688C66.6956 30.4507 66.2607 30.984 65.6809 31.081C65.101 31.178 64.5695 30.7416 64.4729 30.1597C62.1052 13.6737 55.1955 2.13349 47.6576 2.13349C38.96 2.13349 31.4221 16.9709 30.1658 36.7057C30.1175 37.2875 29.6343 37.7239 29.1028 37.7239Z" fill="#DB0011"/>
<path id="Vector_21" d="M47.6576 85C39.5399 85 32.5818 75.3508 29.441 59.8346C29.3444 59.2527 29.6826 58.6709 30.2625 58.5739C30.8423 58.4769 31.4221 58.8163 31.5188 59.3982C34.3696 73.6537 40.6512 82.8665 47.6093 82.8665C57.1766 82.8665 65.246 64.3925 65.246 42.5242C65.246 41.9424 65.7292 41.4575 66.309 41.4575C66.8889 41.4575 67.3721 41.9424 67.3721 42.5242C67.3721 66.332 58.6745 85 47.5609 85H47.6576Z" fill="#DB0011"/>
<path id="Vector_22" d="M88.9226 43.5425H66.4056C65.8258 43.5425 65.3426 43.0576 65.3426 42.4758C65.3426 41.8939 65.8258 41.409 66.4056 41.409H88.9226C89.5025 41.409 89.9857 41.8939 89.9857 42.4758C89.9857 43.0576 89.5025 43.5425 88.9226 43.5425Z" fill="#DB0011"/>
<path id="Vector_23" d="M22.5313 43.5425H6.3925C5.81267 43.5425 5.32947 43.0576 5.32947 42.4758C5.32947 41.8939 5.81267 41.409 6.3925 41.409H22.5313C23.1111 41.409 23.5943 41.8939 23.5943 42.4758C23.5943 43.0576 23.1111 43.5425 22.5313 43.5425Z" fill="#DB0011"/>
<path id="Vector_24" d="M47.6576 85C47.0777 85 46.5945 84.5151 46.5945 83.9333V61.2892C46.5945 60.7074 47.0777 60.2225 47.6576 60.2225C48.2374 60.2225 48.7206 60.7074 48.7206 61.2892V83.9333C48.7206 84.5151 48.2374 85 47.6576 85Z" fill="#DB0011"/>
<path id="Vector_25" d="M47.6576 24.7775C47.0777 24.7775 46.5945 24.2926 46.5945 23.7108V1.11524C46.5945 0.533376 47.0777 0.0484924 47.6576 0.0484924C48.2374 0.0484924 48.7206 0.533376 48.7206 1.11524V23.7108C48.7206 24.2926 48.2374 24.7775 47.6576 24.7775Z" fill="#DB0011"/>
</g>
</g>
<defs>
<clipPath id="clip0_0_255">
<rect width="90" height="85" fill="white"/>
</clipPath>
</defs>
</svg>
