<?xml version="1.0" encoding="UTF-8"?>
<!DOCTYPE svg PUBLIC "-//W3C//DTD SVG 1.1//EN" "http://www.w3.org/Graphics/SVG/1.1/DTD/svg11.dtd">
<!-- Creator: CorelDRAW -->
<svg xmlns="http://www.w3.org/2000/svg" xml:space="preserve" width="2.24737cm" height="2.24814cm" version="1.1" style="shape-rendering:geometricPrecision; text-rendering:geometricPrecision; image-rendering:optimizeQuality; fill-rule:evenodd; clip-rule:evenodd"
viewBox="0 0 22.1 22.11"
 xmlns:xlink="http://www.w3.org/1999/xlink"
 xmlns:xodm="http://www.corel.com/coreldraw/odm/2003">
 <defs>
  <style type="text/css">
   <![CDATA[
    .fil1 {fill:red}
    .fil0 {fill:red;fill-rule:nonzero}
   ]]>
  </style>
 </defs>
 <g id="Слой_x0020_1">
  <metadata id="CorelCorpID_0Corel-Layer"/>
  <path id="Vector" class="fil0" d="M16.88 6.74c-0.13,-0.06 -0.32,-0.1 -0.57,-0.1l0.01 -0.33c0.3,0.01 0.54,0.05 0.71,0.13l-0.15 0.3zm-5.91 1.43l0 -3.3c-0.99,0.14 -1.87,1.54 -2.29,3.54 0,0.03 -0,0.06 -0.02,0.09 -0.1,0.52 -0.18,1.08 -0.21,1.66 -0.01,0.09 -0.08,0.16 -0.16,0.16l-0.01 0c-0.09,-0.01 -0.16,-0.08 -0.16,-0.18 0.03,-0.53 0.1,-1.03 0.18,-1.5 -1.93,0.44 -3.19,1.29 -3.32,2.24l2.29 0c0.09,0 0.16,0.07 0.16,0.16 0,0.09 -0.07,0.16 -0.16,0.16l-2.29 0c0.06,0.42 0.35,0.84 0.85,1.2 0.07,0.05 0.09,0.16 0.04,0.23 -0.03,0.04 -0.08,0.07 -0.13,0.07l-0.01 0.01c-0.04,0 -0.07,-0.01 -0.1,-0.03 -0.23,-0.17 -0.42,-0.35 -0.57,-0.53 0.03,0.15 0.06,0.29 0.09,0.44 0.02,0.09 -0.03,0.18 -0.12,0.2l-0.04 0.01 -0.01 -0.01c-0.07,0 -0.14,-0.05 -0.16,-0.13 -0.13,-0.52 -0.2,-1.06 -0.2,-1.61l0 -0 0 -0.01c0,-3.59 2.91,-6.52 6.49,-6.52 2.17,0 4.2,1.09 5.4,2.9 0.05,0.07 0.03,0.18 -0.04,0.23 -0.07,0.05 -0.18,0.03 -0.23,-0.04 -0.94,-1.41 -2.4,-2.36 -4.03,-2.65 0.73,0.6 1.33,1.77 1.66,3.32 0.36,0.08 0.71,0.17 1.04,0.28 0.09,0.03 0.13,0.12 0.1,0.21 -0.02,0.07 -0.09,0.11 -0.16,0.11 -0.01,0 -0.04,0 -0.05,-0.01 -0.28,-0.09 -0.57,-0.18 -0.87,-0.25 0.03,0.16 0.05,0.31 0.08,0.48 0.01,0.09 -0.05,0.17 -0.14,0.19 -0.09,0.01 -0.17,-0.05 -0.19,-0.14 -0.03,-0.2 -0.06,-0.4 -0.1,-0.6 -0.78,-0.15 -1.61,-0.23 -2.48,-0.23 -0.09,0 -0.16,-0.07 -0.16,-0.16zm0.33 -3.3l0 3.13c0.78,0.01 1.53,0.08 2.24,0.21 -0.44,-1.91 -1.3,-3.21 -2.24,-3.34zm-0.33 12.36l0 -3.14c-0.32,-0.01 -0.78,-0.02 -1.08,-0.06 -0.09,-0.01 -0.16,-0.09 -0.15,-0.18 0.01,-0.09 0.09,-0.16 0.18,-0.15 0.36,0.04 0.97,0.05 1.22,0.05 0.09,0 0.16,0.07 0.16,0.16l0 0 0 0 0 0 0 0 0 0 0 3.3c0.95,-0.14 1.79,-1.48 2.22,-3.34 -0.2,0.04 -0.41,0.07 -0.62,0.1l-0.02 0c-0.08,0 -0.16,-0.06 -0.16,-0.14 -0.01,-0.09 0.05,-0.17 0.14,-0.19 0.26,-0.03 0.5,-0.07 0.74,-0.12 0.15,-0.76 0.24,-1.61 0.24,-2.48 0,-0.07 0.04,-0.12 0.1,-0.15 0.02,-0.01 0.05,-0.02 0.08,-0.02l3.27 0c-0.09,-0.6 -0.64,-1.19 -1.59,-1.65 -0.08,-0.04 -0.12,-0.14 -0.07,-0.22 0.04,-0.08 0.14,-0.12 0.22,-0.07 0.6,0.3 1.06,0.64 1.36,1.02 -0.1,-0.57 -0.28,-1.11 -0.54,-1.64 -0.04,-0.08 -0.01,-0.18 0.07,-0.22 0.08,-0.04 0.18,-0.01 0.22,0.07 0.44,0.9 0.67,1.87 0.67,2.88 0,3.54 -2.83,6.43 -6.34,6.51 -0.05,0.01 -0.09,0.01 -0.14,0.01 -0,0 -0.01,0 -0.01,0l-0.01 0 0 -0c-2.66,-0 -5.02,-1.61 -6.01,-4.08 -0.04,-0.08 0.01,-0.18 0.09,-0.22 0.08,-0.04 0.18,0.01 0.21,0.09 0.8,2 2.54,3.39 4.59,3.77 -0.72,-0.59 -1.31,-1.75 -1.64,-3.32 -0.59,-0.13 -1.13,-0.3 -1.61,-0.51 -0.08,-0.04 -0.13,-0.13 -0.09,-0.22 0.04,-0.08 0.13,-0.13 0.21,-0.09 0.49,0.21 1.05,0.38 1.66,0.51 0.08,0.01 0.13,0.08 0.13,0.16 0.42,2.07 1.31,3.44 2.31,3.57zm6.31 -6.02l-3.12 0c-0.01,0.8 -0.08,1.55 -0.21,2.25 1.91,-0.44 3.2,-1.29 3.33,-2.25zm-3.4 2.61c-0.33,1.53 -0.92,2.72 -1.65,3.32 2.52,-0.45 4.52,-2.45 4.97,-4.99 -0.59,0.73 -1.77,1.33 -3.32,1.67zm-5.51 -5.53c0.33,-1.54 0.92,-2.72 1.65,-3.32 -2.51,0.46 -4.5,2.45 -4.96,4.97 0.58,-0.73 1.74,-1.32 3.31,-1.65zm4.76 2.19c-0.06,0 -0.13,-0.04 -0.15,-0.1l-0.12 -0.27c-0.04,-0.08 0,-0.18 0.08,-0.22 0.08,-0.04 0.18,0 0.21,0.08l0.12 0.27c0.04,0.08 0,0.18 -0.08,0.22 -0.02,0.01 -0.04,0.01 -0.07,0.01zm-5.17 0.25c-0.03,0 -0.04,0.01 -0.06,0.02 -0.01,0.01 -0.04,0.04 -0.02,0.1l0.17 0.38c0.04,0.09 0.11,0.16 0.2,0.22l0.13 0.07 0.53 -0.24 -0.91 -0.54c-0.01,-0.01 -0.03,-0.01 -0.04,-0.01l0.01 0zm0.24 1.05l-0.1 -0.06c-0.15,-0.08 -0.27,-0.22 -0.34,-0.36l-0.17 -0.38c-0.07,-0.17 -0.04,-0.36 0.1,-0.48 0.13,-0.13 0.33,-0.14 0.48,-0.05l1.13 0.66 1.22 -0.55 -1.76 -2.13 0.2 -0.09c0.55,-0.25 1.2,-0.15 1.65,0.25l0.3 -0.13c0.08,-0.04 0.18,0 0.21,0.08 0.04,0.08 0,0.18 -0.08,0.22l-0.18 0.08 0.42 0.42 0.52 -0.23c0.08,-0.04 0.18,0 0.21,0.08 0.04,0.08 0,0.18 -0.08,0.22l-0.4 0.18 0.42 0.42 0.78 -0.35c0.16,-0.07 0.34,-0.1 0.53,-0.09l0.51 0.04c0.13,0.01 0.25,0.1 0.3,0.22 0.06,0.13 0.04,0.27 -0.04,0.38l-0.3 0.42c-0.1,0.15 -0.25,0.26 -0.42,0.33l-0.79 0.35 0.04 0.58 0.4 -0.18c0.08,-0.04 0.18,0 0.21,0.08 0.04,0.08 0,0.18 -0.08,0.22l-0.51 0.23 0.04 0.59 0.23 -0.1c0.08,-0.04 0.18,0 0.21,0.08 0.04,0.08 0,0.18 -0.08,0.22l-0.35 0.15c-0.01,0.6 -0.36,1.16 -0.91,1.41l-0.2 0.09 0.01 0 -0.43 -2.73 -1.23 0.56 -0.25 1.25c-0.04,0.18 -0.18,0.31 -0.36,0.33 -0.01,0 -0.03,0 -0.05,0l0.01 0.01c-0.16,0 -0.3,-0.09 -0.37,-0.25l-0.17 -0.38c-0.07,-0.16 -0.09,-0.33 -0.05,-0.5l0.02 -0.11 -0.22 -0.13c-0.21,-0.13 -0.33,-0.38 -0.28,-0.62l0.05 -0.26zm1.93 -2.64c-0.06,0 -0.13,-0.04 -0.15,-0.1 -0.04,-0.08 0,-0.18 0.08,-0.22l0.21 -0.09c-0.29,-0.19 -0.65,-0.26 -0.98,-0.18l0 0.01 1.53 1.85 0.79 -0.36 -1.07 -1.08 -0.34 0.15c-0.02,0.01 -0.04,0.01 -0.07,0.01zm2.06 1.03l0 0 -1.45 0.66 -0 -0 -2.2 0.99 -0.01 -0.01 -0.05 0.28c-0.02,0.11 0.03,0.22 0.13,0.28l0.23 0.14 1.11 -0.51 -0 0.02 1.1 -0.5 -0 -0 1.45 -0.66 0 0.01 0.67 -0.3c0.11,-0.05 0.21,-0.13 0.28,-0.23l0.3 -0.42c0.01,-0.01 0.01,-0.04 0.01,-0.04 -0.01,-0.01 -0.01,-0.02 -0.04,-0.03l-0.51 -0.04c-0.13,-0.01 -0.24,0.01 -0.36,0.06l-0.67 0.3zm-3.21 2.66l-0.04 0.15c-0.02,0.1 -0.01,0.2 0.03,0.29l0.17 0.38c0.02,0.05 0.07,0.05 0.09,0.05 0.01,0 0.06,-0.01 0.07,-0.07l0.21 -1.04 -0.53 0.24 -0 -0 -0 0zm3.05 0.53c-0.06,0 -0.13,-0.04 -0.15,-0.1 -0.04,-0.08 0,-0.18 0.08,-0.22l0.34 -0.15 -0.1 -1.52 -0.79 0.36 0.37 2.37c0.29,-0.2 0.47,-0.51 0.52,-0.85l-0.21 0.1c-0.02,0.01 -0.04,0.01 -0.07,0.01l0.01 0zm-7.88 -0.86l-0.33 -0.06c0.04,-0.19 0.15,-0.4 0.35,-0.65l0.25 0.21c-0.2,0.25 -0.27,0.4 -0.28,0.5l0.01 0zm3.14 0.29l-0.09 -0.32c0.18,-0.05 0.36,-0.1 0.54,-0.16l0.1 0.31c-0.19,0.06 -0.37,0.11 -0.56,0.16l0.01 0zm-1.46 0.33l-0.05 -0.33c0.2,-0.03 0.42,-0.07 0.64,-0.12l0.07 0.32c-0.23,0.05 -0.45,0.09 -0.65,0.13zm-0.9 0.08c-0.26,0 -0.47,-0.03 -0.64,-0.08l0.1 -0.31c0.17,0.06 0.43,0.08 0.76,0.06l0.01 0.33c-0.08,0.01 -0.16,0.01 -0.23,0.01zm11.87 -5.27l-0.24 -0.23c0.17,-0.18 0.3,-0.34 0.38,-0.48l0.29 0.16c-0.09,0.17 -0.24,0.35 -0.43,0.55zm-1.16 0.97l-0.19 -0.27c0.24,-0.17 0.45,-0.33 0.64,-0.49l0.21 0.25c-0.19,0.16 -0.42,0.33 -0.66,0.51zm-1.11 0.73l-0.17 -0.28c0.19,-0.12 0.38,-0.23 0.55,-0.35l0.18 0.28c-0.18,0.12 -0.36,0.24 -0.56,0.36l0.01 0z"/>
  <path id="Vector_0" class="fil1" d="M18.23 5.05c-0.13,0.07 -0.27,0.07 -0.4,0.02 -0.13,-0.04 -0.25,-0.13 -0.31,-0.27 -0.07,-0.13 -0.07,-0.27 -0.02,-0.4 0.04,-0.13 0.13,-0.25 0.27,-0.31 0.07,-0.04 0.16,-0.07 0.25,-0.07 0.04,0 0.11,0 0.16,0.02 0.13,0.04 0.25,0.13 0.31,0.27 0.07,0.13 0.07,0.27 0.02,0.4 -0.04,0.13 -0.13,0.25 -0.27,0.31l0 0.02zm0.47 -0.25c0.07,-0.18 0.04,-0.38 -0.04,-0.56 -0.09,-0.18 -0.25,-0.31 -0.42,-0.38 -0.18,-0.07 -0.38,-0.04 -0.56,0.04 -0.04,0.02 -0.07,0.04 -0.11,0.07 -2.93,-2.7 -7.29,-3.31 -10.85,-1.5 -3.82,1.94 -5.9,6.24 -5.05,10.46 0.02,0.13 0.07,0.27 0.09,0.4 0.18,0.69 0.42,1.39 0.76,2.03 0.02,0.04 0.07,0.07 0.09,0.07 0.02,0 0.02,0 0.04,-0.02 0.04,-0.02 0.07,-0.09 0.04,-0.13 -0.31,-0.63 -0.58,-1.3 -0.74,-1.99 -0.02,-0.13 -0.07,-0.27 -0.09,-0.4 -0.83,-4.11 1.21,-8.31 4.94,-10.21 3.49,-1.77 7.74,-1.18 10.6,1.45 -0.04,0.07 -0.09,0.13 -0.11,0.22 -0.07,0.18 -0.04,0.38 0.04,0.56 0.09,0.18 0.25,0.31 0.42,0.38 0.07,0.02 0.16,0.04 0.22,0.04 0.11,0 0.22,-0.02 0.34,-0.09 0.18,-0.09 0.31,-0.25 0.38,-0.42l0 -0.02zm-14.69 13.28c-0.27,-0.09 -0.42,-0.4 -0.34,-0.67 0.04,-0.13 0.13,-0.25 0.27,-0.31 0.07,-0.04 0.16,-0.07 0.25,-0.07 0.04,0 0.11,0 0.16,0.02 0.13,0.04 0.25,0.13 0.31,0.27 0.07,0.13 0.07,0.27 0.02,0.4 -0.09,0.27 -0.38,0.42 -0.67,0.34l0 0.02zm16.44 -8.96c-0.02,-0.13 -0.07,-0.27 -0.09,-0.4 -0.18,-0.69 -0.42,-1.39 -0.76,-2.03 -0.02,-0.04 -0.09,-0.07 -0.13,-0.04 -0.04,0.02 -0.07,0.09 -0.04,0.13 0.31,0.63 0.58,1.3 0.74,1.99 0.04,0.13 0.07,0.27 0.09,0.4 0.83,4.11 -1.19,8.31 -4.94,10.21 -3.44,1.74 -7.65,1.18 -10.51,-1.36 0.04,-0.07 0.09,-0.13 0.11,-0.2 0.07,-0.18 0.04,-0.38 -0.04,-0.56 -0.09,-0.18 -0.25,-0.31 -0.42,-0.38 -0.38,-0.13 -0.81,0.09 -0.94,0.47 -0.13,0.38 0.09,0.8 0.47,0.94 0.07,0.02 0.16,0.04 0.22,0.04 0.16,0 0.34,-0.07 0.45,-0.16 1.79,1.61 4.09,2.44 6.42,2.44 1.48,0 2.97,-0.34 4.34,-1.03 3.82,-1.94 5.9,-6.26 5.05,-10.46zm-1.36 10.01c-0.04,0.13 -0.13,0.25 -0.27,0.31 -0.13,0.07 -0.27,0.07 -0.4,0.02 -0.13,-0.04 -0.25,-0.13 -0.31,-0.27 -0.07,-0.13 -0.07,-0.27 -0.02,-0.4 0.07,-0.22 0.29,-0.36 0.49,-0.36 0.04,0 0.11,0 0.16,0.02 0.13,0.04 0.25,0.13 0.31,0.27 0.07,0.13 0.07,0.27 0.02,0.4l0.02 0zm0.09 -0.6c3.13,-3.38 3.82,-8.4 1.72,-12.49 -2.26,-4.4 -7.2,-6.82 -12.05,-5.81 -0.13,0.02 -0.29,0.07 -0.47,0.11 -0.81,0.2 -1.59,0.49 -2.35,0.87 -0.16,0.09 -0.34,0.18 -0.47,0.27 -0.04,0.02 -0.07,0.09 -0.04,0.13 0.02,0.04 0.09,0.07 0.13,0.04 0.16,-0.09 0.31,-0.18 0.47,-0.25 0.74,-0.38 1.5,-0.67 2.3,-0.85 0.18,-0.04 0.34,-0.07 0.47,-0.11 4.76,-0.96 9.62,1.39 11.83,5.7 2.06,4.02 1.36,8.94 -1.68,12.25 -0.07,-0.04 -0.13,-0.09 -0.2,-0.11 -0.38,-0.13 -0.81,0.09 -0.94,0.47 -0.07,0.18 -0.04,0.38 0.04,0.56 0.09,0.18 0.25,0.31 0.42,0.36 0.07,0.02 0.16,0.04 0.22,0.04 0.11,0 0.22,-0.02 0.34,-0.09 0.18,-0.09 0.31,-0.25 0.36,-0.42 0.07,-0.18 0.04,-0.38 -0.04,-0.56 -0.02,-0.04 -0.04,-0.07 -0.07,-0.11zm-16.08 -15.69c0.04,-0.13 0.13,-0.25 0.27,-0.31 0.07,-0.04 0.16,-0.07 0.25,-0.07 0.04,0 0.11,0 0.16,0.02 0.13,0.04 0.25,0.13 0.31,0.27 0.07,0.13 0.07,0.27 0.02,0.4 -0.04,0.13 -0.13,0.25 -0.27,0.31 -0.13,0.07 -0.27,0.07 -0.4,0.02 -0.13,-0.04 -0.25,-0.13 -0.31,-0.27 -0.07,-0.13 -0.07,-0.27 -0.02,-0.4l0 0.02zm13.35 17.59c-0.16,0.09 -0.31,0.18 -0.47,0.25 -0.74,0.38 -1.5,0.67 -2.3,0.87 -0.16,0.04 -0.31,0.07 -0.47,0.11 -4.76,0.96 -9.62,-1.39 -11.83,-5.72 -2.08,-4.07 -1.36,-9.03 1.77,-12.34 0.07,0.04 0.13,0.09 0.22,0.11 0.07,0.02 0.16,0.04 0.22,0.04 0.11,0 0.22,-0.02 0.34,-0.09 0.18,-0.09 0.31,-0.25 0.36,-0.42 0.07,-0.18 0.04,-0.38 -0.04,-0.56 -0.09,-0.18 -0.25,-0.31 -0.42,-0.36 -0.18,-0.07 -0.38,-0.04 -0.56,0.04 -0.18,0.09 -0.31,0.25 -0.36,0.42 -0.07,0.18 -0.04,0.38 0.04,0.56 0.02,0.04 0.04,0.07 0.07,0.11 -3.2,3.4 -3.91,8.45 -1.81,12.61 1.9,3.76 5.77,6.03 9.86,6.03 0.72,0 1.45,-0.07 2.19,-0.22 0.16,-0.02 0.31,-0.07 0.47,-0.11 0.81,-0.2 1.59,-0.49 2.35,-0.87 0.16,-0.09 0.31,-0.18 0.47,-0.27 0.04,-0.02 0.07,-0.09 0.04,-0.13 -0.02,-0.04 -0.09,-0.07 -0.13,-0.04l0 -0.02z"/>
 </g>
</svg>
