<?xml version="1.0" encoding="UTF-8"?>
<!DOCTYPE svg PUBLIC "-//W3C//DTD SVG 1.1//EN" "http://www.w3.org/Graphics/SVG/1.1/DTD/svg11.dtd">
<!-- Creator: CorelDRAW -->
<svg xmlns="http://www.w3.org/2000/svg" xml:space="preserve" width="2.25318cm" height="2.24873cm" version="1.1" style="shape-rendering:geometricPrecision; text-rendering:geometricPrecision; image-rendering:optimizeQuality; fill-rule:evenodd; clip-rule:evenodd"
viewBox="0 0 22.74 22.69"
 xmlns:xlink="http://www.w3.org/1999/xlink"
 xmlns:xodm="http://www.corel.com/coreldraw/odm/2003">
 <defs>
  <style type="text/css">
   <![CDATA[
    .fil1 {fill:red}
    .fil0 {fill:red;fill-rule:nonzero}
   ]]>
  </style>
 </defs>
 <g id="Слой_x0020_1">
  <metadata id="CorelCorpID_0Corel-Layer"/>
  <path id="Vector" class="fil0" d="M11.62 10.55c-0.01,0 -0.04,-0.01 -0.04,-0.03l-1.08 -1.28 -0.05 0.05c-0.03,0.03 -0.06,0.01 -0.08,-0.01l-0.16 -0.19 -0.09 0.08 0.16 0.19c0.03,0.03 0.01,0.06 -0.01,0.08l-0.05 0.05 0.35 0.41c0.03,0.03 0.01,0.06 -0.01,0.08 -0.03,0.03 -0.06,0.01 -0.08,-0.01l-0.39 -0.46c-0.03,-0.03 -0.01,-0.06 0.01,-0.08l0.05 -0.05 -0.16 -0.19c-0.03,-0.03 -0.01,-0.06 0.01,-0.08l0.18 -0.14c0.01,-0.01 0.03,-0.01 0.04,-0.01 0.01,0 0.03,0.01 0.04,0.03l0.16 0.19 0.05 -0.05c0.03,-0.03 0.06,-0.01 0.08,0.01l1.12 1.33c0.03,0.03 0.01,0.06 -0.01,0.08 -0.01,0.01 -0.03,0.01 -0.04,0.01z"/>
  <path id="Vector_2" class="fil0" d="M11.26 10.86c-0.01,0 -0.04,-0.01 -0.04,-0.03l-0.13 -0.15c-0.03,-0.03 -0.01,-0.06 0.01,-0.08 0.03,-0.03 0.06,-0.01 0.08,0.01l0.13 0.15c0.03,0.03 0.01,0.06 -0.01,0.08 -0.01,0.01 -0.03,0.01 -0.04,0.01z"/>
  <path id="Vector_3" class="fil0" d="M9.96 9.09l0.04 0.05 0.2 -0.18 -0.04 -0.05 -0.2 0.18zm0.03 0.18c-0.01,0 -0.03,-0.01 -0.04,-0.03l-0.11 -0.13c-0.03,-0.03 -0.01,-0.06 0.01,-0.08l0.29 -0.24c0.01,-0.01 0.03,-0.01 0.04,-0.01 0.01,0 0.03,0.01 0.04,0.03l0.11 0.13c0.03,0.03 0.01,0.06 -0.01,0.08l-0.29 0.24c-0.01,0.01 -0.03,0.01 -0.04,0.01z"/>
  <path id="Vector_4" class="fil0" d="M11.31 10.88l0.08 0.09 0.38 -0.31 -0.08 -0.09 -0.38 0.31zm0.06 0.23c-0.01,0 -0.04,-0.01 -0.04,-0.03l-0.15 -0.18c-0.01,-0.01 -0.01,-0.03 -0.01,-0.04 0,-0.01 0.01,-0.03 0.03,-0.04l0.47 -0.39c0.01,-0.01 0.03,-0.01 0.04,-0.01 0.01,0 0.03,0.01 0.04,0.03l0.15 0.18c0.03,0.03 0.01,0.06 -0.01,0.08l-0.46 0.39c-0.01,0.01 -0.03,0.01 -0.04,0.01z"/>
  <path id="Vector_5" class="fil0" d="M11.93 11.16c-0.01,0 -0.04,-0.01 -0.04,-0.03l-0.18 -0.21c-0.03,-0.03 -0.01,-0.06 0.01,-0.08 0.03,-0.03 0.06,-0.01 0.08,0.01l0.14 0.18 0.05 -0.04 -0.14 -0.18c-0.03,-0.03 -0.01,-0.06 0.01,-0.08 0.03,-0.03 0.06,-0.01 0.08,0.01l0.18 0.21c0.03,0.03 0.01,0.06 -0.01,0.08l-0.13 0.11c-0.01,0.01 -0.03,0.01 -0.04,0.01l-0.01 -0.01z"/>
  <path id="Vector_6" class="fil0" d="M11.77 11.49c-0.01,0 -0.04,-0.01 -0.04,-0.03l-0.26 -0.33c-0.03,-0.03 -0.01,-0.06 0.01,-0.08 0.03,-0.03 0.06,-0.01 0.08,0.01l0.24 0.28 0.05 -0.04 -0.24 -0.28c-0.03,-0.03 -0.01,-0.06 0.01,-0.08 0.03,-0.03 0.06,-0.01 0.08,0.01l0.26 0.33c0.01,0.01 0.01,0.03 0.01,0.04 0,0.01 -0.01,0.03 -0.03,0.04l-0.13 0.11c-0.01,0.01 -0.03,0.01 -0.04,0.01l-0.01 -0.01z"/>
  <path id="Vector_7" class="fil0" d="M10.77 10.16c-0.13,0 -0.21,0.1 -0.21,0.21 0,0.13 0.1,0.21 0.21,0.21 0.13,0 0.21,-0.1 0.21,-0.21 0,-0.13 -0.1,-0.21 -0.21,-0.21zm0 0.54c-0.18,0 -0.33,-0.15 -0.33,-0.33 0,-0.18 0.15,-0.33 0.33,-0.33 0.18,0 0.33,0.15 0.33,0.33 0,0.18 -0.15,0.33 -0.33,0.33z"/>
  <path id="Vector_8" class="fil0" d="M10.77 10.31c-0.04,0 -0.06,0.03 -0.06,0.06 0,0.04 0.03,0.06 0.06,0.06 0.04,0 0.06,-0.03 0.06,-0.06 0,-0.04 -0.03,-0.06 -0.06,-0.06zm0 0.23c-0.1,0 -0.18,-0.08 -0.18,-0.18 0,-0.1 0.08,-0.18 0.18,-0.18 0.1,0 0.18,0.08 0.18,0.18 0,0.1 -0.08,0.18 -0.18,0.18z"/>
  <path id="Vector_9" class="fil0" d="M12.19 12.12l-2.19 0c-0.03,0 -0.05,-0.03 -0.05,-0.05l0 -0.33c0,-0.03 0.03,-0.05 0.05,-0.05l0.43 0c-0.14,-0.18 -0.21,-0.39 -0.21,-0.62 0,-0.24 0.09,-0.48 0.25,-0.65 0.03,-0.03 0.05,-0.03 0.08,0 0.03,0.03 0.03,0.05 0,0.08 -0.15,0.16 -0.23,0.36 -0.23,0.58 0,0.24 0.1,0.46 0.26,0.63 0.01,0.01 0.03,0.04 0.01,0.06 -0.01,0.03 -0.03,0.04 -0.05,0.04l-0.5 0 0 0.21 2.09 0 0 -0.21 -0.9 0c-0.39,0 -0.72,-0.33 -0.72,-0.73 0,-0.18 0.06,-0.34 0.18,-0.46 0.03,-0.03 0.05,-0.03 0.08,0 0.03,0.03 0.03,0.05 0,0.08 -0.1,0.11 -0.15,0.24 -0.15,0.39 0,0.33 0.28,0.62 0.62,0.62l0.96 0c0.03,0 0.05,0.03 0.05,0.05l0 0.33c0,0.03 -0.03,0.05 -0.05,0.05l0.01 0z"/>
  <path id="Vector_10" class="fil1" d="M9.78 17.96c0.01,0 0,0 0.01,0 0.34,0.36 0.83,0.59 1.37,0.59l4.79 0c1.27,0 2.3,-1.03 2.3,-2.3 0,-1.02 -0.65,-1.87 -1.57,-2.19 -0.13,-0.04 -0.06,-0.03 -0.21,-0.06 -0.16,-0.04 -0.34,-0.06 -0.52,-0.06 -0.01,0 -0.03,0 -0.05,0 -0.44,-0.75 -1.24,-1.22 -2.12,-1.22 -1.21,0 -2.22,0.87 -2.43,2.05 -1.13,-0.13 -2.1,0.77 -2.1,1.88 0,0.4 0.13,0.78 0.35,1.09l0.18 0.21zm5.49 -2.64c0.04,0.04 0.04,0.11 0,0.15l-1.62 1.62c-0.03,0.03 -0.05,0.04 -0.08,0.04 -0.03,0 -0.05,-0.01 -0.08,-0.04l-1.08 -1.08c-0.04,-0.04 -0.04,-0.11 0,-0.15 0.04,-0.04 0.11,-0.04 0.15,0l1.01 1 1.55 -1.54c0.04,-0.04 0.11,-0.04 0.15,0zm2.76 0.92c0,1.16 -0.94,2.09 -2.09,2.09l-4.79 0c-0.93,0 -1.67,-0.75 -1.67,-1.67 0,-0.93 0.75,-1.67 1.67,-1.67 0.09,0 0.19,0.01 0.28,0.03 0.03,0 0.06,0 0.09,-0.03 0.03,-0.01 0.04,-0.05 0.04,-0.08 0.14,-1.12 1.09,-1.96 2.22,-1.96 0.82,0 1.57,0.44 1.96,1.16 0.03,0.04 0.06,0.06 0.1,0.05 0.04,0 0.06,0 0.1,0 1.16,0 2.09,0.94 2.09,2.09zm-0.08 -11.69c0.08,-0.23 0.29,-0.38 0.52,-0.38 0.05,0 0.11,0.01 0.16,0.03 0.14,0.05 0.25,0.14 0.31,0.28 0.06,0.13 0.08,0.28 0.04,0.41 -0.05,0.14 -0.14,0.25 -0.28,0.31 -0.13,0.06 -0.28,0.08 -0.41,0.04 -0.29,-0.09 -0.44,-0.4 -0.35,-0.69l0.01 0zm0.52 0.93c0.11,0 0.24,-0.03 0.34,-0.09 0.18,-0.09 0.31,-0.25 0.38,-0.44 0.06,-0.19 0.05,-0.4 -0.05,-0.58 -0.09,-0.18 -0.25,-0.31 -0.44,-0.38 -0.25,-0.08 -0.5,-0.03 -0.69,0.11 -3.02,-2.78 -7.49,-3.39 -11.15,-1.53 -3.93,2 -6.07,6.42 -5.19,10.74 0.03,0.14 0.06,0.28 0.1,0.41 0.18,0.72 0.44,1.42 0.78,2.09 0.03,0.04 0.06,0.06 0.1,0.06 0.01,0 0.04,0 0.05,-0.01 0.05,-0.03 0.08,-0.09 0.05,-0.15 -0.33,-0.65 -0.59,-1.34 -0.77,-2.05 -0.04,-0.14 -0.06,-0.28 -0.09,-0.41 -0.85,-4.22 1.23,-8.54 5.08,-10.5 3.57,-1.82 7.94,-1.22 10.9,1.49 -0.05,0.06 -0.09,0.14 -0.11,0.23 -0.06,0.19 -0.05,0.4 0.05,0.58 0.09,0.18 0.25,0.31 0.44,0.38 0.08,0.03 0.16,0.04 0.24,0.04l-0.01 0.01zm-14.35 13.11c-0.29,-0.09 -0.44,-0.4 -0.35,-0.69 0.08,-0.23 0.29,-0.38 0.52,-0.38 0.05,0 0.11,0.01 0.16,0.03 0.29,0.09 0.44,0.4 0.35,0.69 -0.09,0.29 -0.4,0.44 -0.69,0.35l0.01 0zm16.88 -9.19c-0.03,-0.14 -0.06,-0.29 -0.09,-0.43 -0.18,-0.72 -0.44,-1.42 -0.78,-2.09 -0.03,-0.05 -0.09,-0.08 -0.15,-0.05 -0.05,0.03 -0.08,0.09 -0.05,0.15 0.33,0.65 0.59,1.33 0.77,2.03 0.04,0.14 0.06,0.28 0.09,0.41 0.85,4.22 -1.23,8.54 -5.08,10.5 -3.53,1.8 -7.85,1.23 -10.8,-1.41 0.05,-0.06 0.09,-0.14 0.11,-0.21 0.13,-0.4 -0.09,-0.83 -0.49,-0.97 -0.4,-0.13 -0.83,0.09 -0.97,0.49 -0.13,0.4 0.09,0.83 0.49,0.97 0.08,0.03 0.16,0.04 0.24,0.04 0.18,0 0.34,-0.06 0.47,-0.16 1.83,1.65 4.21,2.51 6.6,2.51 1.52,0 3.05,-0.35 4.45,-1.07 3.93,-2 6.07,-6.42 5.19,-10.73zm-1.39 10.27c-0.09,0.29 -0.4,0.44 -0.68,0.35 -0.29,-0.09 -0.44,-0.4 -0.35,-0.68 0.09,-0.29 0.4,-0.44 0.68,-0.35 0.29,0.09 0.44,0.4 0.35,0.68zm1.86 -13.46c-2.31,-4.53 -7.39,-6.98 -12.37,-5.98 -0.15,0.03 -0.3,0.06 -0.49,0.11 -0.83,0.21 -1.65,0.52 -2.4,0.9 -0.16,0.09 -0.34,0.18 -0.49,0.26 -0.05,0.03 -0.08,0.1 -0.04,0.15 0.03,0.05 0.1,0.08 0.15,0.04 0.15,-0.09 0.31,-0.18 0.48,-0.26 0.75,-0.38 1.55,-0.68 2.36,-0.88 0.18,-0.05 0.33,-0.08 0.48,-0.1 4.89,-0.99 9.87,1.42 12.14,5.87 2.1,4.13 1.41,9.18 -1.73,12.59 -0.06,-0.05 -0.14,-0.09 -0.21,-0.11 -0.4,-0.13 -0.83,0.09 -0.96,0.49 -0.13,0.4 0.09,0.83 0.49,0.95 0.08,0.03 0.15,0.04 0.24,0.04 0.33,0 0.62,-0.2 0.73,-0.53 0.08,-0.25 0.03,-0.5 -0.11,-0.69 3.2,-3.48 3.92,-8.62 1.77,-12.84l-0.04 -0.01zm-18.29 -3.27c0.09,-0.29 0.4,-0.44 0.68,-0.35 0.29,0.09 0.44,0.4 0.35,0.68 -0.09,0.29 -0.4,0.44 -0.68,0.35 -0.14,-0.05 -0.25,-0.14 -0.31,-0.26 -0.06,-0.13 -0.08,-0.28 -0.04,-0.41zm13.7 18.06c-0.16,0.09 -0.31,0.18 -0.49,0.26 -0.75,0.38 -1.55,0.68 -2.36,0.88 -0.16,0.04 -0.31,0.08 -0.48,0.11 -4.89,0.99 -9.88,-1.42 -12.14,-5.87 -2.12,-4.18 -1.4,-9.27 1.81,-12.67 0.06,0.05 0.14,0.09 0.23,0.11 0.08,0.03 0.16,0.04 0.24,0.04 0.33,0 0.62,-0.2 0.73,-0.53 0.13,-0.4 -0.09,-0.83 -0.49,-0.95 -0.4,-0.13 -0.83,0.09 -0.96,0.49 -0.06,0.19 -0.05,0.4 0.05,0.58 0.03,0.04 0.04,0.08 0.06,0.1 -3.28,3.48 -4.02,8.67 -1.86,12.94 1.96,3.86 5.93,6.2 10.13,6.2 0.74,0 1.5,-0.08 2.24,-0.23 0.16,-0.04 0.33,-0.08 0.48,-0.11 0.83,-0.21 1.63,-0.52 2.4,-0.9 0.16,-0.09 0.33,-0.18 0.49,-0.26 0.05,-0.03 0.08,-0.1 0.04,-0.15 -0.03,-0.05 -0.1,-0.08 -0.15,-0.04l0.04 0z"/>
  <path id="Vector_11" class="fil1" d="M15.75 13.25l0.29 0 0 -5.95 0.48 0c0.08,0 0.15,-0.06 0.15,-0.15l0 -1.28c0,-0.08 -0.06,-0.15 -0.15,-0.15l-1.22 0 0 -0.84c0,-0.08 -0.06,-0.15 -0.15,-0.15l-1.43 0c-0.08,0 -0.15,0.06 -0.15,0.15l0 0.84 -5.05 0 0 -0.84c0,-0.08 -0.06,-0.15 -0.15,-0.15l-1.43 0c-0.08,0 -0.15,0.06 -0.15,0.15l0 0.84 -1.22 0c-0.08,0 -0.15,0.06 -0.15,0.15l0 1.28c0,0.08 0.06,0.15 0.15,0.15l0.48 0 0 6.71c0,0.08 0.06,0.15 0.15,0.15l4.51 0 0 -0.29 -4.37 0 0 -6.56 9.4 0 0 5.95 0.03 -0.01zm-4.7 -5.1c1.34,0 2.43,1.09 2.43,2.42 0,1.34 -1.09,2.42 -2.43,2.42 -1.34,0 -2.44,-1.09 -2.44,-2.42 0,-1.34 1.09,-2.42 2.44,-2.42zm0 5.15c1.5,0 2.73,-1.22 2.73,-2.73 0,-1.49 -1.22,-2.73 -2.73,-2.73 -1.5,0 -2.73,1.22 -2.73,2.73 0,1.49 1.22,2.73 2.73,2.73zm5.32 -6.29l-10.64 0 0 -0.99 10.64 0 0 0.99zm-9.27 -1.98l1.13 0 0 0.7 -1.13 0 0 -0.7zm6.77 0l1.13 0 0 0.7 -1.13 0 0 -0.7z"/>
 </g>
</svg>
