<?xml version="1.0" encoding="UTF-8"?>
<!DOCTYPE svg PUBLIC "-//W3C//DTD SVG 1.1//EN" "http://www.w3.org/Graphics/SVG/1.1/DTD/svg11.dtd">
<!-- Creator: CorelDRAW -->
<svg xmlns="http://www.w3.org/2000/svg" xml:space="preserve" width="2.24737cm" height="2.24814cm" version="1.1" style="shape-rendering:geometricPrecision; text-rendering:geometricPrecision; image-rendering:optimizeQuality; fill-rule:evenodd; clip-rule:evenodd"
viewBox="0 0 23.76 23.77"
 xmlns:xlink="http://www.w3.org/1999/xlink"
 xmlns:xodm="http://www.corel.com/coreldraw/odm/2003">
 <defs>
  <style type="text/css">
   <![CDATA[
    .fil0 {fill:red}
   ]]>
  </style>
 </defs>
 <g id="Слой_x0020_1">
  <metadata id="CorelCorpID_0Corel-Layer"/>
  <path id="Vector" class="fil0" d="M15.23 5.58c0.29,0 0.53,0.24 0.53,0.53 0,0.29 -0.24,0.53 -0.53,0.53 -0.29,0 -0.53,-0.24 -0.53,-0.53 0,-0.29 0.24,-0.53 0.53,-0.53zm0 1.3c0.41,0 0.77,-0.34 0.77,-0.77 0,-0.41 -0.34,-0.77 -0.77,-0.77 -0.41,0 -0.77,0.34 -0.77,0.77 0,0.41 0.34,0.77 0.77,0.77zm-7.6 -0.53c0.34,0 0.62,0.29 0.62,0.62 0,0.34 -0.29,0.62 -0.62,0.62 -0.34,0 -0.63,-0.29 -0.63,-0.62 0,-0.34 0.29,-0.62 0.63,-0.62zm0 1.47c0.46,0 0.84,-0.38 0.84,-0.84 0,-0.46 -0.38,-0.84 -0.84,-0.84 -0.46,0 -0.84,0.38 -0.84,0.84 0,0.46 0.38,0.84 0.84,0.84zm10.41 10.36c0,0.29 -0.24,0.53 -0.53,0.53 -0.29,0 -0.53,-0.24 -0.53,-0.53 0,-0.29 0.24,-0.53 0.53,-0.53 0.29,0 0.53,0.24 0.53,0.53zm-1.3 -0.12l-3.03 0c-0.07,0 -0.12,0.05 -0.12,0.12 0,0.07 0.05,0.12 0.12,0.12l3.03 0c0.05,0.36 0.36,0.65 0.75,0.65 0.41,0 0.77,-0.34 0.77,-0.77 0,-0.41 -0.34,-0.77 -0.77,-0.77 -0.38,0 -0.7,0.29 -0.75,0.65zm-3.85 0.12c0,0.26 -0.22,0.5 -0.5,0.5 -0.26,0 -0.5,-0.22 -0.5,-0.5 0,-0.26 0.22,-0.5 0.5,-0.5 0.26,0 0.5,0.22 0.5,0.5zm-1.23 -0.12l-3.03 0c-0.07,0 -0.12,0.05 -0.12,0.12 0,0.07 0.05,0.12 0.12,0.12l3.03 0c0.05,0.34 0.36,0.62 0.72,0.62 0.41,0 0.72,-0.34 0.72,-0.72 0,-0.41 -0.34,-0.72 -0.72,-0.72 -0.36,0 -0.67,0.26 -0.72,0.62l0 -0.05zm-3.87 0.12c0,0.29 -0.24,0.53 -0.53,0.53 -0.29,0 -0.53,-0.24 -0.53,-0.53 0,-0.29 0.24,-0.53 0.53,-0.53 0.29,0 0.53,0.24 0.53,0.53zm-1.3 0c0,0.41 0.34,0.77 0.77,0.77 0.41,0 0.77,-0.34 0.77,-0.77 0,-0.41 -0.34,-0.77 -0.77,-0.77 -0.41,0 -0.77,0.34 -0.77,0.77zm1.63 -2.52l-2.02 0c-0.05,0 -0.1,0.02 -0.12,0.07l-0.26 0.84 -1.01 0 0 -1.8 4.78 0 0 1.8 -1.01 0 -0.26 -0.84c-0.02,-0.05 -0.05,-0.07 -0.12,-0.07l0.02 0zm-2.88 -1.73l3.73 0 0 0.6 -3.73 0 0 -0.6zm1.13 -5.93c0.29,0.36 0.75,0.58 1.25,0.58 0.29,0 0.58,-0.07 0.82,-0.22l0.17 5.33 -2.98 0 0.75 -5.69zm1.25 -2.4c0.77,0 1.37,0.62 1.37,1.37 0,0.77 -0.62,1.37 -1.37,1.37 -0.77,0 -1.37,-0.62 -1.37,-1.37 0,-0.77 0.62,-1.37 1.37,-1.37zm6.39 -0.24c-0.14,0.22 -0.22,0.48 -0.22,0.77 0,0.31 0.1,0.6 0.26,0.82l-4.95 0.7c0.1,-0.19 0.14,-0.43 0.14,-0.67 0,-0.55 -0.26,-1.01 -0.67,-1.32l5.46 -0.31 -0.02 0.02zm1.2 -0.43c0.67,0 1.2,0.53 1.2,1.2 0,0.67 -0.53,1.2 -1.2,1.2 -0.67,0 -1.2,-0.53 -1.2,-1.2 0,-0.67 0.53,-1.2 1.2,-1.2zm0.46 4.64l-0.82 0 -0.14 -2.09c0.14,0.05 0.31,0.1 0.5,0.1 0.22,0 0.41,-0.05 0.6,-0.12l-0.14 2.11zm0.12 2.16l-0.99 0 -0.43 -1.92 1.87 0 -0.43 1.92 -0.02 0zm2.14 -0.24l-0.75 1.83 -0.53 0 0.29 -1.27c0,-0.05 -0.02,-0.1 -0.05,-0.12l-0.79 -0.43 0.26 -1.13 1.59 1.15 -0.02 -0.02zm-4.28 0.55l0.55 2.55 -0.29 0 -1.25 -3.1 1.59 -1.15 0.26 1.13 -0.79 0.43c-0.05,0.02 -0.07,0.07 -0.05,0.12l-0.02 0.02zm-4.04 2.52l-0.41 0 0 -0.72c0,-0.07 -0.05,-0.12 -0.12,-0.12l-0.26 0 -0.19 -5.5c0.12,-0.1 0.22,-0.19 0.29,-0.31l5.29 -0.74c0.07,0.07 0.17,0.14 0.26,0.19l0.14 2.19 -0.43 0c-0.02,0 -0.07,0.02 -0.1,0.05 -0.02,0.02 -0.02,0.07 -0.02,0.1l0.1 0.38 -1.73 1.25c-0.05,0.02 -0.05,0.1 -0.05,0.14l0.75 1.83 -0.43 0c-0.07,0 -0.12,0.05 -0.12,0.12l0 3.17 -2.86 0 0 -1.92c0,-0.07 -0.05,-0.12 -0.12,-0.12l0.02 0.02zm8.13 0.79l-2.4 0c-0.07,0 -0.12,0.05 -0.12,0.12 0,0.07 0.05,0.12 0.12,0.12l2.4 0 0 0.36 -1.78 0c-0.07,0 -0.12,0.05 -0.12,0.12 0,0.07 0.05,0.12 0.12,0.12l1.78 0 0 0.41 -4.93 0 0 -3.05 0.41 0 0.48 1.2c0.02,0.05 0.05,0.07 0.1,0.07l0.53 0c0.02,0 0.07,-0.02 0.1,-0.05 0.02,-0.02 0.02,-0.07 0.02,-0.1l-0.58 -2.59 0.67 -0.36 0.02 0.14c0,0.05 0.05,0.1 0.12,0.1l1.15 0c0.05,0 0.1,-0.05 0.12,-0.1l0.02 -0.14 0.67 0.36 -0.26 1.25 -1.75 0c-0.07,0 -0.12,0.05 -0.12,0.12 0,0.07 0.05,0.12 0.12,0.12l3.08 0 0 1.83 0.02 -0.05zm2.04 1.35c0,-0.07 -0.05,-0.12 -0.12,-0.12l-1.71 0 0 -3.17c0,-0.07 -0.05,-0.12 -0.12,-0.12l-0.43 0 0.75 -1.83c0.02,-0.05 0,-0.1 -0.05,-0.14l-1.73 -1.25 0.1 -0.38c0,-0.02 0,-0.07 -0.02,-0.1 -0.02,-0.02 -0.05,-0.05 -0.1,-0.05l-0.46 0 0.14 -2.26c0.36,-0.26 0.6,-0.7 0.6,-1.18 0,-0.79 -0.65,-1.44 -1.44,-1.44 -0.41,0 -0.77,0.17 -1.01,0.43l-6.06 0.34c-0.17,-0.05 -0.34,-0.1 -0.53,-0.1 -0.89,0 -1.61,0.72 -1.61,1.61 0,0.26 0.07,0.5 0.17,0.72l-0.79 6.01 -0.26 0c-0.07,0 -0.12,0.05 -0.12,0.12l0 0.72 -0.41 0c-0.07,0 -0.12,0.05 -0.12,0.12l0 1.92 -0.43 0c-0.07,0 -0.12,0.05 -0.12,0.12 0,0.07 0.05,0.12 0.12,0.12l1.75 0c0,0 0,0 0.02,0l0 -0.02 0.26 -0.84 1.85 0 0.26 0.84 0 0.02c0,0 0,0 0,0.02 0,0 0,0 0.02,0 0,0 0,0 0.02,0 0,0 0,0 0.02,0 0,0 0,0 0.02,0l11.25 0c0.07,0 0.12,-0.05 0.12,-0.12l0.14 0zm-0.19 -11.24c-0.14,0.07 -0.29,0.07 -0.43,0.02 -0.14,-0.05 -0.26,-0.14 -0.34,-0.29 -0.07,-0.14 -0.07,-0.29 -0.02,-0.43 0.05,-0.14 0.14,-0.26 0.29,-0.34 0.07,-0.05 0.17,-0.07 0.26,-0.07 0.05,0 0.12,0 0.17,0.02 0.14,0.05 0.26,0.14 0.34,0.29 0.07,0.14 0.07,0.29 0.02,0.43 -0.05,0.14 -0.14,0.26 -0.29,0.34l0 0.02zm0.5 -0.26c0.07,-0.19 0.05,-0.41 -0.05,-0.6 -0.1,-0.19 -0.26,-0.34 -0.46,-0.41 -0.19,-0.07 -0.41,-0.05 -0.6,0.05 -0.05,0.02 -0.07,0.05 -0.12,0.07 -3.15,-2.91 -7.84,-3.56 -11.66,-1.61 -4.11,2.09 -6.35,6.7 -5.43,11.24 0.02,0.14 0.07,0.29 0.1,0.43 0.19,0.74 0.46,1.49 0.82,2.19 0.02,0.05 0.07,0.07 0.1,0.07 0.02,0 0.02,0 0.05,-0.02 0.05,-0.02 0.07,-0.1 0.05,-0.14 -0.34,-0.67 -0.62,-1.39 -0.79,-2.14 -0.02,-0.14 -0.07,-0.29 -0.1,-0.43 -0.89,-4.42 1.3,-8.94 5.31,-10.98 3.75,-1.9 8.32,-1.27 11.39,1.56 -0.05,0.07 -0.1,0.14 -0.12,0.24 -0.07,0.19 -0.05,0.41 0.05,0.6 0.1,0.19 0.26,0.34 0.46,0.41 0.07,0.02 0.17,0.05 0.24,0.05 0.12,0 0.24,-0.02 0.36,-0.1 0.19,-0.1 0.34,-0.26 0.41,-0.46l0 -0.02zm-15.79 14.27c-0.29,-0.1 -0.46,-0.43 -0.36,-0.72 0.05,-0.14 0.14,-0.26 0.29,-0.34 0.07,-0.05 0.17,-0.07 0.26,-0.07 0.05,0 0.12,0 0.17,0.02 0.14,0.05 0.26,0.14 0.34,0.29 0.07,0.14 0.07,0.29 0.02,0.43 -0.1,0.29 -0.41,0.46 -0.72,0.36l0 0.02zm17.67 -9.63c-0.02,-0.14 -0.07,-0.29 -0.1,-0.43 -0.19,-0.74 -0.46,-1.49 -0.82,-2.19 -0.02,-0.05 -0.1,-0.07 -0.14,-0.05 -0.05,0.02 -0.07,0.1 -0.05,0.14 0.34,0.67 0.63,1.39 0.79,2.14 0.05,0.14 0.07,0.29 0.1,0.43 0.89,4.42 -1.27,8.94 -5.31,10.98 -3.7,1.87 -8.22,1.27 -11.3,-1.47 0.05,-0.07 0.1,-0.14 0.12,-0.22 0.07,-0.19 0.05,-0.41 -0.05,-0.6 -0.1,-0.19 -0.26,-0.34 -0.46,-0.41 -0.41,-0.14 -0.87,0.1 -1.01,0.5 -0.14,0.41 0.1,0.86 0.5,1.01 0.07,0.02 0.17,0.05 0.24,0.05 0.17,0 0.36,-0.07 0.48,-0.17 1.92,1.73 4.4,2.62 6.9,2.62 1.59,0 3.2,-0.36 4.66,-1.11 4.11,-2.09 6.35,-6.73 5.43,-11.24zm-1.47 10.76c-0.05,0.14 -0.14,0.26 -0.29,0.34 -0.14,0.07 -0.29,0.07 -0.43,0.02 -0.14,-0.05 -0.26,-0.14 -0.34,-0.29 -0.07,-0.14 -0.07,-0.29 -0.02,-0.43 0.07,-0.24 0.31,-0.38 0.53,-0.38 0.05,0 0.12,0 0.17,0.02 0.14,0.05 0.26,0.14 0.34,0.29 0.07,0.14 0.07,0.29 0.02,0.43l0.02 0zm0.1 -0.65c3.37,-3.63 4.11,-9.03 1.85,-13.43 -2.43,-4.73 -7.74,-7.33 -12.96,-6.25 -0.14,0.02 -0.31,0.07 -0.5,0.12 -0.87,0.22 -1.71,0.53 -2.52,0.94 -0.17,0.1 -0.36,0.19 -0.5,0.29 -0.05,0.02 -0.07,0.1 -0.05,0.14 0.02,0.05 0.1,0.07 0.14,0.05 0.17,-0.1 0.34,-0.19 0.5,-0.26 0.79,-0.41 1.61,-0.72 2.48,-0.91 0.19,-0.05 0.36,-0.07 0.5,-0.12 5.12,-1.03 10.34,1.49 12.72,6.13 2.21,4.32 1.47,9.61 -1.8,13.17 -0.07,-0.05 -0.14,-0.1 -0.22,-0.12 -0.41,-0.14 -0.87,0.1 -1.01,0.5 -0.07,0.19 -0.05,0.41 0.05,0.6 0.1,0.19 0.26,0.34 0.46,0.38 0.07,0.02 0.17,0.05 0.24,0.05 0.12,0 0.24,-0.02 0.36,-0.1 0.19,-0.1 0.34,-0.26 0.38,-0.46 0.07,-0.19 0.05,-0.41 -0.05,-0.6 -0.02,-0.05 -0.05,-0.07 -0.07,-0.12zm-17.28 -16.87c0.05,-0.14 0.14,-0.26 0.29,-0.34 0.07,-0.05 0.17,-0.07 0.26,-0.07 0.05,0 0.12,0 0.17,0.02 0.14,0.05 0.26,0.14 0.34,0.29 0.07,0.14 0.07,0.29 0.02,0.43 -0.05,0.14 -0.14,0.26 -0.29,0.34 -0.14,0.07 -0.29,0.07 -0.43,0.02 -0.14,-0.05 -0.26,-0.14 -0.34,-0.29 -0.07,-0.14 -0.07,-0.29 -0.02,-0.43l0 0.02zm14.35 18.91c-0.17,0.1 -0.34,0.19 -0.5,0.26 -0.79,0.41 -1.61,0.72 -2.48,0.94 -0.17,0.05 -0.34,0.07 -0.5,0.12 -5.12,1.03 -10.34,-1.49 -12.72,-6.15 -2.24,-4.37 -1.47,-9.71 1.9,-13.26 0.07,0.05 0.14,0.1 0.24,0.12 0.07,0.02 0.17,0.05 0.24,0.05 0.12,0 0.24,-0.02 0.36,-0.1 0.19,-0.1 0.34,-0.26 0.38,-0.46 0.07,-0.19 0.05,-0.41 -0.05,-0.6 -0.1,-0.19 -0.26,-0.34 -0.46,-0.38 -0.19,-0.07 -0.41,-0.05 -0.6,0.05 -0.19,0.1 -0.34,0.26 -0.38,0.46 -0.07,0.19 -0.05,0.41 0.05,0.6 0.02,0.05 0.05,0.07 0.07,0.12 -3.44,3.65 -4.21,9.08 -1.95,13.55 2.04,4.04 6.2,6.49 10.6,6.49 0.77,0 1.56,-0.07 2.36,-0.24 0.17,-0.02 0.34,-0.07 0.5,-0.12 0.87,-0.22 1.71,-0.53 2.52,-0.94 0.17,-0.1 0.34,-0.19 0.5,-0.29 0.05,-0.02 0.07,-0.1 0.05,-0.14 -0.02,-0.05 -0.1,-0.07 -0.14,-0.05l0 -0.02z"/>
 </g>
</svg>
