<svg width="26.000000" height="26.000000" viewBox="0 0 26 26" fill="none" xmlns="http://www.w3.org/2000/svg" xmlns:xlink="http://www.w3.org/1999/xlink">
	<desc>
			Created with Pixso.
	</desc>
	<defs>
		<clipPath id="clip4_8555">
			<rect id="telegram 1" rx="-0.500000" width="25.000000" height="25.000000" transform="translate(0.500000 0.500000)" fill="white" fill-opacity="0"/>
		</clipPath>
	</defs>
	<g clip-path="url(#clip4_8555)">
		<path id="Vector" d="M24 13C24 19.07 19.07 24 13 24C6.92 24 2 19.07 2 13C2 6.92 6.92 2 13 2C19.07 2 24 6.92 24 13Z" fill="#039BE5" fill-opacity="1.000000" fill-rule="evenodd"/>
		<path id="Vector" d="M7.03 12.76L17.64 8.67C18.13 8.49 18.56 8.79 18.4 9.53L18.4 9.53L16.59 18.04C16.46 18.64 16.1 18.79 15.6 18.5L12.85 16.48L11.52 17.76C11.38 17.9 11.25 18.03 10.97 18.03L11.16 15.23L16.26 10.62C16.48 10.43 16.21 10.32 15.92 10.51L9.62 14.48L6.91 13.63C6.32 13.44 6.3 13.04 7.03 12.76Z" fill="#FFFFFF" fill-opacity="1.000000" fill-rule="nonzero"/>
	</g>
</svg>
