<svg width="26.000000" height="26.000000" viewBox="0 0 26 26" fill="none" xmlns="http://www.w3.org/2000/svg" xmlns:xlink="http://www.w3.org/1999/xlink">
	<desc>
			Created with Pixso.
	</desc>
	<defs>
		<clipPath id="clip4_8552">
			<rect id="whatsapp 2" rx="-0.500000" width="25.000000" height="25.000000" transform="translate(0.500000 0.500000)" fill="white" fill-opacity="0"/>
		</clipPath>
	</defs>
	<g clip-path="url(#clip4_8552)">
		<path id="Vector" d="M22.23 3.73C19.75 1.34 16.5 0 13.04 0C3.11 0 -3.13 10.76 1.83 19.32L0 26L6.86 24.21C9.85 25.82 12.3 25.68 13.05 25.77C24.57 25.77 30.3 11.84 22.21 3.77L22.23 3.73Z" fill="#FFFFFF" fill-opacity="1.000000" fill-rule="nonzero"/>
		<path id="Vector" d="M13.07 23.56L13.06 23.56L13.05 23.56C9.6 23.56 7.4 21.92 7.18 21.83L3.12 22.89L4.2 18.94L3.95 18.53C2.87 16.82 2.3 14.86 2.3 12.83C2.3 3.31 13.94 -1.46 20.68 5.28C27.4 11.94 22.68 23.56 13.07 23.56Z" fill="#4CAF50" fill-opacity="1.000000" fill-rule="nonzero"/>
		<path id="Vector" d="M18.96 15.49L18.95 15.58C18.63 15.41 17.04 14.64 16.74 14.53C16.08 14.28 16.27 14.49 14.99 15.95C14.8 16.16 14.61 16.18 14.29 16.03C13.97 15.87 12.92 15.53 11.69 14.42C10.73 13.56 10.08 12.51 9.89 12.18C9.57 11.63 10.24 11.55 10.84 10.41C10.95 10.18 10.89 10 10.81 9.84C10.73 9.68 10.09 8.09 9.82 7.45C9.56 6.82 9.29 6.9 9.09 6.9C8.46 6.85 8.01 6.85 7.61 7.27C5.86 9.19 6.3 11.18 7.79 13.29C10.73 17.13 12.3 17.84 15.16 18.83C15.94 19.07 16.64 19.04 17.2 18.96C17.82 18.86 19.12 18.18 19.39 17.41C19.66 16.65 19.66 16.01 19.58 15.87C19.5 15.72 19.29 15.64 18.96 15.49Z" fill="#FAFAFA" fill-opacity="1.000000" fill-rule="nonzero"/>
	</g>
</svg>
