<?xml version="1.0" encoding="UTF-8"?>
<!DOCTYPE svg PUBLIC "-//W3C//DTD SVG 1.1//EN" "http://www.w3.org/Graphics/SVG/1.1/DTD/svg11.dtd">
<!-- Creator: CorelDRAW -->
<svg xmlns="http://www.w3.org/2000/svg" xml:space="preserve" width="65.1345cm" height="10.4562cm" version="1.1" style="shape-rendering:geometricPrecision; text-rendering:geometricPrecision; image-rendering:optimizeQuality; fill-rule:evenodd; clip-rule:evenodd"
viewBox="0 0 119720.14 19218.97"
 xmlns:xlink="http://www.w3.org/1999/xlink"
 xmlns:xodm="http://www.corel.com/coreldraw/odm/2003">
 <defs>
  <style type="text/css">
   <![CDATA[
    .fil3 {fill:black}
    .fil1 {fill:#CB930D}
    .fil2 {fill:red}
    .fil0 {fill:black;fill-rule:nonzero}
   ]]>
  </style>
 </defs>
 <g id="Слой_x0020_1">
  <metadata id="CorelCorpID_0Corel-Layer"/>
  <path class="fil0" d="M55939.27 254.09l8786.55 0 -10751.16 9052.42c938.1,743.4 1924.8,1530.69 2960.1,2362.49 1035.3,831.83 2074.99,1668.02 3119.05,2508.62 1044.08,840.59 2079.38,1672.4 3105.91,2495.44 1026.51,823.02 2008.5,1605.94 2946.6,2349.33l-9529.94 0 -9583.25 -8680.58 0 8680.58 -6477.34 0 0 -18768.3 6477.34 0 0 8070.12 8946.15 -8070.12z"/>
  <polygon class="fil0" points="21948.45,15845.32 30038.01,15845.32 31726.4,18920.49 39185.44,18920.49 28817.72,37.11 28446.5,37.11 21358.69,37.11 21040.12,37.11 10705.34,18920.49 18002.9,18920.49 24889.74,6468.37 27426.87,11089.29 24500,11089.29 21948.45,15751.26 "/>
  <polygon class="fil0" points="104808.97,18554.28 97855.67,7474.83 97855.67,19022.39 91723.52,19022.39 91723.52,254.09 101200.47,254.09 104808.97,7921.93 "/>
  <polygon class="fil1" points="15759.57,37.22 18087.03,37.22 7752.78,18919.04 5425.3,18919.04 "/>
  <polygon class="fil2" points="-0,37.11 12951.26,37.11 2617.1,18919.22 -0,18919.22 "/>
  <path class="fil0" d="M113641.29 18799.66l0 -11706.83 -6977.12 11460.39 0 -10823.28 1322.8 -2774.18c796.39,-1672.4 1566.12,-3313.75 2309.52,-4924.4l9423.65 -31.36 0 18767.68 -6078.85 31.98z"/>
  <path class="fil3" d="M86281.49 254.26l941.46 0c207.48,0 376.98,169.5 376.98,376.98l0 1107.51 1165.85 0c207.83,0 377.35,169.5 377.35,377l0 941.45c0,207.5 -169.52,377 -377.35,377l-1165.85 0 0 1224.89c0,207.48 -169.5,376.98 -376.98,376.98l-941.46 0c-207.48,0 -376.98,-169.5 -376.98,-376.98l0 -1224.89 -1166.2 0c-207.5,0 -377,-169.5 -377,-377l0 -941.45c0,-207.5 169.5,-377 377,-377l1166.2 0 0 -1107.51c0,-207.48 169.5,-376.98 376.98,-376.98z"/>
  <rect class="fil3" transform="matrix(3.41434E-13 -12.8918 11.7357 3.10815E-13 67183.2 1949.8)" width="131.51" height="407.46" rx="29.26" ry="29.26"/>
  <path class="fil0" d="M72772.95 4615.53l0 8046.4c0,211.82 111.37,385.47 331.79,517.8 221.01,132.3 562,198.89 1022.1,198.89l7937.34 0c513.2,0 880.59,-66.59 1101.59,-198.89 220.42,-132.32 331.79,-305.12 331.79,-517.8l0 -7063.92 6371.06 0 0 7834c0,653.83 -80.08,1287.59 -238.82,1897.8 -159.01,610.21 -415.89,1163.87 -769.79,1659.28 -353.9,495.39 -805.1,916.17 -1353.88,1261.17 -960.67,604.18 -2475.57,881.45 -3610.47,928.8 -636.9,26.41 -1459.79,39.9 -2468.68,39.9 -1734.19,0 -3198.58,0 -4393.18,0 -1194.58,0 -2204.04,-4.3 -3026.36,-13.2 -822.89,-8.62 -1491.37,-31.01 -2004.57,-66.32 -825.76,-57.11 -2117.37,-283.85 -2840.09,-677.08 -407,-221.01 -867.39,-579.79 -1380.59,-1075.18 -566.28,-548.51 -942.29,-1128.28 -1127.99,-1738.79 -185.72,-610.51 -279,-1349.58 -279,-2216.39l0 -8816.49 6397.75 0z"/>
 </g>
</svg>
