<svg width="90" height="99" viewBox="0 0 90 99" fill="none" xmlns="http://www.w3.org/2000/svg">
<path d="M19.4033 12.5744C19.4033 11.876 20.0096 11.265 20.7026 11.265H51.0202C51.7132 11.265 52.3195 11.876 52.3195 12.5744V30.2079C52.3195 30.9063 51.7132 31.5174 51.0202 31.5174H20.7026C20.0096 31.5174 19.4033 30.9063 19.4033 30.2079V12.5744ZM20.7026 34.1362H51.0202C53.1858 34.1362 54.9182 32.3903 54.9182 30.2079V12.5744C54.9182 10.392 53.1858 8.64612 51.0202 8.64612H20.7026C18.5371 8.64612 16.8046 10.392 16.8046 12.5744V30.2079C16.8046 32.3903 18.5371 34.1362 20.7026 34.1362Z" fill="#DB0011"/>
<path d="M87.488 26.4542L81.7709 20.6928V12.0506L87.488 17.812V26.4542ZM66.2657 87.6479C67.9115 87.6479 69.2108 88.9573 69.2108 90.6159V96.3773H2.59866V90.6159C2.59866 88.9573 3.89798 87.6479 5.5438 87.6479H66.179H66.2657ZM11.0876 8.73339C11.0876 5.32889 13.8595 2.53545 17.2377 2.53545H54.6583C58.0366 2.53545 60.8085 5.32889 60.8085 8.73339V85.029H39.0664C36.4678 85.029 38.8932 85.029 36.4678 85.029H11.1742V8.73339H11.0876ZM89.7401 16.2407L74.668 1.05144C74.1482 0.527675 73.3686 0.527675 72.8489 1.05144C72.3292 1.57521 72.3292 2.36087 72.8489 2.88463L79.3455 9.43174V21.2165C79.3455 21.5657 79.5188 21.9149 79.692 22.0895L87.5746 30.0333V71.4983C87.5746 75.5139 84.283 78.8311 80.2984 78.8311C76.3138 78.8311 73.0221 75.5139 73.0221 71.4983V28.2874C73.0221 24.7083 70.1636 21.8276 66.6121 21.8276H63.4071V8.73339C63.4071 3.93217 59.5092 0.00390625 54.745 0.00390625H17.3244C12.5602 0.00390625 8.66218 3.93217 8.66218 8.73339V85.029H5.71704C2.68528 85.029 0.173248 87.5606 0.173248 90.6159V97.6868C0.173248 98.3851 0.779601 98.9962 1.47257 98.9962H70.6834C71.3763 98.9962 71.9827 98.3851 71.9827 97.6868V90.6159C71.9827 87.5606 69.4707 85.029 66.4389 85.029H63.4938V24.3592H66.6988C68.7777 24.3592 70.5101 26.105 70.5101 28.2001V71.411C70.5101 76.9106 74.9278 81.3626 80.385 81.3626C85.8422 81.3626 90.2599 76.9106 90.2599 71.411V17.1137C90.2599 16.7645 90.0866 16.4153 89.9134 16.2407H89.7401Z" fill="#DB0011"/>
<path d="M32.9163 72.1967L35.0818 62.0705C35.1684 61.7213 35.0818 61.2848 34.8219 61.0229C34.5621 60.7611 34.2156 60.5865 33.8691 60.5865H28.2387L38.8932 46.7939L36.8142 56.9201C36.7276 57.2693 36.8142 57.7057 37.0741 57.9676C37.334 58.2295 37.6805 58.4041 38.0269 58.4041H43.6574L33.0029 72.1967H32.9163ZM46.1694 55.8726H39.4995L42.4447 41.9054C42.5313 41.2943 42.2714 40.6833 41.7517 40.5087C41.232 40.2468 40.539 40.4214 40.1925 40.8578L24.514 61.1102C24.2541 61.4594 24.1675 61.9832 24.3407 62.507C24.514 62.9434 25.0337 63.2053 25.4668 63.2053H32.1367L29.1915 77.1725C29.1049 77.7836 29.3648 78.3946 29.8845 78.5692C30.0577 78.6565 30.231 78.6565 30.4042 78.6565C30.7507 78.6565 31.1838 78.4819 31.4437 78.1327L47.1222 57.8803C47.3821 57.5312 47.4687 57.0074 47.2955 56.4836C47.1222 56.0471 46.6025 55.7853 46.1694 55.7853V55.8726Z" fill="#DB0011"/>
</svg>
