<svg width="116" height="69" viewBox="0 0 116 69" fill="none" xmlns="http://www.w3.org/2000/svg">
<path d="M8.5 23.1C9.2 23.1 10 22.5 10 21.8V19.3C10 18.6 9.2 18 8.5 18C7.8 18 7 18.7 7 19.4V21.9C7 22.6 7.8 23.1 8.5 23.1Z" fill="#DB0011"/>
<path d="M12.5 23.1C13.2 23.1 14 22.5 14 21.8V19.3C14 18.6 13.2 18 12.5 18C11.8 18 11 18.7 11 19.4V21.9C11 22.6 11.8 23.1 12.5 23.1Z" fill="#DB0011"/>
<path d="M16.5 23.1C17.2 23.1 18 22.5 18 21.8V19.3C18 18.6 17.2 18 16.5 18C15.8 18 15 18.7 15 19.4V21.9C15 22.6 15.8 23.1 16.5 23.1Z" fill="#DB0011"/>
<path d="M20.5 23.1C21.2 23.1 22 22.5 22 21.8V19.3C22 18.6 21.2 18 20.5 18C19.8 18 19 18.7 19 19.4V21.9C19 22.6 19.8 23.1 20.5 23.1Z" fill="#DB0011"/>
<path d="M103.5 23.1C104.2 23.1 105 22.5 105 21.8V19.3C105 18.6 104.2 18 103.5 18C102.8 18 102 18.6 102 19.3V21.8C102 22.6 102.8 23.1 103.5 23.1Z" fill="#DB0011"/>
<path d="M107.5 23.1C108.2 23.1 109 22.5 109 21.8V19.3C109 18.6 108.2 18 107.5 18C106.8 18 106 18.6 106 19.3V21.8C106 22.6 106.8 23.1 107.5 23.1Z" fill="#DB0011"/>
<path d="M95.5 23.1C96.2 23.1 97 22.5 97 21.8V19.3C97 18.6 96.2 18 95.5 18C94.8 18 94 18.7 94 19.4V21.9C94 22.6 94.8 23.1 95.5 23.1Z" fill="#DB0011"/>
<path d="M99.5 23.1C100.2 23.1 101 22.5 101 21.8V19.3C101 18.6 100.2 18 99.5 18C98.8 18 98 18.7 98 19.4V21.9C98 22.6 98.8 23.1 99.5 23.1Z" fill="#DB0011"/>
<path d="M114 23.9V17C114 15.5 112 14.3 111 14.3V12.5C111 11 109.8 9.5 108.2 9.5H20.9C20.9 9.5 21 9.6 21 9.5V5.7C21 4.2 19.7 2.5 18.2 2.5H14.4C12.9 2.5 12.1 4.2 12.1 5.7V9.5C12.1 9.6 11.7 9.5 11.7 9.5H7.5C6 9.5 5 11 5 12.5V14.3C3 14.3 2 15.6 2 17V23.8C2 25.3 3 26.5 5 26.5V56.5C3 56.5 2 57.8 2 59.2V62.7C2 64.2 3.3 65.3 4.8 65.3H110.9C112.4 65.3 114 64.2 114 62.7V59.2C114 57.7 112 56.5 111 56.5V26.5C112 26.5 114 25.3 114 23.9ZM108 56.5H7V26.5H108V56.5ZM18 9.2C18 9.3 17.9 9.5 17.7 9.5H14.2C14.1 9.5 13.9 9.4 13.9 9.2V5.8C13.9 5.7 14 5.5 14.2 5.5H17.7C17.8 5.5 18 5.6 18 5.8V9.2ZM7 12.5C7 12.4 7.4 12.5 7.5 12.5H14.3H18.1H108.2C108.3 12.5 108 12.4 108 12.5V14.5H7V12.5ZM5 23.9V17C5 16.9 4.7 16.5 4.8 16.5H6H109.8H111C111.1 16.5 111.1 16.9 111.1 17V23.8C111.1 23.9 111.1 24.4 111 24.4H109.8H6H4.8C4.7 24.5 5 24 5 23.9ZM111 59.4V62.9C111 63 111 63.5 110.9 63.5H4.8C4.7 63.5 5 63 5 62.9V59.4C5 59.3 4.7 59.5 4.8 59.5H6H109.8H111C111 59.5 111 59.2 111 59.4Z" fill="#DB0011"/>
</svg>
