<svg width="116" height="69" viewBox="0 0 116 69" fill="none" xmlns="http://www.w3.org/2000/svg">
<path d="M21.5 23.1C22.2 23.1 23 22.5 23 21.8V19.3C23 18.6 22.2 18 21.5 18C20.8 18 20 18.7 20 19.4V21.9C20 22.6 20.8 23.1 21.5 23.1Z" fill="#DB0011"/>
<path d="M25.5 23.1C26.2 23.1 27 22.5 27 21.8V19.3C27 18.6 26.2 18 25.5 18C24.8 18 24 18.7 24 19.4V21.9C24 22.6 24.8 23.1 25.5 23.1Z" fill="#DB0011"/>
<path d="M90.5 23.1C91.2 23.1 92 22.5 92 21.8V19.3C92 18.6 91.2 18 90.5 18C89.8 18 89 18.7 89 19.4V21.9C89 22.6 89.8 23.1 90.5 23.1Z" fill="#DB0011"/>
<path d="M94.5 23.1C95.2 23.1 96 22.5 96 21.8V19.3C96 18.6 95.2 18 94.5 18C93.8 18 93 18.7 93 19.4V21.9C93 22.6 93.8 23.1 94.5 23.1Z" fill="#DB0011"/>
<path d="M24 36.5H27V39.4C27 40.1 27.8 40.7 28.5 40.7C29.2 40.7 30 40.1 30 39.4V36.5H33C33.7 36.5 34.3 35.7 34.3 35C34.3 34.3 33.7 33.5 33 33.5H30V30.4C30 29.7 29.2 29.1 28.5 29.1C27.8 29.1 27 29.7 27 30.4V33.5H24C23.3 33.5 22.7 34.3 22.7 35C22.7 35.7 23.3 36.5 24 36.5Z" fill="#DB0011"/>
<path d="M82.7 36.5H91.7C92.4 36.5 93 35.7 93 35C93 34.3 92.4 33.5 91.7 33.5H82.7C82 33.5 81.4 34.3 81.4 35C81.5 35.7 82 36.5 82.7 36.5Z" fill="#DB0011"/>
<path d="M101 23.9V17C101 15.5 99 14.3 98 14.3V12.5C98 11 96.8 9.5 95.2 9.5H93.8C93.8 9.5 93.9 9.6 93.9 9.5V5.7C93.9 4.2 92.6 2.5 91.1 2.5H87.3C85.8 2.5 85 4.2 85 5.7V9.5C85 9.6 84.6 9.5 84.6 9.5H33.9C33.9 9.5 34 9.6 34 9.5V5.7C34 4.2 32.7 2.5 31.2 2.5H27.4C25.9 2.5 25.1 4.2 25.1 5.7V9.5C25.1 9.6 24.7 9.5 24.7 9.5H20.6C19.1 9.5 18.1 11 18.1 12.5V14.3C16.1 14.3 15.1 15.6 15.1 17V23.8C15.1 25.3 16.1 26.5 18.1 26.5V56.5C16.1 56.5 15.1 57.8 15.1 59.2V62.7C15.1 64.2 16.4 65.3 17.9 65.3H98C99.5 65.3 101.1 64.2 101.1 62.7V59.2C101.1 57.7 99.1 56.5 98.1 56.5V26.5C99 26.5 101 25.3 101 23.9ZM95 56.5H20V26.5H95V56.5ZM91 9.2C91 9.3 90.9 9.5 90.7 9.5H87.2C87.1 9.5 86.9 9.4 86.9 9.2V5.8C86.9 5.7 87 5.5 87.2 5.5H90.7C90.8 5.5 91 5.6 91 5.8V9.2ZM31 9.2C31 9.3 30.9 9.5 30.7 9.5H27.2C27.1 9.5 26.9 9.4 26.9 9.2V5.8C26.9 5.7 27 5.5 27.2 5.5H30.7C30.8 5.5 31 5.6 31 5.8V9.2ZM20 12.5C20 12.4 20.4 12.5 20.5 12.5H27.3H31.1H87.3H91.1H95.2C95.3 12.5 95 12.4 95 12.5V14.5H20V12.5ZM18 23.9V17C18 16.9 17.7 16.5 17.8 16.5H19H96.8H98C98.1 16.5 98.1 16.9 98.1 17V23.8C98.1 23.9 98.1 24.4 98 24.4H96.8H19H17.8C17.7 24.5 18 24 18 23.9ZM98 59.4V62.9C98 63 98 63.5 97.9 63.5H17.8C17.7 63.5 18 63 18 62.9V59.4C18 59.3 17.7 59.5 17.8 59.5H19H96.8H98C98 59.5 98 59.2 98 59.4Z" fill="#DB0011"/>
</svg>
