<svg width="274" height="40" viewBox="0 0 274 40" fill="none" xmlns="http://www.w3.org/2000/svg">
<path d="M128.019 0.528809H148.127L123.523 19.3694C125.669 20.9166 127.928 22.5552 130.297 24.2864C132.666 26.0177 135.046 27.758 137.435 29.5075C139.824 31.257 142.194 32.9883 144.543 34.7012C146.892 36.4142 149.139 38.0437 151.286 39.5909H129.477L107.545 21.5242V39.5909H92.7216V0.528809H107.545V17.325L128.019 0.528809H128.019Z" fill="black"/>
<path d="M50.2296 32.9784H68.7428L72.6068 39.3787H89.677L65.9502 0.0771484H65.1006H48.88H48.1509L24.4995 39.3787H41.2001L56.9609 13.4624L62.7672 23.0798H56.0689L50.2296 32.7827V32.9784Z" fill="black"/>
<path d="M239.858 38.6166L223.946 15.5572V39.5909H209.912V0.528809H231.6L239.858 16.4877V38.6166Z" fill="black"/>
<path fill-rule="evenodd" clip-rule="evenodd" d="M36.0662 0.0773926H41.3927L17.7425 39.3757H12.416L36.0662 0.0773926Z" fill="#CB930D"/>
<path fill-rule="evenodd" clip-rule="evenodd" d="M6.10352e-05 0.0771484H29.6394L5.98937 39.3761H6.10352e-05V0.0771484Z" fill="#FF0000"/>
<path d="M260.072 39.1273V14.7621L244.104 38.6144V16.0881L247.131 10.3143C248.954 6.83358 250.716 3.41748 252.417 0.0652689L273.983 0V39.0607L260.072 39.1273Z" fill="black"/>
<path fill-rule="evenodd" clip-rule="evenodd" d="M197.458 0.529053H199.612C200.087 0.529053 200.475 0.881829 200.475 1.31365V3.61869H203.143C203.619 3.61869 204.007 3.97146 204.007 4.40333V6.36275C204.007 6.79461 203.619 7.14739 203.143 7.14739H200.475V9.69673C200.475 10.1286 200.087 10.4813 199.612 10.4813H197.458C196.983 10.4813 196.595 10.1286 196.595 9.69673V7.14739H193.926C193.451 7.14739 193.063 6.79461 193.063 6.36275V4.40333C193.063 3.97146 193.451 3.61869 193.926 3.61869H196.595V1.31365C196.595 0.881829 196.983 0.529053 197.458 0.529053Z" fill="black"/>
<path d="M153.751 1.31459L153.751 3.27302C153.751 3.70661 154.103 4.05811 154.537 4.05811L163.908 4.05811C164.342 4.05811 164.694 3.70661 164.694 3.27302L164.694 1.31459C164.694 0.881002 164.342 0.529506 163.908 0.529506L154.537 0.529506C154.103 0.529506 153.751 0.881002 153.751 1.31459Z" fill="black"/>
<path d="M166.543 9.60624V26.353C166.543 26.7939 166.798 27.1553 167.302 27.4307C167.808 27.7061 168.589 27.8447 169.641 27.8447H187.806C188.981 27.8447 189.822 27.7061 190.327 27.4307C190.832 27.1553 191.087 26.7957 191.087 26.353V11.6511H205.667V27.9558C205.667 29.3166 205.484 30.6356 205.12 31.9056C204.757 33.1756 204.169 34.328 203.359 35.3591C202.549 36.3901 201.516 37.2659 200.26 37.9839C198.062 39.2414 194.595 39.8184 191.998 39.917C190.54 39.972 188.657 40 186.348 40C182.379 40 179.028 40 176.294 40C173.56 40 171.25 39.9911 169.368 39.9726C167.485 39.9546 165.955 39.908 164.781 39.8345C162.891 39.7157 159.935 39.2438 158.281 38.4253C157.35 37.9654 156.296 37.2186 155.122 36.1876C153.826 35.046 152.965 33.8393 152.54 32.5687C152.115 31.298 151.902 29.7598 151.902 27.9558V9.6062H166.543V9.60624Z" fill="black"/>
</svg>
