<svg width="97" height="87" viewBox="0 0 97 87" fill="none" xmlns="http://www.w3.org/2000/svg">
<g id="&#208;&#183;&#208;&#176;&#208;&#188;&#208;&#181;&#208;&#189;&#208;&#176; &#208;&#144;&#208;&#154;&#208;&#145; 1" clip-path="url(#clip0_0_200)">
<g id="&#208;&#161;&#208;&#187;&#208;&#190;&#208;&#185;_x0020_1">
<path id="Vector" fill-rule="evenodd" clip-rule="evenodd" d="M69.55 59.3188L72.1147 59.3891C69.4329 63.2531 65.7206 66.4847 61.1652 68.6275C60.9075 68.7446 60.6265 68.7563 60.3571 68.6626C60.0995 68.5689 59.877 68.3699 59.7599 68.124L57.5465 63.4287L48.4824 80.5472L67.4538 84.4814L65.2405 79.7861C65.1234 79.5285 65.1117 79.2475 65.2054 78.9899C65.299 78.7206 65.4981 78.5099 65.7441 78.3928C74.0118 74.5054 80.5113 67.9366 84.2939 59.7169L86.5774 59.7755C82.9003 68.206 76.3774 75.4304 67.5826 79.8447L70.2527 85.5001C70.4166 85.8631 70.3698 86.2963 70.1239 86.6008C69.9248 86.8584 69.6086 86.9989 69.2924 86.9989C69.2221 86.9989 69.1519 86.9872 69.0816 86.9755L46.6673 82.327C46.3394 82.2684 46.07 82.046 45.9295 81.7415C45.789 81.4488 45.8007 81.0975 45.9529 80.7931L56.6565 60.56C56.8439 60.2087 57.2186 59.9863 57.6168 59.998C58.015 60.0097 58.378 60.2438 58.542 60.6068L61.1886 66.2388C64.5261 64.5059 67.325 62.1173 69.5149 59.3071L69.55 59.3188Z" fill="#DB0011"/>
<path id="Vector_2" fill-rule="evenodd" clip-rule="evenodd" d="M12.5656 60.8409L14.896 60.8058C18.3507 67.6907 23.6791 73.2759 30.4011 77.0462L35.4484 67.5034C32.3333 65.7119 29.6399 63.3818 27.4734 60.6068L30.1903 60.5599C32.2045 62.8081 34.6169 64.6932 37.3689 66.1451C37.6149 66.2739 37.8022 66.4964 37.8842 66.7657C37.9662 67.035 37.9428 67.3277 37.814 67.5736L31.7829 78.9782C31.5956 79.3411 31.2325 79.5402 30.8461 79.5402C30.6821 79.5402 30.5065 79.4934 30.3542 79.4114C22.508 75.2781 16.3599 68.8499 12.5773 60.8409H12.5656Z" fill="#DB0011"/>
<path id="Vector_3" fill-rule="evenodd" clip-rule="evenodd" d="M11.8513 27.8099L14.1114 27.9036C14.1349 27.8451 14.1583 27.7982 14.1817 27.7397C17.812 19.6019 24.2646 12.6819 32.9423 8.6072C33.4693 8.36131 33.6918 7.72903 33.4458 7.20212L31.2325 2.50682L50.2039 6.44104L41.1398 23.5596L38.9265 18.8643C38.6805 18.3374 38.0482 18.1149 37.5212 18.3608C33.0711 20.4567 29.3471 23.6181 26.6068 27.5406L29.2651 27.5055C31.4784 24.7188 34.2539 22.4238 37.4743 20.7377L40.121 26.3697C40.2966 26.7327 40.648 26.9552 41.0578 26.9786C41.4443 26.9903 41.8307 26.7678 42.0181 26.4166L52.7217 6.18344C52.874 5.89072 52.8857 5.53945 52.7451 5.23501C52.6046 4.94229 52.3353 4.71982 52.0074 4.64957L29.593 0.00109868C29.2066 -0.0808642 28.7967 0.0596436 28.5508 0.375786C28.3048 0.68022 28.258 1.11345 28.4219 1.47643L31.092 7.14358C22.0981 11.6632 15.4816 19.1219 11.8513 27.7982V27.8099ZM68.9294 26.9083L71.5994 26.8732C69.3627 23.8874 66.5521 21.3934 63.2497 19.4966L68.297 9.95374C75.1712 13.8177 80.605 19.5785 84.0479 26.6859L86.3667 26.6507C86.2964 26.4985 86.2261 26.3463 86.1559 26.1941C82.3733 18.1617 76.2252 11.7335 68.3673 7.58852C67.852 7.31921 67.2196 7.51827 66.9385 8.03346L60.9075 19.438C60.7787 19.6839 60.7436 19.9766 60.8373 20.2459C60.9192 20.5152 61.1066 20.7377 61.3525 20.8665C64.2919 22.4121 66.8449 24.4612 68.9411 26.9201L68.9294 26.9083Z" fill="#DB0011"/>
<path id="Vector_4" d="M96.0631 35.7252H61.8444V32.5287H96.0631V35.7252ZM94.0723 57.7615H63.8235V36.6619H94.0723V57.7615ZM66.2242 29.3321H69.8779V31.5919H66.2242V29.3321ZM88.0179 29.3321H91.6716V31.5919H88.0179V29.3321ZM96.5316 31.5919H92.6085V28.8637C92.6085 28.6061 92.3977 28.3954 92.14 28.3954H87.5494C87.2918 28.3954 87.081 28.6061 87.081 28.8637V31.5919H70.8148V28.8637C70.8148 28.6061 70.604 28.3954 70.3464 28.3954H65.7558C65.4981 28.3954 65.2873 28.6061 65.2873 28.8637V31.5919H61.3642C61.1066 31.5919 60.8958 31.8027 60.8958 32.0603V36.1936C60.8958 36.4512 61.1066 36.6619 61.3642 36.6619H62.8866V58.2299C62.8866 58.4875 63.0974 58.6982 63.3551 58.6982H94.5407C94.7984 58.6982 95.0092 58.4875 95.0092 58.2299V36.6619H96.5316C96.7892 36.6619 97 36.4512 97 36.1936V32.0603C97 31.8027 96.7892 31.5919 96.5316 31.5919Z" fill="#DB0011"/>
<path id="Vector_5" d="M25.787 42.0364C25.787 41.7788 25.9978 41.5681 26.2555 41.5681H28.1643V39.6595C28.1643 39.4019 28.3751 39.1911 28.6327 39.1911C28.8904 39.1911 29.1012 39.4019 29.1012 39.6595V41.5681H31.01C31.2677 41.5681 31.4785 41.7788 31.4785 42.0364C31.4785 42.294 31.2677 42.5048 31.01 42.5048H29.1012V44.4133C29.1012 44.6709 28.8904 44.8817 28.6327 44.8817C28.3751 44.8817 28.1643 44.6709 28.1643 44.4133V42.5048H26.2555C25.9978 42.5048 25.787 42.294 25.787 42.0364ZM4.61404 42.0364C4.61404 41.7788 4.82483 41.5681 5.08247 41.5681H9.84873C10.1064 41.5681 10.3172 41.7788 10.3172 42.0364C10.3172 42.294 10.1064 42.5048 9.84873 42.5048H5.08247C4.82483 42.5048 4.61404 42.294 4.61404 42.0364ZM19.3696 42.7272L18.4444 47.1064C18.4093 47.2469 18.4444 47.3874 18.5381 47.4928C18.6318 47.5982 18.7606 47.6684 18.9011 47.6684H21.337L16.7229 53.5932L17.6481 49.214C17.6715 49.0735 17.6481 48.933 17.5544 48.8276C17.4607 48.7222 17.3319 48.652 17.1914 48.652H14.7555L19.3696 42.7272ZM13.7952 49.5887H16.6175L15.3879 55.3847C15.3411 55.5954 15.4465 55.8179 15.6455 55.9116C15.7041 55.9467 15.7744 55.9584 15.8446 55.9584C15.9852 55.9584 16.1257 55.8998 16.2194 55.7828L22.672 47.5045C22.7774 47.364 22.8008 47.1767 22.7188 47.0127C22.6369 46.8488 22.4729 46.7551 22.2972 46.7551H19.475L20.7046 40.9592C20.7514 40.7484 20.646 40.526 20.4469 40.4323C20.2479 40.3386 20.0136 40.3972 19.8848 40.5728L13.4322 48.851C13.3268 48.9916 13.3034 49.1789 13.3854 49.3428C13.4673 49.5067 13.6313 49.6004 13.807 49.6004L13.7952 49.5887ZM35.1673 36.6737H0.948577V33.4771H35.1673V36.6737ZM33.1765 58.71H2.92769V37.6104H33.1765V58.71ZM5.64458 30.2806H9.29833V32.5404H5.64458V30.2806ZM26.8176 30.2806H30.4713V32.5404H26.8176V30.2806ZM35.6358 32.5404H31.4082V29.8122C31.4082 29.5546 31.1974 29.3439 30.9398 29.3439H26.3492C26.0915 29.3439 25.8807 29.5546 25.8807 29.8122V32.5404H10.2352V29.8122C10.2352 29.5546 10.0244 29.3439 9.76676 29.3439H5.17615C4.91851 29.3439 4.70772 29.5546 4.70772 29.8122V32.5404H0.480148C0.222512 32.5404 0.0117188 32.7512 0.0117188 33.0088V37.1421C0.0117188 37.3997 0.222512 37.6104 0.480148 37.6104H2.00254V59.1784C2.00254 59.436 2.21334 59.6467 2.47097 59.6467H33.6566C33.9143 59.6467 34.1251 59.436 34.1251 59.1784V37.6104H35.6475C35.9051 37.6104 36.1159 37.3997 36.1159 37.1421V33.0088C36.1159 32.7512 35.9051 32.5404 35.6475 32.5404H35.6358Z" fill="#DB0011"/>
</g>
</g>
<defs>
<clipPath id="clip0_0_200">
<rect width="97" height="87" fill="white"/>
</clipPath>
</defs>
</svg>
