<svg width="66" height="83" viewBox="0 0 66 83" fill="none" xmlns="http://www.w3.org/2000/svg">
<g id="&#208;&#148;&#208;&#184;&#208;&#189;&#208;&#176;&#208;&#188;&#208;&#184;&#208;&#186;&#208;&#176; &#209;&#128;&#208;&#176;&#208;&#183;&#208;&#178;&#208;&#184;&#209;&#130;&#208;&#184;&#209;&#143; 1" clip-path="url(#clip0_0_298)">
<g id="&#208;&#161;&#208;&#187;&#208;&#190;&#208;&#185;_x0020_1">
<path id="Vector" d="M3.99516 67.4174H11.9322V45.3634H3.99516V67.4174Z" fill="#DB0011"/>
<path id="Vector_2" d="M17.5787 67.4174H25.5157V37.3146H17.5787V67.4174Z" fill="#DB0011"/>
<path id="Vector_3" d="M35.4237 60.7636C35.5835 60.388 35.7433 60.0124 35.9031 59.6368L34.0387 57.3294C32.9734 55.988 33.0799 54.1099 34.2518 52.9294L36.063 51.105C36.7022 50.4611 37.5012 50.1391 38.4068 50.1391C38.6731 50.1391 38.8862 50.1928 39.1525 50.2464V29.373H31.2155V61.6222C31.5884 61.4075 32.0145 61.2466 32.4939 61.1929L35.4237 60.8709V60.7636Z" fill="#DB0011"/>
<path id="Vector_4" d="M47.5157 46.3293H50.0726C51.1913 46.3293 52.2034 46.8659 52.7893 47.7781V21.3242H44.8523V47.7781C45.4383 46.9196 46.4504 46.3293 47.569 46.3293H47.5157Z" fill="#DB0011"/>
<path id="Vector_5" d="M2.07748 35.1146C2.18402 35.3829 2.50363 35.4902 2.76997 35.3829C19.1768 28.3535 34.8378 19.2851 49.3269 8.33865C50.0194 9.14354 50.6586 9.89476 51.3511 10.6997C52.5763 7.15815 53.6949 3.56299 54.7603 0.0214844C51.1913 0.88003 47.6223 1.5776 44.0533 2.22151C44.6925 2.97274 45.385 3.72396 46.0242 4.52885C32.707 16.1729 18.0048 26.2071 2.29056 34.417C2.02421 34.578 1.91767 34.8999 2.07748 35.1682V35.1146Z" fill="#DB0011"/>
<path id="Vector_6" d="M55.1332 72.0857C53.4286 73.8028 51.1913 74.715 48.7942 74.715C46.3971 74.715 44.1598 73.7491 42.4552 72.0857C40.7506 70.3686 39.845 68.1149 39.845 65.7003C39.845 63.2856 40.8039 61.0319 42.4552 59.3148C44.1598 57.5977 46.3971 56.6855 48.7942 56.6855C51.1913 56.6855 53.4286 57.6514 55.1332 59.3148C56.8378 61.0319 57.7433 63.2856 57.7433 65.7003C57.7433 68.1149 56.7845 70.3686 55.1332 72.0857ZM64.8814 63.1783L61.7385 62.8563C61.046 62.8027 60.5133 62.3197 60.3002 61.6758C60.1404 61.2466 59.9806 60.8173 59.7676 60.388C59.4479 59.7978 59.5545 59.0465 59.9806 58.5099L61.9516 56.0416C62.3777 55.5587 62.3245 54.8075 61.845 54.3782L60.0339 52.5538C59.6078 52.1245 58.862 52.0708 58.3826 52.4465L55.9322 54.4318C55.3995 54.8611 54.707 54.9684 54.0678 54.6465C53.6416 54.4318 53.2155 54.2709 52.7893 54.1099C52.1501 53.8953 51.724 53.305 51.6174 52.6611L51.2978 49.4952C51.2446 48.8513 50.7119 48.3684 50.0726 48.3684H47.5157C46.8765 48.3684 46.3438 48.8513 46.2906 49.4952L45.9709 52.6611C45.9177 53.3587 45.4383 53.8953 44.799 54.1099C44.3729 54.2709 43.9467 54.4318 43.5206 54.6465C42.9346 54.9684 42.1889 54.8611 41.6562 54.4318L39.2058 52.4465C38.7264 52.0172 37.9806 52.0708 37.5545 52.5538L35.7433 54.3782C35.3172 54.8075 35.2639 55.5587 35.6368 56.0416L37.6077 58.5099C38.0339 59.0465 38.1404 59.7441 37.8208 60.388C37.6077 60.8173 37.4479 61.2466 37.2881 61.6758C37.0751 62.3197 36.4891 62.749 35.8499 62.8563L32.707 63.1783C32.0678 63.2319 31.5884 63.7685 31.5884 64.4124V66.9881C31.5884 67.632 32.0678 68.1686 32.707 68.2222L35.8499 68.5442C36.5424 68.5979 37.0751 69.0808 37.2881 69.7247C37.4479 70.154 37.6077 70.5832 37.8208 71.0125C38.1404 71.6028 38.0339 72.354 37.6077 72.8906L35.6368 75.3589C35.2107 75.8418 35.2639 76.5931 35.7433 77.0223L37.5545 78.8467C37.9806 79.276 38.7264 79.3297 39.2058 78.9541L41.6562 76.9687C42.1889 76.5394 42.8814 76.4321 43.5206 76.754C43.9467 76.9687 44.3729 77.1297 44.799 77.2906C45.4383 77.5053 45.8644 78.0955 45.9709 78.7394L46.2906 81.9053C46.3438 82.5492 46.8765 83.0322 47.5157 83.0322H50.0726C50.7119 83.0322 51.2446 82.5492 51.2978 81.9053L51.6174 78.7394C51.6707 78.0419 52.1501 77.5053 52.7893 77.2906C53.2155 77.1297 53.6416 76.9687 54.0678 76.754C54.6538 76.4321 55.3995 76.5394 55.9322 76.9687L58.3826 78.9541C58.862 79.3833 59.6078 79.3297 60.0339 78.8467L61.845 77.0223C62.2712 76.5931 62.3245 75.8418 61.9516 75.3589L59.9806 72.8906C59.5545 72.354 59.4479 71.6564 59.7676 71.0125C59.9806 70.5832 60.1404 70.154 60.3002 69.7247C60.5133 69.0808 61.0993 68.6515 61.7385 68.5442L64.8814 68.2222C65.5206 68.1686 66 67.632 66 66.9881V64.4124C66 63.7685 65.5206 63.2319 64.8814 63.1783Z" fill="#DB0011"/>
<path id="Vector_7" d="M30.0436 68.6515H0V71.6564H30.0436V68.6515Z" fill="#DB0011"/>
</g>
</g>
<defs>
<clipPath id="clip0_0_298">
<rect width="66" height="83" fill="white"/>
</clipPath>
</defs>
</svg>
