<svg width="85" height="85" viewBox="0 0 85 85" fill="none" xmlns="http://www.w3.org/2000/svg">
<g id="&#208;&#155;&#208;&#176;&#208;&#177;&#208;&#176;&#209;&#128;&#208;&#176;&#209;&#130;&#208;&#190;&#209;&#128;&#208;&#184;&#209;&#143; 1" clip-path="url(#clip0_0_283)">
<g id="&#208;&#161;&#208;&#187;&#208;&#190;&#208;&#185;_x0020_1">
<g id="_1881957961280">
<path id="Vector" d="M43.4884 39.466C43.4413 39.466 43.3472 39.4189 43.3472 39.3719L39.2996 34.5739L39.1114 34.7621C39.0173 34.8561 38.8761 34.8091 38.829 34.715L38.2172 34.0094L37.8877 34.2917L38.4996 34.9972C38.5937 35.0913 38.5466 35.2324 38.4525 35.2795L38.2642 35.4676L39.582 37.0199C39.6762 37.114 39.6291 37.2551 39.535 37.3022C39.4408 37.3963 39.2996 37.3492 39.2526 37.2551L37.7936 35.5147C37.6995 35.4206 37.7465 35.2795 37.8407 35.2324L38.0289 35.0443L37.4171 34.3387C37.3229 34.2446 37.37 34.1035 37.4641 34.0565L38.123 33.539C38.1701 33.492 38.2172 33.492 38.2642 33.492C38.3113 33.492 38.3584 33.539 38.4054 33.5861L39.0173 34.2917L39.2055 34.1035C39.2996 34.0094 39.4408 34.0565 39.4879 34.1505L43.6766 39.1367C43.7707 39.2308 43.7237 39.3719 43.6295 39.4189C43.5825 39.466 43.5354 39.466 43.4884 39.466Z" fill="#DB0011"/>
<path id="Vector_2" d="M42.1235 40.642C42.0764 40.642 41.9823 40.5949 41.9823 40.5479L41.5117 39.9834C41.4175 39.8893 41.4646 39.7482 41.5587 39.7012C41.6529 39.6071 41.7941 39.6541 41.8411 39.7482L42.3118 40.3127C42.4059 40.4068 42.3588 40.5479 42.2647 40.5949C42.2176 40.642 42.1706 40.642 42.1235 40.642Z" fill="#DB0011"/>
<path id="Vector_3" d="M37.2759 34.0094L37.4171 34.1976L38.1701 33.539L38.0289 33.3509L37.2759 34.0094ZM37.37 34.668C37.323 34.668 37.2759 34.6209 37.2288 34.5739L36.8052 34.1035C36.7111 34.0094 36.7582 33.8683 36.8523 33.8213L37.9348 32.9275C37.9819 32.8805 38.0289 32.8805 38.076 32.8805C38.123 32.8805 38.1701 32.9275 38.2172 32.9746L38.6407 33.445C38.7349 33.539 38.6878 33.6801 38.5937 33.7272L37.5112 34.6209C37.4641 34.668 37.4171 34.668 37.37 34.668Z" fill="#DB0011"/>
<path id="Vector_4" d="M42.3118 40.689L42.5941 41.0183L44.0061 39.8423L43.7237 39.513L42.3118 40.689ZM42.5471 41.5357C42.5 41.5357 42.4059 41.4887 42.4059 41.4416L41.8411 40.7831C41.7941 40.736 41.7941 40.689 41.7941 40.642C41.7941 40.5949 41.8411 40.5479 41.8882 40.5008L43.6296 39.0426C43.6766 38.9956 43.7237 38.9956 43.7707 38.9956C43.8178 38.9956 43.8649 39.0426 43.9119 39.0897L44.4767 39.7482C44.5708 39.8423 44.5238 39.9834 44.4296 40.0305L42.6883 41.4887C42.6412 41.5357 42.5941 41.5357 42.5471 41.5357Z" fill="#DB0011"/>
<path id="Vector_5" d="M44.665 41.7709C44.6179 41.7709 44.5238 41.7239 44.5238 41.6768L43.8649 40.8772C43.7707 40.7831 43.8178 40.642 43.9119 40.5949C44.0061 40.5008 44.1473 40.5479 44.1943 40.642L44.712 41.3005L44.9003 41.1594L44.3826 40.5008C44.2885 40.4068 44.3355 40.2656 44.4296 40.2186C44.5238 40.1245 44.665 40.1716 44.712 40.2656L45.3709 41.0653C45.4651 41.1594 45.418 41.3005 45.3239 41.3476L44.8532 41.7709C44.8062 41.8179 44.7591 41.8179 44.712 41.8179L44.665 41.7709Z" fill="#DB0011"/>
<path id="Vector_6" d="M44.0531 42.9939C44.0061 42.9939 43.9119 42.9469 43.9119 42.8998L42.9236 41.6768C42.8295 41.5827 42.8765 41.4416 42.9707 41.3946C43.0648 41.3005 43.206 41.3476 43.253 41.4416L44.1473 42.4765L44.3355 42.3354L43.4413 41.3005C43.3472 41.2064 43.3942 41.0653 43.4884 41.0183C43.5825 40.9242 43.7237 40.9712 43.7707 41.0653L44.7591 42.2883C44.8062 42.3354 44.8062 42.3824 44.8062 42.4295C44.8062 42.4765 44.7591 42.5235 44.712 42.5706L44.2414 42.9939C44.1943 43.041 44.1473 43.041 44.1002 43.041L44.0531 42.9939Z" fill="#DB0011"/>
<path id="Vector_7" d="M40.288 38.0078C39.8174 38.0078 39.4879 38.3841 39.4879 38.8074C39.4879 39.2778 39.8644 39.6071 40.288 39.6071C40.7586 39.6071 41.0881 39.2308 41.0881 38.8074C41.0881 38.337 40.7116 38.0078 40.288 38.0078ZM40.288 40.0305C39.6291 40.0305 39.0643 39.466 39.0643 38.8074C39.0643 38.1489 39.6291 37.5844 40.288 37.5844C40.9469 37.5844 41.5117 38.1489 41.5117 38.8074C41.5117 39.466 40.9469 40.0305 40.288 40.0305Z" fill="#DB0011"/>
<path id="Vector_8" d="M40.288 38.5722C40.1468 38.5722 40.0527 38.6663 40.0527 38.8074C40.0527 38.9485 40.1468 39.0426 40.288 39.0426C40.4292 39.0426 40.5233 38.9485 40.5233 38.8074C40.5233 38.6663 40.4292 38.5722 40.288 38.5722ZM40.288 39.4189C39.9115 39.4189 39.6291 39.1367 39.6291 38.7604C39.6291 38.3841 39.9115 38.1018 40.288 38.1018C40.6645 38.1018 40.9469 38.3841 40.9469 38.7604C40.9469 39.1367 40.6645 39.4189 40.288 39.4189Z" fill="#DB0011"/>
<path id="Vector_9" d="M45.6062 45.3459H37.4171C37.3229 45.3459 37.2288 45.2518 37.2288 45.1577V43.9347C37.2288 43.8406 37.3229 43.7466 37.4171 43.7466H39.0173C38.4996 43.088 38.2172 42.2883 38.2172 41.4416C38.2172 40.5479 38.5466 39.6541 39.1585 38.9956C39.2526 38.9015 39.3467 38.9015 39.4408 38.9956C39.535 39.0897 39.535 39.1838 39.4408 39.2778C38.8761 39.8893 38.5937 40.642 38.5937 41.4416C38.5937 42.3354 38.9702 43.1821 39.582 43.7936C39.6291 43.8406 39.6762 43.9347 39.6291 44.0288C39.582 44.1229 39.535 44.1699 39.4408 44.1699H37.5583V44.9696H45.3709V44.1699H41.9823C40.5233 44.1699 39.2996 42.9469 39.2996 41.4416C39.2996 40.7831 39.535 40.1716 39.9585 39.7012C40.0527 39.6071 40.1468 39.6071 40.2409 39.7012C40.3351 39.7953 40.3351 39.8893 40.2409 39.9834C39.8644 40.4068 39.6762 40.8772 39.6762 41.4416C39.6762 42.6647 40.7116 43.7466 41.9823 43.7466H45.5592C45.6533 43.7466 45.7474 43.8406 45.7474 43.9347V45.1577C45.7474 45.2518 45.6533 45.3459 45.5592 45.3459H45.6062Z" fill="#DB0011"/>
</g>
<g id="Group">
<path id="Vector_10" fill-rule="evenodd" clip-rule="evenodd" d="M36.617 67.2192C36.664 67.2192 36.617 67.2192 36.664 67.2192C37.9348 68.5833 39.7703 69.43 41.794 69.43H59.7255C64.479 69.43 68.3382 65.5728 68.3382 60.8218C68.3382 57.0116 65.8909 53.813 62.4552 52.637C61.9846 52.4959 62.2199 52.5429 61.6551 52.4018C61.0433 52.2607 60.3844 52.1666 59.7255 52.1666C59.6784 52.1666 59.6313 52.1666 59.5372 52.1666C57.89 49.3442 54.8779 47.6038 51.5834 47.6038C47.0652 47.6038 43.253 50.8495 42.5 55.2712C38.2642 54.8008 34.6403 58.1406 34.6403 62.3271C34.6403 63.8323 35.1109 65.2435 35.9581 66.4195L36.617 67.2192ZM57.184 57.3409C57.3252 57.482 57.3252 57.7643 57.184 57.9054L51.1127 63.9735C51.0186 64.0675 50.9245 64.1146 50.8303 64.1146C50.7362 64.1146 50.6421 64.0675 50.548 63.9735L46.5004 59.9281C46.3593 59.787 46.3593 59.5047 46.5004 59.3636C46.6416 59.2225 46.924 59.2225 47.0652 59.3636L50.8303 63.1267L56.6192 57.3409C56.7604 57.1998 57.0428 57.1998 57.184 57.3409ZM67.5381 60.7748C67.5381 65.1024 64.0083 68.5833 59.7255 68.5833H41.794C38.3113 68.5833 35.5345 65.7609 35.5345 62.3271C35.5345 58.8462 38.3583 56.0709 41.794 56.0709C42.1235 56.0709 42.5 56.1179 42.8294 56.1649C42.9236 56.1649 43.0648 56.1649 43.1589 56.0709C43.253 56.0238 43.3001 55.8827 43.3001 55.7886C43.8178 51.6021 47.3947 48.4505 51.6304 48.4505C54.6896 48.4505 57.5135 50.0969 58.9724 52.7781C59.0666 52.9192 59.2078 53.0133 59.349 52.9663C59.4902 52.9663 59.5843 52.9663 59.7255 52.9663C64.0554 52.9663 67.5381 56.4942 67.5381 60.7748ZM67.2557 16.9812C67.5381 16.1345 68.3382 15.57 69.1854 15.57C69.3736 15.57 69.6089 15.6171 69.7972 15.6641C70.3149 15.8523 70.7385 16.1815 70.9738 16.699C71.2091 17.1694 71.2562 17.7338 71.115 18.2513C70.9267 18.7687 70.5973 19.192 70.0796 19.4272C69.6089 19.6624 69.0442 19.7095 68.5265 19.5684C67.444 19.2391 66.8792 18.0631 67.2087 16.9812H67.2557ZM69.1854 20.4621C69.6089 20.4621 70.0796 20.368 70.4561 20.1328C71.115 19.8036 71.6327 19.192 71.868 18.4865C72.1033 17.7809 72.0563 16.9812 71.6798 16.3226C71.3503 15.6641 70.7385 15.1467 70.0325 14.9115C69.0912 14.6292 68.15 14.8174 67.444 15.3348C56.1486 4.93914 39.3938 2.63421 25.6981 9.59603C10.967 17.0753 2.96611 33.6331 6.2606 49.8146C6.35473 50.3321 6.49592 50.8495 6.63712 51.3669C7.29601 54.0482 8.28436 56.6824 9.55509 59.1754C9.64922 59.3166 9.79041 59.4106 9.93161 59.4106C9.97867 59.4106 10.0728 59.4106 10.1199 59.3636C10.3081 59.2695 10.4022 59.0343 10.3081 58.7991C9.08445 56.3531 8.0961 53.7659 7.43721 51.1317C7.29601 50.6143 7.20189 50.0969 7.10776 49.5794C3.9074 33.7742 11.72 17.5927 26.1217 10.2546C39.4879 3.43388 55.8662 5.69177 66.9263 15.8523C66.738 16.0875 66.5968 16.3697 66.5027 16.699C66.2674 17.4046 66.3145 18.2042 66.691 18.8628C67.0204 19.5213 67.6322 20.0387 68.3382 20.2739C68.6206 20.368 68.95 20.4151 69.2324 20.4151L69.1854 20.4621ZM15.4381 69.5711C14.3556 69.2419 13.7909 68.0659 14.1203 66.984C14.4027 66.1373 15.2028 65.5728 16.0499 65.5728C16.2382 65.5728 16.4735 65.6198 16.6618 65.6669C17.7443 65.9961 18.309 67.1721 17.9796 68.254C17.6501 69.3359 16.4735 69.9004 15.391 69.5711H15.4381ZM78.6453 35.1384C78.5511 34.6209 78.4099 34.0565 78.3158 33.539C77.6569 30.8578 76.6686 28.2236 75.3978 25.7305C75.3037 25.5423 75.0684 25.4483 74.8331 25.5423C74.6448 25.6364 74.5507 25.8716 74.6448 26.1068C75.8685 28.5529 76.8568 31.093 77.5157 33.7272C77.6569 34.2446 77.751 34.7621 77.8452 35.2795C81.0455 51.0847 73.2329 67.2662 58.8313 74.6043C45.6062 81.3309 29.4162 79.2142 18.4032 69.3359C18.5914 69.1007 18.7326 68.8185 18.8267 68.5363C19.2974 67.031 18.4973 65.4317 16.9912 64.9142C15.4852 64.4438 13.885 65.2435 13.3673 66.7488C12.8966 68.254 13.6967 69.8534 15.2028 70.3708C15.4852 70.4649 15.8146 70.5119 16.097 70.5119C16.7559 70.5119 17.3677 70.2767 17.8384 69.9004C24.7097 76.0625 33.6049 79.3083 42.5471 79.3083C48.2418 79.3083 53.9836 77.9912 59.2078 75.3099C73.9388 67.8307 81.9397 51.2728 78.6453 35.1384ZM73.4211 73.6165C73.0917 74.6984 71.9151 75.2629 70.8797 74.9336C69.7972 74.6043 69.2324 73.4284 69.5619 72.3935C69.8913 71.3116 71.0679 70.7471 72.1033 71.0764C73.1858 71.4057 73.7506 72.5816 73.4211 73.6165ZM80.3866 23.1904C71.7268 6.2092 52.7129 -2.96346 34.0755 0.79968C33.5107 0.893759 32.946 1.03488 32.24 1.22303C29.1338 2.0227 26.0746 3.15165 23.2508 4.60986C22.6389 4.93914 21.98 5.26841 21.4153 5.59769C21.227 5.69177 21.1329 5.974 21.2741 6.16216C21.3682 6.35032 21.6506 6.4444 21.8388 6.30328C22.4036 5.974 23.0154 5.64473 23.6273 5.31545C26.4511 3.90427 29.4162 2.77533 32.4753 2.0227C33.1342 1.83454 33.699 1.74047 34.2638 1.64639C52.5717 -2.06972 71.2091 6.96183 79.7277 23.6137C87.5875 39.0897 84.9989 57.9995 73.2329 70.7471C72.9976 70.559 72.7152 70.4178 72.4328 70.3238C70.9267 69.8534 69.3266 70.653 68.8559 72.1583C68.3853 73.6635 69.1854 75.2629 70.6914 75.7333C70.9738 75.8274 71.2562 75.8744 71.5856 75.8744C72.8093 75.8744 73.8918 75.1218 74.3154 73.8987C74.5977 72.958 74.4095 72.0172 73.8918 71.3116C85.8931 58.2817 88.5758 39.0426 80.5278 23.2374L80.3866 23.1904ZM11.9083 10.9602C12.2378 9.87826 13.4144 9.31379 14.4498 9.64307C15.5322 9.97234 16.097 11.1483 15.7676 12.1832C15.4381 13.2651 14.2615 13.8296 13.2261 13.5003C12.7084 13.3121 12.2848 12.9829 12.0495 12.5125C11.8142 12.0421 11.7671 11.4776 11.9083 10.9602ZM63.2082 78.6027C62.5964 78.932 62.0316 79.2612 61.3727 79.5905C58.5489 81.0017 55.5838 82.1306 52.5247 82.8833C51.9128 83.0244 51.3481 83.1655 50.7362 83.3066C32.4283 87.0227 13.7438 77.9912 5.27226 61.3393C-2.68159 45.6752 0.0481357 26.6243 12.0495 13.8766C12.2848 14.0648 12.5672 14.2059 12.8966 14.3C13.179 14.394 13.5085 14.4411 13.7909 14.4411C15.0145 14.4411 16.097 13.6884 16.5206 12.4654C16.9912 10.9602 16.1911 9.36083 14.6851 8.89044C13.179 8.42005 11.5789 9.21971 11.1082 10.725C10.8729 11.4306 10.92 12.2302 11.2965 12.8888C11.3906 13.0299 11.4377 13.171 11.5318 13.2651C-0.751954 26.295 -3.52874 45.7222 4.56629 61.7156C11.9083 76.1566 26.7806 84.953 42.5 84.953C45.2768 84.953 48.1006 84.6707 50.8774 84.1063C51.4892 83.9651 52.1011 83.824 52.6658 83.6829C55.7721 82.8833 58.7842 81.7543 61.6551 80.2961C62.2669 79.9668 62.8788 79.6376 63.4906 79.3083C63.6789 79.2142 63.773 78.932 63.6318 78.7438C63.5377 78.5556 63.2553 78.4616 63.067 78.6027H63.2082Z" fill="#DB0011"/>
</g>
<path id="Vector_11" fill-rule="evenodd" clip-rule="evenodd" d="M58.9725 49.5794H60.0549V27.2828H61.8434C62.1258 27.2828 62.4081 27.0476 62.4081 26.7183V21.9203C62.4081 21.6381 62.1728 21.3558 61.8434 21.3558H57.2782V18.2042C57.2782 17.922 57.0428 17.6397 56.7134 17.6397H51.3481C51.0657 17.6397 50.7833 17.8749 50.7833 18.2042V21.3558H31.8635V18.2042C31.8635 17.922 31.6282 17.6397 31.2987 17.6397H25.9334C25.651 17.6397 25.3687 17.8749 25.3687 18.2042V21.3558H20.8034C20.521 21.3558 20.2387 21.591 20.2387 21.9203V26.7183C20.2387 27.0006 20.474 27.2828 20.8034 27.2828H22.5919V52.4018C22.5919 52.684 22.8272 52.9662 23.1566 52.9662H40.0527V51.8843H23.6743V27.3298H58.8783V49.6265L58.9725 49.5794ZM41.3705 30.4815C46.4063 30.4815 50.4539 34.5739 50.4539 39.56C50.4539 44.5933 46.3593 48.6386 41.3705 48.6386C36.3346 48.6386 32.24 44.5462 32.24 39.56C32.24 34.5268 36.3346 30.4815 41.3705 30.4815ZM41.3705 49.7676C46.9711 49.7676 51.5834 45.2048 51.5834 39.56C51.5834 33.9624 47.0182 29.3525 41.3705 29.3525C35.7698 29.3525 31.1575 33.9153 31.1575 39.56C31.1575 45.1577 35.7228 49.7676 41.3705 49.7676ZM61.2786 26.2009H21.4153V22.4848H61.2786V26.2009ZM26.5453 18.7687H30.781V21.4029H26.5453V18.7687ZM51.9128 18.7687H56.1486V21.4029H51.9128V18.7687Z" fill="#DB0011"/>
</g>
</g>
<defs>
<clipPath id="clip0_0_283">
<rect width="85" height="85" fill="white"/>
</clipPath>
</defs>
</svg>
