<svg width="75" height="94" viewBox="0 0 75 94" fill="none" xmlns="http://www.w3.org/2000/svg">
<g id="&#209;&#131;&#209;&#130;&#208;&#184;&#208;&#187;&#208;&#184;&#208;&#183;&#208;&#176;&#209;&#134;&#208;&#184;&#209;&#143; 1" clip-path="url(#clip0_0_207)">
<g id="&#208;&#161;&#208;&#187;&#208;&#190;&#208;&#185;_x0020_1">
<path id="Vector" d="M4.75352 1.53401C2.99296 1.53401 1.58451 2.94108 1.58451 4.69992V89.2415C1.58451 91.0003 2.99296 92.466 4.75352 92.466H51.8779C53.6385 92.466 55.0469 91.059 55.0469 89.2415V4.69992C55.0469 2.94108 53.6385 1.53401 51.8779 1.53401H4.75352ZM51.8779 93.9904H4.75352C2.11268 93.9904 0 91.8798 0 89.2415V4.69992C0 2.06166 2.11268 -0.0489502 4.75352 -0.0489502H51.8779C54.5188 -0.0489502 56.6315 2.06166 56.6315 4.69992V89.2415C56.6315 91.8798 54.5188 93.9904 51.8779 93.9904Z" fill="#DB0011"/>
<path id="Vector_2" d="M8.03992 30.9067H48.5916V8.51078H8.03992V30.9067ZM49.3545 32.431H7.21832C6.80753 32.431 6.45541 32.0792 6.45541 31.6688V7.74861C6.45541 7.33822 6.80753 6.98645 7.21832 6.98645H49.3545C49.7653 6.98645 50.1174 7.33822 50.1174 7.74861V31.6688C50.1174 32.0792 49.7653 32.431 49.3545 32.431Z" fill="#DB0011"/>
<path id="Vector_3" d="M28.2864 40.5216C19.0728 40.5216 11.561 48.026 11.561 57.2306C11.561 60.3379 12.4413 63.2693 13.9085 65.7317L13.3216 66.318C13.1455 66.4938 12.9695 66.7284 12.7934 66.9629C11.0329 64.1487 9.97653 60.8069 9.97653 57.2306C9.97653 47.1466 18.1925 38.9973 28.2277 38.9973C31.8075 38.9973 35.1526 40.0526 37.9695 41.8115C37.7347 41.9873 37.5587 42.1046 37.3239 42.3391L36.7371 42.9254C34.2136 41.4597 31.338 40.5803 28.2277 40.5803L28.2864 40.5216ZM19.777 71.5945C22.3005 73.0602 25.1761 73.9396 28.2864 73.9396C37.5 73.9396 45.0117 66.4352 45.0117 57.2306C45.0117 54.1233 44.1315 51.1919 42.6643 48.7296L43.2512 48.1433C43.4272 47.9674 43.6033 47.7329 43.7794 47.4984C45.5399 50.3125 46.5962 53.6543 46.5962 57.2306C46.5962 67.3146 38.3803 75.4639 28.3451 75.4639C24.7653 75.4639 21.4202 74.4086 18.6033 72.6498C18.838 72.4739 19.0141 72.3566 19.2488 72.1221L19.8357 71.5359L19.777 71.5945Z" fill="#DB0011"/>
<path id="Vector_4" d="M40.3169 41.87C39.4366 41.87 38.5563 42.2218 37.9108 42.8667L13.8498 66.9042C13.2042 67.5491 12.8521 68.3699 12.8521 69.3079C12.8521 70.1874 13.2042 71.0668 13.8498 71.7117C15.1408 73.0015 17.3122 73.0015 18.6033 71.7117L42.6643 47.6742C43.9554 46.3844 43.9554 44.2152 42.6643 42.9253C42.0188 42.2804 41.1972 41.9287 40.2582 41.9287L40.3169 41.87ZM16.2559 74.1741C14.9648 74.1741 13.7324 73.6464 12.7934 72.7084C11.8545 71.7703 11.3263 70.5391 11.3263 69.2493C11.3263 67.9595 11.8545 66.7283 12.7934 65.7903L36.8545 41.7528C38.7324 39.8767 41.9601 39.8767 43.838 41.7528C45.7747 43.6875 45.7747 46.7948 43.838 48.7295L19.777 72.767C18.838 73.705 17.6056 74.2327 16.3146 74.2327L16.2559 74.1741Z" fill="#DB0011"/>
<path id="Vector_5" d="M27.8756 46.0912C27.4648 46.0912 27.1127 45.7395 27.1127 45.3291V41.1079C27.1127 40.6975 27.4648 40.3457 27.8756 40.3457C28.2864 40.3457 28.6385 40.6975 28.6385 41.1079V45.3291C28.6385 45.7395 28.2864 46.0912 27.8756 46.0912Z" fill="#DB0011"/>
<path id="Vector_6" d="M16.3732 58.4031H12.1479C11.7371 58.4031 11.385 58.0513 11.385 57.6409C11.385 57.2306 11.7371 56.8788 12.1479 56.8788H16.3732C16.784 56.8788 17.1362 57.2306 17.1362 57.6409C17.1362 58.0513 16.784 58.4031 16.3732 58.4031Z" fill="#DB0011"/>
<path id="Vector_7" d="M28.6972 74.1741C28.2864 74.1741 27.9343 73.8224 27.9343 73.412V69.1908C27.9343 68.7804 28.2864 68.4286 28.6972 68.4286C29.108 68.4286 29.4601 68.7804 29.4601 69.1908V73.412C29.4601 73.8224 29.108 74.1741 28.6972 74.1741Z" fill="#DB0011"/>
<path id="Vector_8" d="M44.4836 57.5824H40.2582C39.8474 57.5824 39.4953 57.2307 39.4953 56.8203C39.4953 56.4099 39.8474 56.0581 40.2582 56.0581H44.4836C44.8944 56.0581 45.2465 56.4099 45.2465 56.8203C45.2465 57.2307 44.8944 57.5824 44.4836 57.5824Z" fill="#DB0011"/>
<path id="Vector_9" d="M45.7746 25.0439H29.5188C29.108 25.0439 28.7559 24.6921 28.7559 24.2817C28.7559 23.8713 29.108 23.5195 29.5188 23.5195H45.7746C46.1854 23.5195 46.5375 23.8713 46.5375 24.2817C46.5375 24.6921 46.1854 25.0439 45.7746 25.0439Z" fill="#DB0011"/>
<path id="Vector_10" d="M45.7746 28.8547H26.2911C25.8803 28.8547 25.5282 28.5029 25.5282 28.0925C25.5282 27.6821 25.8803 27.3303 26.2911 27.3303H45.7746C46.1854 27.3303 46.5376 27.6821 46.5376 28.0925C46.5376 28.5029 46.1854 28.8547 45.7746 28.8547Z" fill="#DB0011"/>
<path id="Vector_11" d="M23.7089 19.8846H45.0117V16.0738H23.7089V19.8846ZM45.7747 21.4089H22.946C22.5352 21.4089 22.1831 21.0571 22.1831 20.6468V15.3116C22.1831 14.9012 22.5352 14.5494 22.946 14.5494H45.7747C46.1855 14.5494 46.5376 14.9012 46.5376 15.3116V20.6468C46.5376 21.0571 46.1855 21.4089 45.7747 21.4089Z" fill="#DB0011"/>
<path id="Vector_12" d="M45.7746 12.4388H29.5188C29.108 12.4388 28.7559 12.087 28.7559 11.6766C28.7559 11.2662 29.108 10.9144 29.5188 10.9144H45.7746C46.1854 10.9144 46.5375 11.2662 46.5375 11.6766C46.5375 12.087 46.1854 12.4388 45.7746 12.4388Z" fill="#DB0011"/>
<path id="Vector_13" d="M13.6737 19.8846H19.0728V16.0738H13.6737V19.8846ZM19.8357 21.4089H12.8521C12.4413 21.4089 12.0892 21.0571 12.0892 20.6468V15.3116C12.0892 14.9012 12.4413 14.5494 12.8521 14.5494H19.8357C20.2465 14.5494 20.5986 14.9012 20.5986 15.3116V20.6468C20.5986 21.0571 20.2465 21.4089 19.8357 21.4089Z" fill="#DB0011"/>
<path id="Vector_14" d="M66.4319 87.4241H55.8098C55.399 87.4241 55.0469 87.0723 55.0469 86.6619C55.0469 86.2515 55.399 85.8997 55.8098 85.8997H66.4319C69.4836 85.8997 71.9483 83.4374 71.9483 80.3887V42.4564H73.4742V80.3887C73.4742 84.2581 70.3052 87.4241 66.4319 87.4241ZM71.9483 21.8193V18.0085C71.9483 17.5981 72.3005 17.2463 72.7113 17.2463C73.1221 17.2463 73.4742 17.5981 73.4742 18.0085V21.8193H71.9483Z" fill="#DB0011"/>
<path id="Vector_15" d="M58.5094 77.8091H55.8686C55.4578 77.8091 55.1057 77.4573 55.1057 77.0469C55.1057 76.6365 55.4578 76.2847 55.8686 76.2847H58.5094C61.5611 76.2847 64.0258 73.8224 64.0258 70.7737V42.3978H65.5517V70.7737C65.5517 74.6431 62.3826 77.8091 58.5094 77.8091ZM64.0258 21.8193V18.0085C64.0258 17.5981 64.3779 17.2463 64.7887 17.2463C65.1995 17.2463 65.5517 17.5981 65.5517 18.0085V21.8193H64.0258Z" fill="#DB0011"/>
<path id="Vector_16" d="M64.0258 41.577H65.493V22.5229H64.0258V41.577ZM66.2559 43.1013H63.2629C62.8521 43.1013 62.5 42.7495 62.5 42.3391V21.7607C62.5 21.3503 62.8521 20.9985 63.2629 20.9985H66.2559C66.6667 20.9985 67.0188 21.3503 67.0188 21.7607V42.3391C67.0188 42.7495 66.6667 43.1013 66.2559 43.1013Z" fill="#DB0011"/>
<path id="Vector_17" d="M72.007 41.577H73.4742V22.5229H72.007V41.577ZM74.2371 43.1013H71.2441C70.8333 43.1013 70.4812 42.7495 70.4812 42.3391V21.7607C70.4812 21.3503 70.8333 20.9985 71.2441 20.9985H74.2371C74.6479 20.9985 75 21.3503 75 21.7607V42.3391C75 42.7495 74.6479 43.1013 74.2371 43.1013Z" fill="#DB0011"/>
<path id="Vector_18" d="M13.3803 81.3853C12.3826 81.3853 11.6197 82.1475 11.6197 83.1441C11.6197 84.1408 12.3826 84.903 13.3803 84.903C14.3779 84.903 15.1409 84.1408 15.1409 83.1441C15.1409 82.1475 14.3779 81.3853 13.3803 81.3853ZM13.3803 86.4273C11.561 86.4273 10.0939 84.9616 10.0939 83.1441C10.0939 81.3267 11.561 79.861 13.3803 79.861C15.1995 79.861 16.6667 81.3267 16.6667 83.1441C16.6667 84.9616 15.1995 86.4273 13.3803 86.4273Z" fill="#DB0011"/>
<path id="Vector_19" d="M28.6972 81.3853C27.6995 81.3853 26.9366 82.1475 26.9366 83.1441C26.9366 84.1408 27.6995 84.903 28.6972 84.903C29.6948 84.903 30.4577 84.1408 30.4577 83.1441C30.4577 82.1475 29.6948 81.3853 28.6972 81.3853ZM28.6972 86.4273C26.8779 86.4273 25.4108 84.9616 25.4108 83.1441C25.4108 81.3267 26.8779 79.861 28.6972 79.861C30.5164 79.861 31.9836 81.3267 31.9836 83.1441C31.9836 84.9616 30.5164 86.4273 28.6972 86.4273Z" fill="#DB0011"/>
<path id="Vector_20" d="M44.0728 81.3853C43.0751 81.3853 42.3122 82.1475 42.3122 83.1441C42.3122 84.1408 43.0751 84.903 44.0728 84.903C45.0704 84.903 45.8333 84.1408 45.8333 83.1441C45.8333 82.1475 45.0704 81.3853 44.0728 81.3853ZM44.0728 86.4273C42.2535 86.4273 40.7277 84.9616 40.7277 83.1441C40.7277 81.3267 42.1948 79.861 44.0728 79.861C45.892 79.861 47.3591 81.3267 47.3591 83.1441C47.3591 84.9616 45.892 86.4273 44.0728 86.4273Z" fill="#DB0011"/>
</g>
</g>
<defs>
<clipPath id="clip0_0_207">
<rect width="75" height="94" fill="white"/>
</clipPath>
</defs>
</svg>
