<svg width="79" height="68" viewBox="0 0 79 68" fill="none" xmlns="http://www.w3.org/2000/svg">
<g id="&#208;&#176;&#208;&#186;&#209;&#131;-1 1" clip-path="url(#clip0_0_184)">
<g id="&#208;&#161;&#208;&#187;&#208;&#190;&#208;&#185;_x0020_1">
<path id="Vector" d="M74.7231 26.7421H4.23582C2.54972 26.7421 1.15149 25.3518 1.15149 23.6754C1.15149 21.9989 2.54972 20.6086 4.23582 20.6086H74.7231C76.4092 20.6086 77.8074 21.9989 77.8074 23.6754C77.8074 25.3518 76.4092 26.7421 74.7231 26.7421Z" stroke="#DB0011" stroke-width="1.80362" stroke-miterlimit="10"/>
<path id="Vector_2" d="M74.7231 66.8547H4.23582C2.54972 66.8547 1.15149 65.4645 1.15149 63.788C1.15149 62.1116 2.54972 60.7213 4.23582 60.7213H74.7231C76.4092 60.7213 77.8074 62.1116 77.8074 63.788C77.8074 65.4645 76.4092 66.8547 74.7231 66.8547Z" stroke="#DB0011" stroke-width="1.80362" stroke-miterlimit="10"/>
<path id="Vector_3" d="M73.1192 31.0764V56.3461" stroke="#DB0011" stroke-width="1.80362" stroke-miterlimit="10" stroke-linecap="round" stroke-linejoin="round"/>
<path id="Vector_4" d="M5.8808 56.3461V31.0764" stroke="#DB0011" stroke-width="1.80362" stroke-miterlimit="10" stroke-linecap="round" stroke-linejoin="round"/>
<path id="Vector_5" d="M8.47162 16.2744H19.0406" stroke="#DB0011" stroke-width="1.80362" stroke-miterlimit="10" stroke-linecap="round" stroke-linejoin="round"/>
<path id="Vector_6" d="M17.0666 16.2744H10.4456V12.0628C10.4456 11.4085 10.9802 10.9178 11.5971 10.9178H15.9152C16.532 10.9178 17.0666 11.4494 17.0666 12.0628V16.2744Z" stroke="#DB0011" stroke-width="1.80362" stroke-miterlimit="10" stroke-linecap="round" stroke-linejoin="round"/>
<path id="Vector_7" d="M59.9183 16.2744H70.5284" stroke="#DB0011" stroke-width="1.80362" stroke-miterlimit="10" stroke-linecap="round" stroke-linejoin="round"/>
<path id="Vector_8" d="M68.5133 16.2744H61.8922V12.0628C61.8922 11.4085 62.4269 10.9178 63.0437 10.9178H67.3618C68.0198 10.9178 68.5133 11.4494 68.5133 12.0628V16.2744Z" stroke="#DB0011" stroke-width="1.80362" stroke-miterlimit="10" stroke-linecap="round" stroke-linejoin="round"/>
<path id="Vector_9" d="M24.3868 16.2744H54.6132V12.6761H24.3868V16.2744Z" stroke="#DB0011" stroke-width="1.80362" stroke-miterlimit="10" stroke-linecap="round" stroke-linejoin="round"/>
<path id="Vector_10" d="M26.7309 8.34182V4.17109C26.7309 2.49462 28.088 1.14526 29.7741 1.14526H49.2259C50.912 1.14526 52.2691 2.49462 52.2691 4.17109V8.34182" stroke="#DB0011" stroke-width="1.80362" stroke-miterlimit="10" stroke-linecap="round" stroke-linejoin="round"/>
<path id="Vector_11" d="M11.3503 37.0872H19.0406" stroke="#DB0011" stroke-width="1.80362" stroke-miterlimit="10" stroke-linecap="round" stroke-linejoin="round"/>
<path id="Vector_12" d="M59.9183 37.0872H67.6497" stroke="#DB0011" stroke-width="1.80362" stroke-miterlimit="10" stroke-linecap="round" stroke-linejoin="round"/>
<path id="Vector_13" d="M63.784 33.2435V40.8899" stroke="#DB0011" stroke-width="1.80362" stroke-miterlimit="10" stroke-linecap="round" stroke-linejoin="round"/>
<path id="Vector_14" d="M44.8667 42.4437H40.9188V31.8942L34.1333 45.0197H38.0812V55.5692L44.8667 42.4437Z" stroke="#DB0011" stroke-width="1.80362" stroke-miterlimit="10" stroke-linecap="round" stroke-linejoin="round"/>
</g>
</g>
<defs>
<clipPath id="clip0_0_184">
<rect width="79" height="68" fill="white"/>
</clipPath>
</defs>
</svg>
