<svg width="85" height="85" viewBox="0 0 85 85" fill="none" xmlns="http://www.w3.org/2000/svg">
<g id="&#209;&#130;&#208;&#181;&#209;&#133;&#208;&#189;&#208;&#190;&#208;&#187;&#208;&#190;&#208;&#179;&#208;&#184;&#209;&#143; 1" clip-path="url(#clip0_0_252)">
<g id="&#208;&#161;&#208;&#187;&#208;&#190;&#208;&#185;_x0020_1">
<path id="Vector" fill-rule="evenodd" clip-rule="evenodd" d="M54.4894 19.9509C55.5208 19.9509 56.3802 20.8099 56.3802 21.8407C56.3802 22.8715 55.5208 23.7305 54.4894 23.7305C53.4581 23.7305 52.5986 22.8715 52.5986 21.8407C52.5986 20.8099 53.4581 19.9509 54.4894 19.9509ZM54.4894 24.5896C55.9505 24.5896 57.2397 23.3869 57.2397 21.8407C57.2397 20.3804 56.0364 19.0919 54.4894 19.0919C53.0283 19.0919 51.7392 20.2945 51.7392 21.8407C51.7392 23.301 52.9424 24.5896 54.4894 24.5896ZM27.3307 22.6997C28.5339 22.6997 29.5652 23.7305 29.5652 24.9332C29.5652 26.1358 28.5339 27.1666 27.3307 27.1666C26.1274 27.1666 25.0961 26.1358 25.0961 24.9332C25.0961 23.7305 26.1274 22.6997 27.3307 22.6997ZM27.3307 27.9397C28.9636 27.9397 30.3388 26.5653 30.3388 24.9332C30.3388 23.301 28.9636 21.9266 27.3307 21.9266C25.6977 21.9266 24.3226 23.301 24.3226 24.9332C24.3226 26.5653 25.6977 27.9397 27.3307 27.9397ZM64.545 64.9632C64.545 65.9941 63.6856 66.8531 62.6542 66.8531C61.6229 66.8531 60.7634 65.9941 60.7634 64.9632C60.7634 63.9324 61.6229 63.0734 62.6542 63.0734C63.6856 63.0734 64.545 63.9324 64.545 64.9632ZM59.904 64.5337H49.0749C48.817 64.5337 48.6451 64.7055 48.6451 64.9632C48.6451 65.2209 48.817 65.3928 49.0749 65.3928H59.904C60.0759 66.6813 61.1932 67.7121 62.5683 67.7121C64.0294 67.7121 65.3185 66.5095 65.3185 64.9632C65.3185 63.5029 64.1153 62.2144 62.5683 62.2144C61.1932 62.2144 60.0759 63.2452 59.904 64.5337ZM46.1527 64.9632C46.1527 65.9082 45.3792 66.7672 44.3479 66.7672C43.4025 66.7672 42.543 65.9941 42.543 64.9632C42.543 64.0183 43.3165 63.1593 44.3479 63.1593C45.2933 63.1593 46.1527 63.9324 46.1527 64.9632ZM41.7695 64.5337H30.9404C30.6825 64.5337 30.5106 64.7055 30.5106 64.9632C30.5106 65.2209 30.6825 65.3928 30.9404 65.3928H41.7695C41.9414 66.5954 43.0587 67.6262 44.3479 67.6262C45.8089 67.6262 46.9262 66.4236 46.9262 65.0491C46.9262 63.5888 45.723 62.4721 44.3479 62.4721C43.0587 62.4721 41.9414 63.417 41.7695 64.7055V64.5337ZM27.9323 64.9632C27.9323 65.9941 27.0728 66.8531 26.0415 66.8531C25.0101 66.8531 24.1507 65.9941 24.1507 64.9632C24.1507 63.9324 25.0101 63.0734 26.0415 63.0734C27.0728 63.0734 27.9323 63.9324 27.9323 64.9632ZM23.2912 64.9632C23.2912 66.4236 24.4945 67.7121 26.0415 67.7121C27.5026 67.7121 28.7917 66.5095 28.7917 64.9632C28.7917 63.5029 27.5885 62.2144 26.0415 62.2144C24.5804 62.2144 23.2912 63.417 23.2912 64.9632ZM29.1355 55.9436H21.9161C21.7442 55.9436 21.5723 56.0295 21.4864 56.2013L20.541 59.2078H16.9313V52.7652H34.0344V59.2078H30.4247L29.4793 56.2013C29.3934 56.0295 29.3074 55.9436 29.0496 55.9436H29.1355ZM18.8221 49.7587H32.1436V51.9062H18.8221V49.7587ZM22.8615 28.541C23.8928 29.8295 25.5258 30.6027 27.3307 30.6027C28.362 30.6027 29.3934 30.345 30.2528 29.8295L30.8544 48.8997H20.1972L22.8615 28.541ZM27.3307 19.9509C30.0809 19.9509 32.2295 22.1843 32.2295 24.8473C32.2295 27.5961 29.995 29.7436 27.3307 29.7436C24.5804 29.7436 22.4318 27.5102 22.4318 24.8473C22.4318 22.0984 24.6664 19.9509 27.3307 19.9509ZM50.1921 19.0919C49.6765 19.865 49.4186 20.8099 49.4186 21.8407C49.4186 22.9574 49.7624 23.9882 50.364 24.7614L32.6593 27.2525C33.0031 26.5653 33.1749 25.7063 33.1749 24.8473C33.1749 22.8715 32.2295 21.2394 30.7685 20.1227L50.2781 19.006L50.1921 19.0919ZM54.4894 17.5456C56.8959 17.5456 58.7867 19.4355 58.7867 21.8407C58.7867 24.2459 56.8959 26.1358 54.4894 26.1358C52.0829 26.1358 50.1921 24.2459 50.1921 21.8407C50.1921 19.4355 52.0829 17.5456 54.4894 17.5456ZM56.1224 34.1246H53.2002L52.6846 26.6512C53.2002 26.823 53.8018 26.9948 54.4894 26.9948C55.2629 26.9948 55.9505 26.823 56.638 26.5653L56.1224 34.1246ZM56.5521 41.8558H53.0283L51.4813 34.9836H58.1851L56.638 41.8558H56.5521ZM64.2012 40.9967L61.5369 47.5252H59.6461L60.6775 42.9725C60.6775 42.8007 60.5915 42.6289 60.5056 42.543L57.6694 40.9967L58.6148 36.9594L64.2872 41.0826L64.2012 40.9967ZM48.903 42.9725L50.8797 52.078H49.8484L45.3792 40.9967L51.0516 36.8735L51.997 40.9108L49.1608 42.4571C48.9889 42.543 48.903 42.7148 48.9889 42.8866L48.903 42.9725ZM34.4641 51.9921H33.0031V49.4151C33.0031 49.1574 32.8312 48.9856 32.5733 48.9856H31.6279L30.9404 29.3141C31.3701 28.9705 31.7139 28.6269 31.9717 28.1974L50.8797 25.5345C51.1375 25.7922 51.4813 26.0499 51.8251 26.2217L52.3408 34.0387H50.7938C50.7078 34.0387 50.5359 34.1246 50.45 34.2105C50.364 34.2964 50.364 34.4682 50.364 34.5541L50.7078 35.9285L44.5197 40.3954C44.3479 40.4813 44.3479 40.739 44.3479 40.9108L47.0122 47.4393H45.4651C45.2073 47.4393 45.0354 47.6112 45.0354 47.8689V59.2078H34.8079V52.3357C34.8079 52.078 34.636 51.9062 34.3782 51.9062L34.4641 51.9921ZM63.5137 54.8269H54.9191C54.6613 54.8269 54.4894 54.9987 54.4894 55.2564C54.4894 55.5141 54.6613 55.6859 54.9191 55.6859H63.5137V56.9744H57.1537C56.8959 56.9744 56.724 57.1462 56.724 57.4039C56.724 57.6616 56.8959 57.8334 57.1537 57.8334H63.5137V59.2938H45.8949V48.3843H47.3559L49.0749 52.6793C49.1608 52.8511 49.2467 52.937 49.4186 52.937H51.3094C51.3954 52.937 51.5673 52.8511 51.6532 52.7652C51.7392 52.6793 51.7392 52.5075 51.7392 52.4216L49.6765 43.1443L52.0829 41.8558L52.1689 42.3712C52.1689 42.543 52.3408 42.7148 52.5986 42.7148H56.724C56.8959 42.7148 57.0678 42.543 57.1537 42.3712L57.2397 41.8558L59.6461 43.1443L58.7007 47.6111H52.4267C52.1689 47.6111 51.997 47.783 51.997 48.0407C51.997 48.2984 52.1689 48.4702 52.4267 48.4702H63.4277V54.9987L63.5137 54.8269ZM70.819 59.6374C70.819 59.3797 70.6471 59.2078 70.3893 59.2078H64.2872V47.8689C64.2872 47.6112 64.1153 47.4393 63.8575 47.4393H62.3104L64.9747 40.9108C65.0607 40.739 64.9747 40.5672 64.8029 40.3954L58.6148 35.9285L58.9586 34.5541C58.9586 34.4682 58.9586 34.2964 58.8726 34.2105C58.7867 34.1246 58.7007 34.0387 58.5288 34.0387H56.8959L57.4116 25.964C58.7007 25.0191 59.5602 23.4728 59.5602 21.7548C59.5602 18.9201 57.2397 16.6007 54.4035 16.6007C52.9424 16.6007 51.6532 17.202 50.7938 18.1469L29.1355 19.3496C28.5339 19.1778 27.9323 19.006 27.2447 19.006C24.0647 19.006 21.4864 21.583 21.4864 24.7614C21.4864 25.7063 21.7442 26.5653 22.088 27.3384L19.2518 48.8138H18.3064C18.0486 48.8138 17.8767 48.9856 17.8767 49.2433V51.8203H16.4156C16.1578 51.8203 15.9859 51.9921 15.9859 52.2498V59.1219H14.4389C14.181 59.1219 14.0091 59.2937 14.0091 59.5515C14.0091 59.8092 14.181 59.981 14.4389 59.981H20.7129C20.7129 59.981 20.7129 59.981 20.7988 59.981V59.8951L21.7442 56.8885H28.362L29.3074 59.8951V59.981C29.3074 59.981 29.3074 59.981 29.3074 60.0669C29.3074 60.0669 29.3074 60.0669 29.3934 60.0669C29.3934 60.0669 29.3934 60.0669 29.4793 60.0669C29.4793 60.0669 29.4793 60.0669 29.5652 60.0669C29.5652 60.0669 29.5652 60.0669 29.6512 60.0669H69.8736C70.1315 60.0669 70.3034 59.8951 70.3034 59.6374H70.819ZM70.1315 19.4355C69.6158 19.6932 69.1001 19.6932 68.5845 19.5214C68.0688 19.3496 67.6391 19.006 67.3812 18.4905C67.1234 17.9751 67.1234 17.4597 67.2953 16.9443C67.4672 16.4289 67.811 15.9994 68.3266 15.7417C68.5845 15.5699 68.9282 15.484 69.272 15.484C69.4439 15.484 69.7018 15.484 69.8736 15.5699C70.3893 15.7417 70.819 16.0853 71.0769 16.6007C71.3347 17.1161 71.3347 17.6315 71.1628 18.1469C70.9909 18.6624 70.6471 19.0919 70.1315 19.3496V19.4355ZM71.9363 18.4905C72.1942 17.8033 72.1082 17.0302 71.7644 16.343C71.4207 15.6558 70.819 15.1404 70.1315 14.8827C69.4439 14.625 68.6704 14.7109 67.9828 15.0545C67.811 15.1404 67.725 15.2263 67.5531 15.3122C56.2943 4.91812 39.5349 2.59878 25.8696 9.5568C11.1729 17.0302 3.18 33.5233 6.44593 49.7587C6.53187 50.2741 6.70377 50.7895 6.78971 51.3049C7.47727 53.9679 8.42267 56.6308 9.71185 59.1219C9.7978 59.2938 9.96969 59.3797 10.0556 59.3797C10.1416 59.3797 10.1416 59.3797 10.2275 59.2938C10.3994 59.2078 10.4854 58.9501 10.3994 58.7783C9.19618 56.3731 8.16484 53.7961 7.56322 51.1331C7.47727 50.6177 7.30538 50.1023 7.21944 49.5869C4.03946 33.781 11.8605 17.6315 26.2134 10.3299C39.6209 3.54369 55.9505 5.77713 66.9515 15.9135C66.7796 16.1712 66.6077 16.4289 66.5218 16.7725C66.2639 17.4597 66.3499 18.2328 66.6937 18.9201C67.0374 19.6073 67.6391 20.1227 68.3266 20.3804C68.5845 20.4663 68.9282 20.5522 69.1861 20.5522C69.6158 20.5522 70.0455 20.4663 70.4753 20.2086C71.1628 19.865 71.6785 19.2637 71.9363 18.5765V18.4905ZM15.4702 69.516C14.4389 69.1724 13.8372 67.9698 14.181 66.939C14.3529 66.4236 14.6967 65.9941 15.2124 65.7364C15.4702 65.5646 15.814 65.4787 16.1578 65.4787C16.3297 65.4787 16.5875 65.4787 16.7594 65.5646C17.2751 65.7364 17.7048 66.08 17.9626 66.5954C18.2204 67.1108 18.2204 67.6262 18.0486 68.1416C17.7048 69.1724 16.5875 69.7737 15.4702 69.4301V69.516ZM78.6401 35.0695C78.5541 34.5541 78.3822 34.0387 78.2963 33.5233C77.6087 30.8604 76.6633 28.1974 75.3741 25.7063C75.2882 25.5345 75.0304 25.4486 74.8585 25.5345C74.6866 25.6204 74.6006 25.8781 74.6866 26.0499C75.8898 28.4551 76.9212 31.0322 77.5228 33.6951C77.6947 34.2105 77.7806 34.7259 77.8666 35.2413C81.0465 51.0472 73.3115 67.1967 58.8726 74.4983C45.637 81.1986 29.4793 79.0511 18.4783 69.2583C18.6502 69.0006 18.8221 68.7429 18.908 68.4852C19.1658 67.798 19.0799 67.0249 18.7361 66.3377C18.3923 65.6505 17.7907 65.135 17.1032 64.8773C15.6421 64.3619 14.0091 65.221 13.4935 66.6813C12.9778 68.1416 13.8372 69.7737 15.2983 70.2891C15.5561 70.375 15.8999 70.4609 16.1578 70.4609C16.7594 70.4609 17.4469 70.2032 17.8767 69.8596C24.7523 76.0445 33.6047 79.2229 42.543 79.2229C48.2154 79.2229 53.9737 77.9344 59.2164 75.2714C73.9131 67.798 81.906 51.219 78.6401 35.0695ZM73.3974 73.5534C73.2255 74.0688 72.8817 74.4983 72.3661 74.756C71.8504 75.0137 71.3347 75.0137 70.819 74.8419C70.3034 74.6701 69.8736 74.3265 69.6158 73.8111C69.358 73.2957 69.358 72.7803 69.5299 72.2649C69.7877 71.4059 70.6471 70.8904 71.4207 70.8904C71.5926 70.8904 71.8504 70.8904 72.0223 70.9763C72.5379 71.1481 72.9677 71.4918 73.2255 72.0072C73.4834 72.5226 73.4833 73.038 73.3115 73.5534H73.3974ZM73.7412 71.234C85.7735 58.2629 88.4379 38.9351 80.359 23.2151C71.6785 6.29254 52.6846 -2.98482 34.0344 0.880748C33.5187 0.966649 32.9171 1.13845 32.2295 1.31026C29.1355 2.08337 26.1274 3.20009 23.2053 4.66041C22.6037 5.00402 21.9161 5.34762 21.4004 5.69123C21.2285 5.77713 21.1426 6.03484 21.2285 6.20664C21.3145 6.37844 21.5723 6.46434 21.7442 6.37844C22.3458 6.03484 22.9474 5.69123 23.5491 5.43353C26.3853 3.9732 29.3074 2.85648 32.4014 2.16927C33.089 1.99747 33.6906 1.91157 34.2063 1.73976C52.5127 -1.954 71.1628 7.06565 79.6714 23.6446C87.5784 39.1069 84.9141 58.0052 73.2255 70.7186C72.9677 70.5468 72.7098 70.375 72.452 70.2891C70.9909 69.7737 69.358 70.6327 68.8423 72.0931C68.5845 72.7803 68.6704 73.5534 69.0142 74.2406C69.358 74.9278 69.9596 75.4432 70.6471 75.615C70.905 75.7009 71.2488 75.7868 71.5066 75.7868C71.9363 75.7868 72.3661 75.7009 72.7958 75.4432C73.4833 75.0996 73.999 74.4983 74.1709 73.8111C74.4287 73.1239 74.3428 72.3508 73.999 71.6636C73.9131 71.4918 73.8271 71.4059 73.7412 71.234ZM11.9464 10.9312C12.1183 10.4158 12.4621 9.9863 12.9778 9.7286C13.2356 9.5568 13.5794 9.47089 13.9232 9.47089C14.0951 9.47089 14.3529 9.47089 14.5248 9.5568C15.0405 9.7286 15.4702 10.0722 15.728 10.5876C15.9859 11.103 15.9859 11.6184 15.814 12.1338C15.6421 12.6492 15.2983 13.0788 14.7826 13.3365C14.267 13.5942 13.7513 13.5942 13.2356 13.4224C12.7199 13.2506 12.2902 12.907 12.0324 12.3915C11.7745 11.8761 11.7745 11.3607 11.9464 10.8453V10.9312ZM63.2558 78.5357C62.6542 78.8793 62.0526 79.2229 61.451 79.4806C58.6148 80.9409 55.6926 82.0576 52.5986 82.8307C51.997 83.0026 51.3954 83.0884 50.7938 83.2603C32.4874 86.954 13.8372 77.9344 5.32864 61.2695C-2.66428 45.6354 0.0859693 26.5653 12.1183 13.8519C12.3762 14.0237 12.634 14.1955 12.9778 14.2814C13.2356 14.3673 13.5794 14.4532 13.8372 14.4532C14.267 14.4532 14.6967 14.3673 15.1264 14.1096C15.814 13.766 16.3297 13.1647 16.5015 12.4774C16.7594 11.7902 16.6734 11.0171 16.3297 10.3299C15.9859 9.6427 15.3843 9.12729 14.6967 8.95549C14.0091 8.69778 13.2356 8.78368 12.5481 9.12729C11.8605 9.47089 11.3448 10.0722 11.1729 10.7594C10.9151 11.4466 11.001 12.2197 11.3448 12.907C11.4308 13.0788 11.5167 13.1647 11.6027 13.3365C-0.687539 26.3935 -3.43779 45.8072 4.64108 61.7849C11.9464 76.2163 26.815 84.9783 42.543 84.9783C45.2933 84.9783 48.1294 84.7206 50.9656 84.1193C51.5673 84.0334 52.1689 83.8616 52.7705 83.6898C55.8645 82.9166 58.8726 81.7999 61.7948 80.3396C62.3964 79.996 62.998 79.6524 63.5996 79.3088C63.7715 79.2229 63.8575 78.9652 63.7715 78.7934C63.6856 78.6216 63.4277 78.5357 63.2558 78.6216V78.5357Z" fill="#DB0011"/>
</g>
</g>
<defs>
<clipPath id="clip0_0_252">
<rect width="85" height="85" fill="white"/>
</clipPath>
</defs>
</svg>
