<svg width="104" height="73" viewBox="0 0 104 73" fill="none" xmlns="http://www.w3.org/2000/svg">
<g id="&#208;&#151;&#208;&#176;&#208;&#188;&#208;&#181;&#208;&#189;&#208;&#176; &#208;&#176;&#208;&#186;&#208;&#186;&#209;&#131;&#208;&#188; 1" clip-path="url(#clip0_0_156)">
<g id="&#208;&#161;&#208;&#187;&#208;&#190;&#208;&#185;_x0020_1">
<path id="Vector" d="M83.298 28.3155C83.0828 28.5612 83.1443 28.7762 83.4824 28.9604L83.6977 29.0833C85.7268 27.3942 87.8482 25.4594 90.6767 23.8317C91.2301 23.5246 91.7527 23.2175 92.2754 22.9718L92.3061 22.9411C93.0133 22.6033 93.7204 22.3576 94.5812 22.2962C95.2269 22.2347 96.4567 22.4804 96.4567 23.4939C96.4567 24.6916 96.3029 26.1965 96.18 27.3635C95.9955 29.1754 94.8887 28.7455 93.9971 28.2848C93.5052 28.0391 93.0748 27.7934 92.8595 27.9163C92.1524 28.4384 94.4583 29.2675 94.8579 29.8511C97.5635 29.8511 100.638 29.7896 103.989 29.7282V62.6197H77.2413V62.5583C77.518 61.2991 77.6717 60.0092 77.6717 58.658C77.6717 48.8919 69.7396 40.9684 59.9628 40.9684C50.1861 40.9684 42.254 48.9226 42.254 58.658C42.254 60.0092 42.4077 61.2991 42.7151 62.5583V62.589H42.6844L42.7151 62.6197H34.0452C32.4157 62.6197 31.9545 62.6197 30.94 62.5275C30.4788 62.5275 29.9254 62.4968 29.0953 62.4354C28.6956 62.4047 28.2344 62.374 27.6503 62.374C27.4043 62.3433 27.0662 62.3433 26.7587 62.3126C26.0516 62.2819 25.4367 62.159 24.9448 62.0055L24.6988 61.9133L24.4221 61.7598C24.2377 61.6983 24.0532 61.6062 23.8995 61.4834C23.6228 61.2991 23.469 61.1148 23.3153 60.8384C23.2231 60.6849 23.1309 60.5006 23.1001 60.3163C22.9464 59.7635 23.0079 59.18 23.1616 58.7194L23.2231 58.5044L23.2846 58.3508L23.4076 58.013L23.5613 57.6445L23.6535 57.5524V57.5217L23.7457 57.4295V57.3988L23.8995 57.0917C23.961 56.9381 24.0532 56.7846 24.1147 56.6003C24.1762 56.4161 24.2684 56.2318 24.2991 56.0782C24.3914 55.8018 24.4221 55.5562 24.4221 55.3412C24.4221 53.9899 24.4221 52.7307 24.4221 51.5944C24.4221 51.2259 24.4529 50.8574 24.4529 50.4888V50.151C24.4529 49.9053 24.4529 49.7211 24.4836 49.4754V49.3832C24.4836 49.1068 24.5144 48.7997 24.5144 48.554C24.5144 48.2469 24.5144 47.9398 24.5758 47.6634C24.5758 47.4177 24.6066 47.1106 24.6373 46.8649C24.6373 46.6193 24.6681 46.3429 24.6988 46.0972C24.7296 45.8822 24.7603 45.6365 24.7603 45.4215C24.8218 45.053 24.8218 44.7152 24.8833 44.3773C27.5273 44.4695 30.2328 44.623 32.7232 44.101C36.0743 43.3025 37.0274 40.5999 37.796 37.5595C34.5986 37.3138 31.2782 37.3445 28.0192 37.3752C28.2959 37.0067 28.6034 36.5768 28.9416 36.0854C29.1568 35.7783 28.8801 35.9625 29.2183 35.809L29.372 35.7169L37.5193 35.2562H37.8882L38.3802 35.2255H38.4109L74.2283 33.1986L76.5342 33.045L74.2283 33.1678L46.6504 7.98484L45.8818 7.27849L37.8575 -0.0307276C44.2216 -0.245704 68.4176 22.7261 76.5649 27.9777H76.5342V28.1005L76.5649 27.9777C77.1798 27.8241 77.641 27.6706 78.0099 27.517C80.3158 26.565 94.243 19.1943 104.051 14.7413V16.9524C95.8418 20.5149 85.6653 25.5208 83.3287 28.2848L83.298 28.3155Z" fill="#FF0000"/>
<path id="Vector_2" d="M76.5034 28.0084L76.4727 28.1313V28.0084H76.5034Z" fill="#575757"/>
<path id="Vector_3" d="M27.0047 43.1489C26.3898 43.1489 25.7749 43.1489 25.1292 43.1182C25.5904 41.3983 26.2668 40.3849 27.4351 38.7879C28.3882 38.7879 29.3412 38.7572 30.3251 38.7572C32.1697 38.7572 33.7377 38.7879 35.152 38.8493C34.3526 41.0912 33.3995 42.289 31.4011 42.7496C30.2328 42.9953 28.8186 43.1182 27.0354 43.1182L27.0047 43.1489Z" fill="#E9F989"/>
<path id="Vector_4" d="M68.6636 67.3491L67.6797 68.2397L67.5875 68.3011C67.4338 68.4547 67.1263 68.639 66.8804 68.8232L65.7736 69.4682C63.9904 70.4202 62.0535 70.9116 60.0551 70.9116C58.0259 70.9116 56.1505 70.4202 54.3981 69.4989C54.0291 69.3146 53.6295 69.0996 53.2605 68.8539C52.9838 68.6697 52.6764 68.4547 52.3997 68.2397L51.4773 67.4105C50.1246 66.09 49.1407 64.5544 48.5259 62.8346C48.0339 61.4526 47.788 60.0706 47.788 58.6579C47.788 57.9823 47.8495 57.2759 47.9725 56.5695C48.0339 56.1703 48.1262 55.7404 48.2799 55.2797C48.3414 55.0033 48.4644 54.6348 48.5566 54.3276C48.7103 53.9284 48.8948 53.4984 49.11 53.1299C50.8932 49.5982 54.3366 47.1106 58.2411 46.5271C58.6716 46.4349 59.102 46.4042 59.5324 46.4042C59.6861 46.3735 59.8399 46.3735 60.0551 46.3735C60.2703 46.3735 60.4548 46.3735 60.67 46.4042C61.0389 46.4349 61.4693 46.4349 61.8997 46.5271C65.8351 47.1106 69.2477 49.5982 71.0309 53.1606C71.2154 53.4677 71.3998 53.867 71.5843 54.3584C71.7073 54.6655 71.8302 55.034 71.9225 55.3718C72.0455 55.7404 72.1377 56.1703 72.1992 56.6003C72.3222 57.2452 72.3836 57.9208 72.3836 58.6579C72.3836 60.1013 72.1377 61.514 71.6458 62.8346C71.0001 64.5544 70.0163 66.1207 68.725 67.3798L68.6636 67.3491ZM60.0551 44.2852C52.123 44.2852 45.6974 50.7038 45.6974 58.6272C45.6974 66.5506 52.1537 72.9692 60.0551 72.9692C67.9564 72.9692 74.4128 66.5199 74.4128 58.6272C74.4128 50.7038 67.9564 44.2852 60.0551 44.2852Z" fill="#DB0011"/>
<path id="Vector_5" d="M69.8319 62.5582C69.3092 63.8174 68.5713 65.0151 67.526 66.0286L65.0357 62.5582L64.5131 61.8212L63.2833 60.1628L62.8221 59.4871L63.5907 59.2414L65.5584 58.5965L70.4468 56.9995C70.539 57.5523 70.6005 58.0744 70.6005 58.6272C70.6005 59.9785 70.3238 61.2991 69.8319 62.5275V62.5582ZM66.5729 66.8885C66.3885 67.042 66.1425 67.2263 65.8658 67.3798L65.8351 67.4106L62.2994 62.5582L61.7153 61.7597L61.0082 60.7463L61.0697 60.6848C61.3156 60.562 61.5308 60.4085 61.746 60.1935L61.8075 60.1321L62.5454 61.1455L63.5292 62.4968L66.6344 66.7963L66.5729 66.827V66.8885ZM60.0243 69.1611C58.3641 69.1611 56.7347 68.7925 55.2897 68.0248L58.3334 63.8174L59.2557 62.5582L59.5324 62.159L60.0551 61.4833L60.547 62.159L60.8237 62.5275L61.746 63.7867L64.7898 67.9941C63.3448 68.7618 61.746 69.1304 60.0243 69.1304V69.1611ZM54.2444 67.4413V67.4106C53.9677 67.2263 53.7217 67.042 53.4757 66.8578L53.445 66.827L56.5502 62.5275L57.5648 61.1762L58.3026 60.1321L58.3334 60.1628C58.5179 60.3777 58.7331 60.562 59.0098 60.6848L59.0713 60.7156L58.3334 61.7597L57.7492 62.5275L54.2136 67.4106L54.2444 67.4413ZM52.5534 66.0286C51.5388 65.0151 50.7702 63.8481 50.2476 62.5582C49.7557 61.3298 49.479 60.0092 49.479 58.6579C49.479 58.1051 49.5097 57.5523 49.6327 56.9995L54.5518 58.5965L56.5195 59.2414L57.2881 59.4871L56.7962 60.1628L55.5971 61.8212L55.0437 62.5582L52.5227 66.0286H52.5534ZM49.8786 55.8018C49.9709 55.5254 50.0631 55.2183 50.1553 54.9726L50.1861 54.8805L56.7962 57.0302L58.0567 57.4295V57.4602C57.903 57.7366 57.8107 58.0437 57.7492 58.3508V58.3815L56.5195 57.9516L49.8786 55.8018ZM58.3334 48.2469V56.2625L57.5648 56.0168L55.5971 55.3719L50.678 53.7749C52.246 50.8266 55.0745 48.769 58.3334 48.2469ZM60.0243 57.583C60.6085 57.583 61.0697 58.0437 61.0697 58.6272C61.0697 59.2107 60.6085 59.6714 60.0243 59.6714C59.4402 59.6714 58.979 59.2107 58.979 58.6272C58.979 58.0437 59.4402 57.583 60.0243 57.583ZM59.5632 48.1241C59.7476 48.0933 59.8399 48.0933 59.9629 48.0933H60.424L60.547 48.1241V56.3546H60.5163C60.3625 56.3239 60.2088 56.3239 60.0858 56.3239C59.9321 56.3239 59.7476 56.3546 59.5939 56.3546H59.5632V48.1241ZM61.7153 48.2469C64.9742 48.769 67.8027 50.8266 69.3399 53.7749L64.4823 55.3719L62.5147 56.0168L61.7153 56.2625V48.2469ZM69.8626 54.9419C69.9548 55.2183 70.0778 55.4947 70.1393 55.7711V55.8325L63.5292 57.9823L62.3302 58.3815V58.3201C62.2994 58.013 62.1765 57.7366 62.0535 57.4909L62.0227 57.4295L63.2525 57.061L69.8626 54.9112L69.8933 54.9726L69.8626 54.9419ZM71.3383 56.6924C71.2769 56.2932 71.1846 55.8939 71.0616 55.5254C70.9694 55.2183 70.8772 54.8805 70.7542 54.5734C70.6005 54.2048 70.4468 53.8363 70.2315 53.4678C68.6021 50.2124 65.4354 47.8169 61.6845 47.2642C61.2849 47.2027 60.8852 47.172 60.4855 47.1413C60.301 47.1106 60.1473 47.1106 59.9629 47.1106C59.8091 47.1106 59.6554 47.1106 59.4709 47.1413C59.0713 47.172 58.6716 47.172 58.2719 47.2642C54.5211 47.8169 51.3851 50.1817 49.7249 53.4678C49.5404 53.8056 49.356 54.2048 49.2023 54.5734C49.0793 54.8498 48.987 55.1876 48.9256 55.4947C48.8026 55.8632 48.7103 56.2625 48.6489 56.6924C48.5259 57.3066 48.4644 57.9516 48.4644 58.6272C48.4644 59.9785 48.7103 61.2991 49.1715 62.5275C49.7557 64.1552 50.7087 65.5986 51.9078 66.7963L52.8301 67.5948C53.0761 67.8098 53.3528 67.9941 53.6295 68.1783C53.9677 68.3933 54.3059 68.639 54.6748 68.7925C56.2735 69.6217 58.0567 70.0824 59.9629 70.0824C61.8998 70.0824 63.7137 69.591 65.2817 68.7618L66.3577 68.1476C66.6037 67.9634 66.8804 67.7791 67.1263 67.5641L67.1571 67.5334L67.9872 66.7963L68.0487 66.7349C69.2477 65.5679 70.2008 64.0938 70.7849 62.4968C71.2461 61.2684 71.4613 59.9478 71.4613 58.5965C71.4613 57.9209 71.3998 57.3066 71.3076 56.6617L71.3383 56.6924Z" fill="#8D8D8B"/>
<path id="Vector_6" d="M76.5034 28.0084L76.4727 28.1313V28.0084H76.5034Z" fill="#575757"/>
<path id="Vector_7" d="M46.097 9.73541L38.8721 33.6285L37.8575 33.69L45.3284 9.02905L45.5436 9.21332L46.097 9.73541Z" fill="#AFAFAF"/>
<path id="Vector_8" d="M42.7459 62.5889H34.0759H42.7766L42.7459 62.5582H42.7766V62.5275C42.4692 61.2684 42.3155 59.9785 42.3155 58.6272C42.3155 48.8611 50.2476 40.9377 60.0243 40.9377C60.4855 40.9377 60.9467 40.9684 61.4078 40.9991C60.9467 40.9684 60.5163 40.9377 60.0551 40.9377C50.2783 40.9377 42.3462 48.8918 42.3462 58.6272C42.3462 59.9785 42.4999 61.2684 42.8074 62.5275V62.5582H42.7766L42.8074 62.5889H42.7459ZM30.94 62.4968C30.4788 62.4968 29.9254 62.4661 29.0953 62.4047C28.6956 62.374 28.2345 62.3432 27.6503 62.3432C27.4043 62.3125 27.0662 62.3125 26.7587 62.2818C26.2975 62.2511 25.8979 62.1897 25.5289 62.1283C25.8979 62.1897 26.2975 62.2511 26.728 62.2818C27.0354 62.3125 27.3736 62.3125 27.6196 62.3432C28.173 62.374 28.6341 62.4047 29.0646 62.4047C29.8639 62.4661 30.4173 62.4968 30.9092 62.4968H30.94ZM31.3397 37.4059C30.2021 37.4059 29.0953 37.4059 27.9885 37.4366C29.0953 37.4366 30.2328 37.4059 31.3397 37.4059ZM74.1668 33.1985L76.4727 33.0757L76.073 33.1064L74.1976 33.1985H74.1668Z" fill="#C68B3B"/>
<path id="Vector_9" d="M27.0047 43.1489C27.4043 43.1489 27.7733 43.1489 28.1422 43.1182C27.7733 43.1182 27.4043 43.1489 27.0047 43.1489ZM33.4303 41.7362C34.1681 41.0606 34.6601 40.1392 35.1212 38.8494C34.6601 40.1085 34.1681 41.0606 33.4303 41.7362ZM25.8364 41.2141C26.2053 40.5078 26.6665 39.8321 27.2199 39.0337C26.6357 39.8321 26.1746 40.5078 25.8364 41.2141ZM34.906 38.8494C33.5533 38.8187 32.0775 38.788 30.2943 38.788C29.3412 38.788 28.3574 38.788 27.4043 38.8187C28.3574 38.8187 29.3105 38.788 30.2943 38.788C32.0468 38.788 33.5533 38.8187 34.906 38.8801V38.8494Z" fill="#C9CFCF"/>
<path id="Vector_10" d="M60.0551 73C58.8868 73 57.7492 72.8772 56.6732 72.6008C57.7492 72.8465 58.8868 73 60.0243 73C67.9257 73 74.382 66.5507 74.382 58.658C74.382 66.5814 67.9257 73 60.0243 73H60.0551Z" fill="#485B6E"/>
</g>
<path id="Vector_11" d="M31.42 18.9583C31.42 18.7968 31.5543 18.6646 31.7185 18.6646H32.9345V17.4679C32.9345 17.3064 33.0688 17.1743 33.2329 17.1743C33.397 17.1743 33.5313 17.3064 33.5313 17.4679V18.6646H34.7473C34.9114 18.6646 35.0457 18.7968 35.0457 18.9583C35.0457 19.1198 34.9114 19.2519 34.7473 19.2519H33.5313V20.4486C33.5313 20.6101 33.397 20.7423 33.2329 20.7423C33.0688 20.7423 32.9345 20.6101 32.9345 20.4486V19.2519H31.7185C31.5543 19.2519 31.42 19.1198 31.42 18.9583ZM17.9319 18.9583C17.9319 18.7968 18.0662 18.6646 18.2303 18.6646H21.2666C21.4307 18.6646 21.565 18.7968 21.565 18.9583C21.565 19.1198 21.4307 19.2519 21.2666 19.2519H18.2303C18.0662 19.2519 17.9319 19.1198 17.9319 18.9583ZM27.3318 19.3914L26.7425 22.1372C26.7201 22.2253 26.7425 22.3134 26.8021 22.3794C26.8618 22.4455 26.9439 22.4896 27.0334 22.4896H28.5851L25.6458 26.2044L26.2352 23.4587C26.2501 23.3706 26.2352 23.2825 26.1755 23.2164C26.1158 23.1503 26.0337 23.1063 25.9442 23.1063H24.3925L27.3318 19.3914ZM23.7807 23.6936H25.5787L24.7953 27.3277C24.7655 27.4598 24.8326 27.5993 24.9595 27.658C24.9968 27.6801 25.0415 27.6874 25.0863 27.6874C25.1758 27.6874 25.2653 27.6507 25.325 27.5773L29.4356 22.3868C29.5028 22.2987 29.5177 22.1812 29.4655 22.0784C29.4132 21.9757 29.3088 21.9169 29.1969 21.9169H27.399L28.1823 18.2828C28.2121 18.1507 28.145 18.0112 28.0182 17.9525C27.8913 17.8937 27.7421 17.9304 27.6601 18.0406L23.5495 23.2311C23.4823 23.3192 23.4674 23.4366 23.5196 23.5394C23.5718 23.6422 23.6763 23.7009 23.7882 23.7009L23.7807 23.6936ZM37.3957 15.5958H15.5968V13.5916H37.3957V15.5958ZM36.1275 29.4127H16.8576V16.1832H36.1275V29.4127ZM18.5884 11.5873H20.916V13.0043H18.5884V11.5873ZM32.0765 11.5873H34.4042V13.0043H32.0765V11.5873ZM37.6941 13.0043H35.001V11.2937C35.001 11.1321 34.8667 11 34.7026 11H31.7781C31.614 11 31.4797 11.1321 31.4797 11.2937V13.0043H21.5128V11.2937C21.5128 11.1321 21.3785 11 21.2144 11H18.29C18.1259 11 17.9916 11.1321 17.9916 11.2937V13.0043H15.2984C15.1343 13.0043 15 13.1364 15 13.2979V15.8895C15 16.051 15.1343 16.1832 15.2984 16.1832H16.2682V29.7063C16.2682 29.8679 16.4025 30 16.5667 30H36.4333C36.5975 30 36.7318 29.8679 36.7318 29.7063V16.1832H37.7016C37.8657 16.1832 38 16.051 38 15.8895V13.2979C38 13.1364 37.8657 13.0043 37.7016 13.0043H37.6941Z" fill="#DB0011"/>
</g>
<defs>
<clipPath id="clip0_0_156">
<rect width="104" height="73" fill="white"/>
</clipPath>
</defs>
</svg>
