<?xml version="1.0" encoding="UTF-8"?>
<!DOCTYPE svg PUBLIC "-//W3C//DTD SVG 1.1//EN" "http://www.w3.org/Graphics/SVG/1.1/DTD/svg11.dtd">
<!-- Creator: CorelDRAW -->
<svg xmlns="http://www.w3.org/2000/svg" xml:space="preserve" width="2.24737cm" height="2.24814cm" version="1.1" style="shape-rendering:geometricPrecision; text-rendering:geometricPrecision; image-rendering:optimizeQuality; fill-rule:evenodd; clip-rule:evenodd"
viewBox="0 0 23.17 23.18"
 xmlns:xlink="http://www.w3.org/1999/xlink"
 xmlns:xodm="http://www.corel.com/coreldraw/odm/2003">
 <defs>
  <style type="text/css">
   <![CDATA[
    .str0 {stroke:red;stroke-width:0.21;stroke-miterlimit:22.9256}
    .fil0 {fill:none;fill-rule:nonzero}
    .fil1 {fill:red}
   ]]>
  </style>
 </defs>
 <g id="Слой_x0020_1">
  <metadata id="CorelCorpID_0Corel-Layer"/>
  <path id="Vector" class="fil0 str0" d="M5.98 16.59l1.53 0 0 -4.26 -1.53 0 0 4.26zm5.03 0.24l-5.81 0 0 0.58 5.81 0 0 -0.58zm4.85 0.66c-0.33,0.33 -0.76,0.51 -1.22,0.51 -0.46,0 -0.9,-0.19 -1.22,-0.51 -0.33,-0.33 -0.5,-0.77 -0.5,-1.23 0,-0.47 0.19,-0.9 0.5,-1.23 0.33,-0.33 0.76,-0.51 1.22,-0.51 0.46,0 0.9,0.19 1.22,0.51 0.33,0.33 0.5,0.77 0.5,1.23 0,0.47 -0.19,0.9 -0.5,1.23zm1.88 -1.72l-0.61 -0.06c-0.13,-0.01 -0.24,-0.1 -0.28,-0.23 -0.03,-0.08 -0.06,-0.17 -0.1,-0.25 -0.06,-0.11 -0.04,-0.26 0.04,-0.36l0.38 -0.48c0.08,-0.09 0.07,-0.24 -0.02,-0.32l-0.35 -0.35c-0.08,-0.08 -0.23,-0.09 -0.32,-0.02l-0.47 0.38c-0.1,0.08 -0.24,0.1 -0.36,0.04 -0.08,-0.04 -0.16,-0.07 -0.25,-0.1 -0.12,-0.04 -0.21,-0.16 -0.23,-0.28l-0.06 -0.61c-0.01,-0.12 -0.11,-0.22 -0.24,-0.22l-0.49 0c-0.12,0 -0.23,0.09 -0.24,0.22l-0.06 0.61c-0.01,0.13 -0.1,0.24 -0.23,0.28 -0.08,0.03 -0.16,0.06 -0.25,0.1 -0.11,0.06 -0.26,0.04 -0.36,-0.04l-0.47 -0.38c-0.09,-0.08 -0.24,-0.07 -0.32,0.02l-0.35 0.35c-0.08,0.08 -0.09,0.23 -0.02,0.32l0.38 0.48c0.08,0.1 0.1,0.24 0.04,0.36 -0.04,0.08 -0.07,0.17 -0.1,0.25 -0.04,0.12 -0.15,0.21 -0.28,0.23l-0.61 0.06c-0.12,0.01 -0.22,0.11 -0.22,0.24l0 0.5c0,0.12 0.09,0.23 0.22,0.24l0.61 0.06c0.13,0.01 0.24,0.1 0.28,0.23 0.03,0.08 0.06,0.17 0.1,0.25 0.06,0.11 0.04,0.26 -0.04,0.36l-0.38 0.48c-0.08,0.09 -0.07,0.24 0.02,0.32l0.35 0.35c0.08,0.08 0.23,0.09 0.32,0.02l0.47 -0.38c0.1,-0.08 0.24,-0.1 0.36,-0.04 0.08,0.04 0.16,0.07 0.25,0.1 0.12,0.04 0.21,0.16 0.23,0.28l0.06 0.61c0.01,0.12 0.11,0.22 0.24,0.22l0.49 0c0.12,0 0.23,-0.09 0.24,-0.22l0.06 -0.61c0.01,-0.13 0.1,-0.24 0.23,-0.28 0.08,-0.03 0.16,-0.06 0.25,-0.1 0.11,-0.06 0.26,-0.04 0.36,0.04l0.47 0.38c0.09,0.08 0.24,0.07 0.32,-0.02l0.35 -0.35c0.08,-0.08 0.09,-0.23 0.02,-0.32l-0.38 -0.48c-0.08,-0.1 -0.1,-0.24 -0.04,-0.36 0.04,-0.08 0.07,-0.17 0.1,-0.25 0.04,-0.12 0.15,-0.21 0.28,-0.23l0.61 -0.06c0.12,-0.01 0.22,-0.11 0.22,-0.24l0 -0.5c0,-0.12 -0.09,-0.23 -0.22,-0.24zm-12.14 -5.42c0.02,0.05 0.08,0.07 0.13,0.05 3.17,-1.36 6.2,-3.11 9,-5.23 0.13,0.16 0.26,0.3 0.39,0.46 0.24,-0.68 0.45,-1.38 0.66,-2.06 -0.69,0.17 -1.38,0.3 -2.07,0.43 0.12,0.15 0.26,0.29 0.38,0.45 -2.57,2.25 -5.41,4.19 -8.45,5.78 -0.05,0.03 -0.07,0.09 -0.04,0.15l0 -0.01zm8.78 2.17l0.49 0c0.22,0 0.41,0.1 0.52,0.28l0 -5.11 -1.53 0 0 5.11c0.11,-0.17 0.31,-0.28 0.52,-0.28l-0.01 0zm-2.34 2.79c0.03,-0.07 0.06,-0.15 0.09,-0.22l-0.36 -0.45c-0.21,-0.26 -0.19,-0.62 0.04,-0.85l0.35 -0.35c0.12,-0.12 0.28,-0.19 0.45,-0.19 0.05,0 0.09,0.01 0.14,0.02l0 -4.03 -1.53 0 0 6.23c0.07,-0.04 0.15,-0.07 0.25,-0.08l0.57 -0.06 0 -0.02zm-3.45 1.29l1.53 0 0 -5.82 -1.53 0 0 5.82z"/>
  <path id="Vector_0" class="fil1" d="M19.12 5.3c-0.14,0.07 -0.28,0.07 -0.42,0.02 -0.14,-0.05 -0.26,-0.14 -0.33,-0.28 -0.07,-0.14 -0.07,-0.28 -0.02,-0.42 0.05,-0.14 0.14,-0.26 0.28,-0.33 0.07,-0.05 0.16,-0.07 0.26,-0.07 0.05,0 0.12,0 0.16,0.02 0.14,0.05 0.26,0.14 0.33,0.28 0.07,0.14 0.07,0.28 0.02,0.42 -0.05,0.14 -0.14,0.26 -0.28,0.33l0 0.02zm0.49 -0.26c0.07,-0.19 0.05,-0.4 -0.05,-0.59 -0.09,-0.19 -0.26,-0.33 -0.45,-0.4 -0.19,-0.07 -0.4,-0.05 -0.59,0.05 -0.05,0.02 -0.07,0.05 -0.12,0.07 -3.07,-2.84 -7.64,-3.47 -11.37,-1.57 -4.01,2.04 -6.19,6.54 -5.3,10.97 0.02,0.14 0.07,0.28 0.09,0.42 0.19,0.73 0.45,1.45 0.8,2.13 0.02,0.05 0.07,0.07 0.09,0.07 0.02,0 0.02,0 0.05,-0.02 0.05,-0.02 0.07,-0.09 0.05,-0.14 -0.33,-0.66 -0.61,-1.36 -0.77,-2.09 -0.02,-0.14 -0.07,-0.28 -0.09,-0.42 -0.87,-4.31 1.27,-8.72 5.18,-10.71 3.66,-1.85 8.11,-1.24 11.11,1.52 -0.05,0.07 -0.09,0.14 -0.12,0.23 -0.07,0.19 -0.05,0.4 0.05,0.59 0.09,0.19 0.26,0.33 0.45,0.4 0.07,0.02 0.16,0.05 0.23,0.05 0.12,0 0.23,-0.02 0.35,-0.09 0.19,-0.09 0.33,-0.26 0.4,-0.45l0 -0.02zm-15.41 13.92c-0.28,-0.09 -0.45,-0.42 -0.35,-0.7 0.05,-0.14 0.14,-0.26 0.28,-0.33 0.07,-0.05 0.16,-0.07 0.26,-0.07 0.05,0 0.12,0 0.16,0.02 0.14,0.05 0.26,0.14 0.33,0.28 0.07,0.14 0.07,0.28 0.02,0.42 -0.09,0.28 -0.4,0.45 -0.7,0.35l0 0.02zm17.23 -9.4c-0.02,-0.14 -0.07,-0.28 -0.09,-0.42 -0.19,-0.73 -0.45,-1.45 -0.8,-2.13 -0.02,-0.05 -0.09,-0.07 -0.14,-0.05 -0.05,0.02 -0.07,0.09 -0.05,0.14 0.33,0.66 0.61,1.36 0.77,2.09 0.05,0.14 0.07,0.28 0.09,0.42 0.87,4.31 -1.24,8.72 -5.18,10.71 -3.61,1.83 -8.02,1.24 -11.02,-1.43 0.05,-0.07 0.09,-0.14 0.12,-0.21 0.07,-0.19 0.05,-0.4 -0.05,-0.59 -0.09,-0.19 -0.26,-0.33 -0.45,-0.4 -0.4,-0.14 -0.84,0.09 -0.98,0.49 -0.14,0.4 0.09,0.84 0.49,0.98 0.07,0.02 0.16,0.05 0.23,0.05 0.16,0 0.35,-0.07 0.47,-0.16 1.88,1.69 4.29,2.55 6.73,2.55 1.55,0 3.12,-0.35 4.55,-1.08 4.01,-2.04 6.19,-6.56 5.3,-10.97zm-1.43 10.5c-0.05,0.14 -0.14,0.26 -0.28,0.33 -0.14,0.07 -0.28,0.07 -0.42,0.02 -0.14,-0.05 -0.26,-0.14 -0.33,-0.28 -0.07,-0.14 -0.07,-0.28 -0.02,-0.42 0.07,-0.23 0.3,-0.38 0.52,-0.38 0.05,0 0.12,0 0.16,0.02 0.14,0.05 0.26,0.14 0.33,0.28 0.07,0.14 0.07,0.28 0.02,0.42l0.02 0zm0.09 -0.63c3.28,-3.54 4.01,-8.81 1.81,-13.1 -2.37,-4.62 -7.55,-7.15 -12.64,-6.09 -0.14,0.02 -0.3,0.07 -0.49,0.12 -0.84,0.21 -1.66,0.52 -2.46,0.91 -0.16,0.09 -0.35,0.19 -0.49,0.28 -0.05,0.02 -0.07,0.09 -0.05,0.14 0.02,0.05 0.09,0.07 0.14,0.05 0.16,-0.09 0.33,-0.19 0.49,-0.26 0.77,-0.4 1.57,-0.7 2.42,-0.89 0.19,-0.05 0.35,-0.07 0.49,-0.12 4.99,-1.01 10.08,1.45 12.4,5.98 2.16,4.22 1.43,9.37 -1.76,12.84 -0.07,-0.05 -0.14,-0.09 -0.21,-0.12 -0.4,-0.14 -0.84,0.09 -0.98,0.49 -0.07,0.19 -0.05,0.4 0.05,0.59 0.09,0.19 0.26,0.33 0.45,0.38 0.07,0.02 0.16,0.05 0.23,0.05 0.12,0 0.23,-0.02 0.35,-0.09 0.19,-0.09 0.33,-0.26 0.38,-0.45 0.07,-0.19 0.05,-0.4 -0.05,-0.59 -0.02,-0.05 -0.05,-0.07 -0.07,-0.12zm-16.86 -16.45c0.05,-0.14 0.14,-0.26 0.28,-0.33 0.07,-0.05 0.16,-0.07 0.26,-0.07 0.05,0 0.12,0 0.16,0.02 0.14,0.05 0.26,0.14 0.33,0.28 0.07,0.14 0.07,0.28 0.02,0.42 -0.05,0.14 -0.14,0.26 -0.28,0.33 -0.14,0.07 -0.28,0.07 -0.42,0.02 -0.14,-0.05 -0.26,-0.14 -0.33,-0.28 -0.07,-0.14 -0.07,-0.28 -0.02,-0.42l0 0.02zm14 18.44c-0.16,0.09 -0.33,0.19 -0.49,0.26 -0.77,0.4 -1.57,0.7 -2.42,0.91 -0.16,0.05 -0.33,0.07 -0.49,0.12 -4.99,1.01 -10.08,-1.45 -12.4,-6 -2.18,-4.27 -1.43,-9.47 1.85,-12.94 0.07,0.05 0.14,0.09 0.23,0.12 0.07,0.02 0.16,0.05 0.23,0.05 0.12,0 0.23,-0.02 0.35,-0.09 0.19,-0.09 0.33,-0.26 0.38,-0.45 0.07,-0.19 0.05,-0.4 -0.05,-0.59 -0.09,-0.19 -0.26,-0.33 -0.45,-0.37 -0.19,-0.07 -0.4,-0.05 -0.59,0.05 -0.19,0.09 -0.33,0.26 -0.38,0.45 -0.07,0.19 -0.05,0.4 0.05,0.59 0.02,0.05 0.05,0.07 0.07,0.12 -3.35,3.56 -4.1,8.86 -1.9,13.22 1.99,3.94 6.05,6.33 10.34,6.33 0.75,0 1.52,-0.07 2.3,-0.23 0.16,-0.02 0.33,-0.07 0.49,-0.12 0.84,-0.21 1.66,-0.52 2.46,-0.91 0.16,-0.09 0.33,-0.19 0.49,-0.28 0.05,-0.02 0.07,-0.09 0.05,-0.14 -0.02,-0.05 -0.09,-0.07 -0.14,-0.05l0 -0.02z"/>
 </g>
</svg>
