<svg width="30.000000" height="30.000000" viewBox="0 0 30 30" fill="none" xmlns="http://www.w3.org/2000/svg" xmlns:xlink="http://www.w3.org/1999/xlink">
	<desc>
			Created with Pixso.
	</desc>
	<defs>
		<clipPath id="clip43_6896">
			<rect id="bi:box" width="30.000000" height="30.000000" fill="white" fill-opacity="0"/>
		</clipPath>
	</defs>
	<rect id="bi:box" width="30.000000" height="30.000000" fill="#FFFFFF" fill-opacity="0"/>
	<g clip-path="url(#clip43_6896)">
		<path id="Vector" d="M15.21 7.17C15.07 7.11 14.92 7.11 14.78 7.17L8.07 9.86L15 12.65L21.92 9.86L15.21 7.17ZM22.87 10.7L15.56 13.64L15.56 22.59L22.87 19.66L22.87 10.7L22.87 10.7ZM14.43 22.6L14.43 13.64L7.12 10.7L7.12 19.66L14.43 22.6ZM14.37 6.12C14.77 5.95 15.22 5.95 15.62 6.12L23.64 9.34C23.75 9.38 23.83 9.45 23.9 9.55C23.96 9.64 24 9.75 24 9.86L24 19.66C24 19.88 23.93 20.1 23.8 20.29C23.67 20.48 23.5 20.62 23.29 20.71L15.21 23.95C15.07 24.01 14.92 24.01 14.78 23.95L6.7 20.71C6.5 20.62 6.32 20.48 6.19 20.29C6.06 20.1 6 19.88 6 19.66L6 9.86C6 9.75 6.03 9.64 6.09 9.55C6.16 9.45 6.25 9.38 6.35 9.34L14.37 6.12Z" fill="#A8A8A8" fill-opacity="1.000000" fill-rule="evenodd"/>
		<path id="Vector" d="M23.75 9.06L15.73 5.84L15.73 5.84C15.61 5.79 15.49 5.75 15.37 5.73C15.25 5.71 15.12 5.69 15 5.69C14.87 5.69 14.75 5.71 14.62 5.73C14.5 5.75 14.38 5.79 14.26 5.84L6.24 9.06C6.16 9.09 6.08 9.14 6.02 9.19C5.95 9.24 5.89 9.31 5.84 9.38C5.8 9.45 5.76 9.53 5.73 9.61C5.71 9.69 5.69 9.78 5.69 9.86L5.69 19.66C5.69 19.8 5.72 19.94 5.76 20.08C5.8 20.21 5.86 20.34 5.94 20.46C6.02 20.58 6.12 20.69 6.23 20.78C6.34 20.86 6.46 20.93 6.59 20.98L14.67 24.23C14.78 24.28 14.89 24.3 15 24.3C15.1 24.3 15.21 24.28 15.32 24.23L23.4 20.98C23.53 20.93 23.66 20.86 23.76 20.77C23.87 20.69 23.97 20.58 24.05 20.46C24.13 20.34 24.19 20.21 24.23 20.08C24.27 19.95 24.3 19.8 24.3 19.66L24.3 9.86C24.3 9.78 24.28 9.69 24.26 9.61C24.23 9.53 24.19 9.45 24.15 9.38C24.1 9.31 24.04 9.24 23.98 9.19C23.91 9.14 23.83 9.09 23.75 9.06ZM6.35 9.34L14.37 6.12C14.77 5.95 15.22 5.95 15.62 6.12L23.64 9.34C23.75 9.38 23.83 9.45 23.9 9.55C23.96 9.64 24 9.75 24 9.86L24 19.66C24 19.88 23.93 20.1 23.8 20.29C23.67 20.48 23.5 20.62 23.29 20.71L15.21 23.95C15.07 24.01 14.92 24.01 14.78 23.95L6.7 20.71C6.5 20.62 6.32 20.48 6.19 20.29C6.06 20.1 6 19.88 6 19.66L6 9.86C6 9.75 6.03 9.64 6.09 9.55C6.16 9.45 6.25 9.38 6.35 9.34ZM21.51 9.7L15.21 7.17C15.07 7.11 14.92 7.11 14.78 7.17L8.48 9.7L8.07 9.86L8.48 10.03L15 12.65L21.51 10.03L21.92 9.86L21.51 9.7ZM21.11 9.86L15.09 7.44C15.06 7.43 15.03 7.43 15 7.43C14.96 7.43 14.93 7.43 14.9 7.44L14.9 7.44L8.88 9.86L15 12.32L21.11 9.86ZM14.43 13.64L14.43 22.6L14.13 22.48L7.12 19.66L7.12 10.7L7.42 10.82L14.43 13.64ZM7.42 11.14L7.42 19.45L14.13 22.15L14.13 13.84L7.42 11.14ZM15.86 13.84L15.86 22.15L22.57 19.45L22.57 11.14L15.86 13.84ZM22.57 10.82L15.56 13.64L15.56 22.59L15.86 22.47L22.87 19.66L22.87 10.7L22.57 10.82Z" fill="#A8A8A8" fill-opacity="1.000000" fill-rule="evenodd"/>
	</g>
</svg>
