<svg width="29.000000" height="30.000000" viewBox="0 0 29 30" fill="none" xmlns="http://www.w3.org/2000/svg" xmlns:xlink="http://www.w3.org/1999/xlink">
	<desc>
			Created with Pixso.
	</desc>
	<defs>
		<clipPath id="clip851_21251">
			<rect id="bx:bxs-user" rx="-0.500000" width="28.000000" height="29.000000" transform="translate(0.500000 0.500000)" fill="white" fill-opacity="0"/>
		</clipPath>
	</defs>
	<rect id="bx:bxs-user" rx="-0.500000" width="28.000000" height="29.000000" transform="translate(0.500000 0.500000)" fill="#FFFFFF" fill-opacity="0"/>
	<g clip-path="url(#clip851_21251)">
		<path id="Vector" d="M10.15 9.5C10.15 11.98 12.1 14 14.5 14C16.89 14 18.85 11.98 18.85 9.5C18.85 7.01 16.89 5 14.5 5C12.1 5 10.15 7.01 10.15 9.5ZM22.23 24L23.2 24L23.2 23C23.2 19.14 20.16 16 16.43 16L12.56 16C8.83 16 5.8 19.14 5.8 23L5.8 24L22.23 24Z" fill="#121F95" fill-opacity="0" fill-rule="nonzero"/>
		<path id="Vector" d="M14.5 16L12.56 16C9.16 16 6.33 18.61 5.86 22C5.82 22.32 5.8 22.66 5.8 23L5.8 24L23.2 24L23.2 23C23.2 22.66 23.17 22.32 23.13 22C22.66 18.61 19.83 16 16.43 16L14.5 16ZM21.1 22Q21.08 21.89 21.06 21.78Q20.96 21.4 20.81 21.03Q20.61 20.53 20.3 20.09Q20.07 19.74 19.77 19.44Q19.33 18.98 18.81 18.66Q18.54 18.5 18.26 18.38Q17.83 18.19 17.38 18.09Q16.91 18 16.43 18L12.56 18Q12.08 18 11.61 18.09Q11.16 18.19 10.73 18.38Q10.45 18.5 10.18 18.66Q9.66 18.98 9.22 19.44Q8.92 19.74 8.69 20.09Q8.39 20.53 8.18 21.03Q8.03 21.4 7.94 21.78Q7.91 21.89 7.89 22L21.1 22ZM14.5 14C12.1 14 10.15 11.98 10.15 9.5C10.15 7.01 12.1 5 14.5 5C16.89 5 18.85 7.01 18.85 9.5C18.85 11.98 16.89 14 14.5 14ZM14.96 11.95Q14.73 12 14.5 12Q14.26 12 14.03 11.95Q13.81 11.9 13.61 11.81Q13.49 11.76 13.37 11.69Q13.09 11.53 12.86 11.29Q12.72 11.14 12.6 10.97Q12.45 10.75 12.34 10.49Q12.27 10.31 12.22 10.14Q12.15 9.83 12.15 9.5Q12.15 9.16 12.22 8.85Q12.27 8.68 12.34 8.5Q12.45 8.24 12.6 8.02Q12.72 7.85 12.86 7.7Q13.09 7.46 13.37 7.3Q13.49 7.23 13.61 7.18Q13.81 7.09 14.03 7.04Q14.26 7 14.5 7Q14.73 7 14.96 7.04Q15.18 7.09 15.38 7.18Q15.5 7.23 15.62 7.3Q15.9 7.46 16.13 7.7Q16.27 7.85 16.39 8.02Q16.55 8.24 16.65 8.5Q16.72 8.68 16.77 8.85Q16.85 9.16 16.85 9.5Q16.85 9.83 16.77 10.14Q16.72 10.31 16.65 10.49Q16.55 10.75 16.39 10.97Q16.27 11.14 16.13 11.29Q15.9 11.53 15.62 11.69Q15.5 11.76 15.38 11.81Q15.18 11.9 14.96 11.95Z" fill="#FFFFFF" fill-opacity="1.000000" fill-rule="evenodd"/>
	</g>
</svg>
