<svg width="14.000000" height="12.599426" viewBox="0 0 14 12.5994" fill="none" xmlns="http://www.w3.org/2000/svg" xmlns:xlink="http://www.w3.org/1999/xlink">
	<desc>
			Created with Pixso.
	</desc>
	<defs/>
	<path id="Vector" d="M13.87 3.1C13.81 3 13.72 2.93 13.62 2.87C13.52 2.82 13.41 2.79 13.29 2.79L3.73 2.79L2.92 0.86C2.81 0.6 2.64 0.38 2.41 0.23C2.17 0.08 1.91 -0.01 1.63 0L0 0L0 1.39L1.63 1.39L4.95 9.36C5 9.49 5.09 9.6 5.21 9.68C5.32 9.75 5.46 9.79 5.59 9.79L11.19 9.79C11.49 9.79 11.75 9.61 11.85 9.34L13.95 3.74C13.99 3.64 14 3.52 13.99 3.41C13.98 3.3 13.93 3.19 13.87 3.1Z" fill="#FFFFFF" fill-opacity="1.000000" fill-rule="nonzero"/>
	<path id="Vector" d="M7 11.54C7 12.12 6.52 12.59 5.95 12.59C5.37 12.59 4.9 12.12 4.9 11.54C4.9 10.96 5.37 10.49 5.95 10.49C6.52 10.49 7 10.96 7 11.54Z" fill="#FFFFFF" fill-opacity="1.000000" fill-rule="evenodd"/>
	<path id="Vector" d="M11.9 11.54C11.9 12.12 11.42 12.59 10.85 12.59C10.27 12.59 9.8 12.12 9.8 11.54C9.8 10.96 10.27 10.49 10.85 10.49C11.42 10.49 11.9 10.96 11.9 11.54Z" fill="#FFFFFF" fill-opacity="1.000000" fill-rule="evenodd"/>
</svg>
