<svg width="16.000000" height="16.000000" viewBox="0 0 16 16" fill="none" xmlns="http://www.w3.org/2000/svg" xmlns:xlink="http://www.w3.org/1999/xlink">
	<desc>
			Created with Pixso.
	</desc>
	<defs>
		<clipPath id="clip28_5507">
			<rect id="ion:search" rx="-0.500000" width="15.000000" height="15.000000" transform="translate(0.500000 0.500000)" fill="white" fill-opacity="0"/>
		</clipPath>
	</defs>
	<rect id="ion:search" rx="-0.500000" width="15.000000" height="15.000000" transform="translate(0.500000 0.500000)" fill="#FFFFFF" fill-opacity="0"/>
	<g clip-path="url(#clip28_5507)">
		<path id="Vector" d="M14.27 13.16L11.33 10.22C12.03 9.28 12.42 8.13 12.41 6.95C12.41 3.94 9.97 1.5 6.96 1.5C3.94 1.5 1.5 3.94 1.5 6.95C1.5 9.97 3.94 12.41 6.96 12.41C8.13 12.42 9.28 12.03 10.22 11.33L13.16 14.27C13.31 14.4 13.51 14.47 13.71 14.47C13.91 14.46 14.09 14.38 14.24 14.24C14.38 14.1 14.46 13.91 14.47 13.71C14.47 13.51 14.4 13.31 14.27 13.16ZM3.06 6.95C3.06 6.18 3.28 5.43 3.71 4.79C4.14 4.15 4.75 3.65 5.46 3.35C6.17 3.06 6.96 2.98 7.72 3.13C8.47 3.28 9.17 3.65 9.71 4.2C10.26 4.74 10.63 5.44 10.78 6.19C10.93 6.95 10.85 7.73 10.56 8.45C10.26 9.16 9.76 9.77 9.12 10.2C8.48 10.63 7.73 10.86 6.96 10.86C5.92 10.85 4.93 10.44 4.2 9.71C3.47 8.98 3.06 7.99 3.06 6.95Z" fill="#A8A8A8" fill-opacity="1.000000" fill-rule="nonzero"/>
	</g>
</svg>
