<svg width="29" height="30" viewBox="0 0 29 30" fill="none" xmlns="http://www.w3.org/2000/svg">
<path d="M13.7736 9.92071L14.4989 10.6847L15.2242 9.92071C16.062 9.03808 17.381 8 18.7795 8C20.1253 8 21.2089 8.46792 21.9543 9.2168C22.7001 9.96602 23.1673 11.0569 23.1673 12.4125C23.1673 13.8791 22.6009 15.1111 21.6761 16.2711C20.7323 17.4551 19.4652 18.5048 18.1171 19.6164C18.117 19.6165 18.117 19.6165 18.1169 19.6166L18.0943 19.6352C16.8843 20.6325 15.5514 21.7312 14.4994 22.9621C13.4577 21.7415 12.1373 20.6515 10.9377 19.6613L10.8839 19.6169L10.8835 19.6166C9.535 18.5045 8.26807 17.4546 7.32448 16.2706C6.40006 15.1106 5.83398 13.8788 5.83398 12.4125C5.83398 11.0569 6.30124 9.96604 7.04706 9.21684C7.79255 8.46797 8.8764 8 10.2227 8C11.6197 8 12.935 9.03725 13.7736 9.92071Z" stroke="#A8A8A8" stroke-width="2"/>
</svg>
